<?xml version="1.0" encoding="utf-8" standalone="no"?>
<!DOCTYPE svg PUBLIC "-//W3C//DTD SVG 1.1//EN"
  "http://www.w3.org/Graphics/SVG/1.1/DTD/svg11.dtd">
<!-- Created with matplotlib (http://matplotlib.org/) -->
<svg height="525pt" version="1.1" viewBox="0 0 741 525" width="741pt" xmlns="http://www.w3.org/2000/svg" xmlns:xlink="http://www.w3.org/1999/xlink">
 <defs>
  <style type="text/css">
*{stroke-linecap:butt;stroke-linejoin:round;}
  </style>
 </defs>
 <g id="figure_1">
  <g id="patch_1">
   <path d="M 0 525.6 
L 741.6 525.6 
L 741.6 0 
L 0 0 
z
" style="fill:#ffffff;"/>
  </g>
  <g id="axes_1">
   <g id="patch_2">
    <path d="M 92.7 430.992 
L 548.784 430.992 
L 548.784 63.072 
L 92.7 63.072 
z
" style="fill:#ffffff;"/>
   </g>
   <g id="matplotlib.axis_1">
    <g id="xtick_1">
     <g id="line2d_1">
      <defs>
       <path d="M 0 0 
L 0 3.5 
" id="me587c471d7" style="stroke:#000000;stroke-width:0.8;"/>
      </defs>
      <g>
       <use style="stroke:#000000;stroke-width:0.8;" x="113.431091" xlink:href="#me587c471d7" y="430.992"/>
      </g>
     </g>
     <g id="text_1">
      <!-- 2008 -->
      <defs>
       <path d="M 19.1875 8.296875 
L 53.609375 8.296875 
L 53.609375 0 
L 7.328125 0 
L 7.328125 8.296875 
Q 12.9375 14.109375 22.625 23.890625 
Q 32.328125 33.6875 34.8125 36.53125 
Q 39.546875 41.84375 41.421875 45.53125 
Q 43.3125 49.21875 43.3125 52.78125 
Q 43.3125 58.59375 39.234375 62.25 
Q 35.15625 65.921875 28.609375 65.921875 
Q 23.96875 65.921875 18.8125 64.3125 
Q 13.671875 62.703125 7.8125 59.421875 
L 7.8125 69.390625 
Q 13.765625 71.78125 18.9375 73 
Q 24.125 74.21875 28.421875 74.21875 
Q 39.75 74.21875 46.484375 68.546875 
Q 53.21875 62.890625 53.21875 53.421875 
Q 53.21875 48.921875 51.53125 44.890625 
Q 49.859375 40.875 45.40625 35.40625 
Q 44.1875 33.984375 37.640625 27.21875 
Q 31.109375 20.453125 19.1875 8.296875 
z
" id="DejaVuSans-32"/>
       <path d="M 31.78125 66.40625 
Q 24.171875 66.40625 20.328125 58.90625 
Q 16.5 51.421875 16.5 36.375 
Q 16.5 21.390625 20.328125 13.890625 
Q 24.171875 6.390625 31.78125 6.390625 
Q 39.453125 6.390625 43.28125 13.890625 
Q 47.125 21.390625 47.125 36.375 
Q 47.125 51.421875 43.28125 58.90625 
Q 39.453125 66.40625 31.78125 66.40625 
z
M 31.78125 74.21875 
Q 44.046875 74.21875 50.515625 64.515625 
Q 56.984375 54.828125 56.984375 36.375 
Q 56.984375 17.96875 50.515625 8.265625 
Q 44.046875 -1.421875 31.78125 -1.421875 
Q 19.53125 -1.421875 13.0625 8.265625 
Q 6.59375 17.96875 6.59375 36.375 
Q 6.59375 54.828125 13.0625 64.515625 
Q 19.53125 74.21875 31.78125 74.21875 
z
" id="DejaVuSans-30"/>
       <path d="M 31.78125 34.625 
Q 24.75 34.625 20.71875 30.859375 
Q 16.703125 27.09375 16.703125 20.515625 
Q 16.703125 13.921875 20.71875 10.15625 
Q 24.75 6.390625 31.78125 6.390625 
Q 38.8125 6.390625 42.859375 10.171875 
Q 46.921875 13.96875 46.921875 20.515625 
Q 46.921875 27.09375 42.890625 30.859375 
Q 38.875 34.625 31.78125 34.625 
z
M 21.921875 38.8125 
Q 15.578125 40.375 12.03125 44.71875 
Q 8.5 49.078125 8.5 55.328125 
Q 8.5 64.0625 14.71875 69.140625 
Q 20.953125 74.21875 31.78125 74.21875 
Q 42.671875 74.21875 48.875 69.140625 
Q 55.078125 64.0625 55.078125 55.328125 
Q 55.078125 49.078125 51.53125 44.71875 
Q 48 40.375 41.703125 38.8125 
Q 48.828125 37.15625 52.796875 32.3125 
Q 56.78125 27.484375 56.78125 20.515625 
Q 56.78125 9.90625 50.3125 4.234375 
Q 43.84375 -1.421875 31.78125 -1.421875 
Q 19.734375 -1.421875 13.25 4.234375 
Q 6.78125 9.90625 6.78125 20.515625 
Q 6.78125 27.484375 10.78125 32.3125 
Q 14.796875 37.15625 21.921875 38.8125 
z
M 18.3125 54.390625 
Q 18.3125 48.734375 21.84375 45.5625 
Q 25.390625 42.390625 31.78125 42.390625 
Q 38.140625 42.390625 41.71875 45.5625 
Q 45.3125 48.734375 45.3125 54.390625 
Q 45.3125 60.0625 41.71875 63.234375 
Q 38.140625 66.40625 31.78125 66.40625 
Q 25.390625 66.40625 21.84375 63.234375 
Q 18.3125 60.0625 18.3125 54.390625 
z
" id="DejaVuSans-38"/>
      </defs>
      <g transform="translate(100.069841 445.970359)scale(0.105 -0.105)">
       <use xlink:href="#DejaVuSans-32"/>
       <use x="63.623047" xlink:href="#DejaVuSans-30"/>
       <use x="127.246094" xlink:href="#DejaVuSans-30"/>
       <use x="190.869141" xlink:href="#DejaVuSans-38"/>
      </g>
     </g>
    </g>
    <g id="xtick_2">
     <g id="line2d_2">
      <g>
       <use style="stroke:#000000;stroke-width:0.8;" x="159.500182" xlink:href="#me587c471d7" y="430.992"/>
      </g>
     </g>
     <g id="text_2">
      <!-- 2009 -->
      <defs>
       <path d="M 10.984375 1.515625 
L 10.984375 10.5 
Q 14.703125 8.734375 18.5 7.8125 
Q 22.3125 6.890625 25.984375 6.890625 
Q 35.75 6.890625 40.890625 13.453125 
Q 46.046875 20.015625 46.78125 33.40625 
Q 43.953125 29.203125 39.59375 26.953125 
Q 35.25 24.703125 29.984375 24.703125 
Q 19.046875 24.703125 12.671875 31.3125 
Q 6.296875 37.9375 6.296875 49.421875 
Q 6.296875 60.640625 12.9375 67.421875 
Q 19.578125 74.21875 30.609375 74.21875 
Q 43.265625 74.21875 49.921875 64.515625 
Q 56.59375 54.828125 56.59375 36.375 
Q 56.59375 19.140625 48.40625 8.859375 
Q 40.234375 -1.421875 26.421875 -1.421875 
Q 22.703125 -1.421875 18.890625 -0.6875 
Q 15.09375 0.046875 10.984375 1.515625 
z
M 30.609375 32.421875 
Q 37.25 32.421875 41.125 36.953125 
Q 45.015625 41.5 45.015625 49.421875 
Q 45.015625 57.28125 41.125 61.84375 
Q 37.25 66.40625 30.609375 66.40625 
Q 23.96875 66.40625 20.09375 61.84375 
Q 16.21875 57.28125 16.21875 49.421875 
Q 16.21875 41.5 20.09375 36.953125 
Q 23.96875 32.421875 30.609375 32.421875 
z
" id="DejaVuSans-39"/>
      </defs>
      <g transform="translate(146.138932 445.970359)scale(0.105 -0.105)">
       <use xlink:href="#DejaVuSans-32"/>
       <use x="63.623047" xlink:href="#DejaVuSans-30"/>
       <use x="127.246094" xlink:href="#DejaVuSans-30"/>
       <use x="190.869141" xlink:href="#DejaVuSans-39"/>
      </g>
     </g>
    </g>
    <g id="xtick_3">
     <g id="line2d_3">
      <g>
       <use style="stroke:#000000;stroke-width:0.8;" x="205.569273" xlink:href="#me587c471d7" y="430.992"/>
      </g>
     </g>
     <g id="text_3">
      <!-- 2010 -->
      <defs>
       <path d="M 12.40625 8.296875 
L 28.515625 8.296875 
L 28.515625 63.921875 
L 10.984375 60.40625 
L 10.984375 69.390625 
L 28.421875 72.90625 
L 38.28125 72.90625 
L 38.28125 8.296875 
L 54.390625 8.296875 
L 54.390625 0 
L 12.40625 0 
z
" id="DejaVuSans-31"/>
      </defs>
      <g transform="translate(192.208023 445.970359)scale(0.105 -0.105)">
       <use xlink:href="#DejaVuSans-32"/>
       <use x="63.623047" xlink:href="#DejaVuSans-30"/>
       <use x="127.246094" xlink:href="#DejaVuSans-31"/>
       <use x="190.869141" xlink:href="#DejaVuSans-30"/>
      </g>
     </g>
    </g>
    <g id="xtick_4">
     <g id="line2d_4">
      <g>
       <use style="stroke:#000000;stroke-width:0.8;" x="251.638364" xlink:href="#me587c471d7" y="430.992"/>
      </g>
     </g>
     <g id="text_4">
      <!-- 2011 -->
      <g transform="translate(238.277114 445.970359)scale(0.105 -0.105)">
       <use xlink:href="#DejaVuSans-32"/>
       <use x="63.623047" xlink:href="#DejaVuSans-30"/>
       <use x="127.246094" xlink:href="#DejaVuSans-31"/>
       <use x="190.869141" xlink:href="#DejaVuSans-31"/>
      </g>
     </g>
    </g>
    <g id="xtick_5">
     <g id="line2d_5">
      <g>
       <use style="stroke:#000000;stroke-width:0.8;" x="297.707455" xlink:href="#me587c471d7" y="430.992"/>
      </g>
     </g>
     <g id="text_5">
      <!-- FY12 -->
      <defs>
       <path d="M 9.8125 72.90625 
L 51.703125 72.90625 
L 51.703125 64.59375 
L 19.671875 64.59375 
L 19.671875 43.109375 
L 48.578125 43.109375 
L 48.578125 34.8125 
L 19.671875 34.8125 
L 19.671875 0 
L 9.8125 0 
z
" id="DejaVuSans-46"/>
       <path d="M -0.203125 72.90625 
L 10.40625 72.90625 
L 30.609375 42.921875 
L 50.6875 72.90625 
L 61.28125 72.90625 
L 35.5 34.71875 
L 35.5 0 
L 25.59375 0 
L 25.59375 34.71875 
z
" id="DejaVuSans-59"/>
      </defs>
      <g transform="translate(284.800658 445.970359)scale(0.105 -0.105)">
       <use xlink:href="#DejaVuSans-46"/>
       <use x="57.519531" xlink:href="#DejaVuSans-59"/>
       <use x="118.603516" xlink:href="#DejaVuSans-31"/>
       <use x="182.226562" xlink:href="#DejaVuSans-32"/>
      </g>
     </g>
    </g>
    <g id="xtick_6">
     <g id="line2d_6">
      <g>
       <use style="stroke:#000000;stroke-width:0.8;" x="343.776545" xlink:href="#me587c471d7" y="430.992"/>
      </g>
     </g>
     <g id="text_6">
      <!-- FY13 -->
      <defs>
       <path d="M 40.578125 39.3125 
Q 47.65625 37.796875 51.625 33 
Q 55.609375 28.21875 55.609375 21.1875 
Q 55.609375 10.40625 48.1875 4.484375 
Q 40.765625 -1.421875 27.09375 -1.421875 
Q 22.515625 -1.421875 17.65625 -0.515625 
Q 12.796875 0.390625 7.625 2.203125 
L 7.625 11.71875 
Q 11.71875 9.328125 16.59375 8.109375 
Q 21.484375 6.890625 26.8125 6.890625 
Q 36.078125 6.890625 40.9375 10.546875 
Q 45.796875 14.203125 45.796875 21.1875 
Q 45.796875 27.640625 41.28125 31.265625 
Q 36.765625 34.90625 28.71875 34.90625 
L 20.21875 34.90625 
L 20.21875 43.015625 
L 29.109375 43.015625 
Q 36.375 43.015625 40.234375 45.921875 
Q 44.09375 48.828125 44.09375 54.296875 
Q 44.09375 59.90625 40.109375 62.90625 
Q 36.140625 65.921875 28.71875 65.921875 
Q 24.65625 65.921875 20.015625 65.03125 
Q 15.375 64.15625 9.8125 62.3125 
L 9.8125 71.09375 
Q 15.4375 72.65625 20.34375 73.4375 
Q 25.25 74.21875 29.59375 74.21875 
Q 40.828125 74.21875 47.359375 69.109375 
Q 53.90625 64.015625 53.90625 55.328125 
Q 53.90625 49.265625 50.4375 45.09375 
Q 46.96875 40.921875 40.578125 39.3125 
z
" id="DejaVuSans-33"/>
      </defs>
      <g transform="translate(330.869749 445.970359)scale(0.105 -0.105)">
       <use xlink:href="#DejaVuSans-46"/>
       <use x="57.519531" xlink:href="#DejaVuSans-59"/>
       <use x="118.603516" xlink:href="#DejaVuSans-31"/>
       <use x="182.226562" xlink:href="#DejaVuSans-33"/>
      </g>
     </g>
    </g>
    <g id="xtick_7">
     <g id="line2d_7">
      <g>
       <use style="stroke:#000000;stroke-width:0.8;" x="389.845636" xlink:href="#me587c471d7" y="430.992"/>
      </g>
     </g>
     <g id="text_7">
      <!-- FY14 -->
      <defs>
       <path d="M 37.796875 64.3125 
L 12.890625 25.390625 
L 37.796875 25.390625 
z
M 35.203125 72.90625 
L 47.609375 72.90625 
L 47.609375 25.390625 
L 58.015625 25.390625 
L 58.015625 17.1875 
L 47.609375 17.1875 
L 47.609375 0 
L 37.796875 0 
L 37.796875 17.1875 
L 4.890625 17.1875 
L 4.890625 26.703125 
z
" id="DejaVuSans-34"/>
      </defs>
      <g transform="translate(376.938839 445.970359)scale(0.105 -0.105)">
       <use xlink:href="#DejaVuSans-46"/>
       <use x="57.519531" xlink:href="#DejaVuSans-59"/>
       <use x="118.603516" xlink:href="#DejaVuSans-31"/>
       <use x="182.226562" xlink:href="#DejaVuSans-34"/>
      </g>
     </g>
    </g>
    <g id="xtick_8">
     <g id="line2d_8">
      <g>
       <use style="stroke:#000000;stroke-width:0.8;" x="435.914727" xlink:href="#me587c471d7" y="430.992"/>
      </g>
     </g>
     <g id="text_8">
      <!-- FY15 -->
      <defs>
       <path d="M 10.796875 72.90625 
L 49.515625 72.90625 
L 49.515625 64.59375 
L 19.828125 64.59375 
L 19.828125 46.734375 
Q 21.96875 47.46875 24.109375 47.828125 
Q 26.265625 48.1875 28.421875 48.1875 
Q 40.625 48.1875 47.75 41.5 
Q 54.890625 34.8125 54.890625 23.390625 
Q 54.890625 11.625 47.5625 5.09375 
Q 40.234375 -1.421875 26.90625 -1.421875 
Q 22.3125 -1.421875 17.546875 -0.640625 
Q 12.796875 0.140625 7.71875 1.703125 
L 7.71875 11.625 
Q 12.109375 9.234375 16.796875 8.0625 
Q 21.484375 6.890625 26.703125 6.890625 
Q 35.15625 6.890625 40.078125 11.328125 
Q 45.015625 15.765625 45.015625 23.390625 
Q 45.015625 31 40.078125 35.4375 
Q 35.15625 39.890625 26.703125 39.890625 
Q 22.75 39.890625 18.8125 39.015625 
Q 14.890625 38.140625 10.796875 36.28125 
z
" id="DejaVuSans-35"/>
      </defs>
      <g transform="translate(423.00793 445.970359)scale(0.105 -0.105)">
       <use xlink:href="#DejaVuSans-46"/>
       <use x="57.519531" xlink:href="#DejaVuSans-59"/>
       <use x="118.603516" xlink:href="#DejaVuSans-31"/>
       <use x="182.226562" xlink:href="#DejaVuSans-35"/>
      </g>
     </g>
    </g>
    <g id="xtick_9">
     <g id="line2d_9">
      <g>
       <use style="stroke:#000000;stroke-width:0.8;" x="481.983818" xlink:href="#me587c471d7" y="430.992"/>
      </g>
     </g>
     <g id="text_9">
      <!-- FY16 -->
      <defs>
       <path d="M 33.015625 40.375 
Q 26.375 40.375 22.484375 35.828125 
Q 18.609375 31.296875 18.609375 23.390625 
Q 18.609375 15.53125 22.484375 10.953125 
Q 26.375 6.390625 33.015625 6.390625 
Q 39.65625 6.390625 43.53125 10.953125 
Q 47.40625 15.53125 47.40625 23.390625 
Q 47.40625 31.296875 43.53125 35.828125 
Q 39.65625 40.375 33.015625 40.375 
z
M 52.59375 71.296875 
L 52.59375 62.3125 
Q 48.875 64.0625 45.09375 64.984375 
Q 41.3125 65.921875 37.59375 65.921875 
Q 27.828125 65.921875 22.671875 59.328125 
Q 17.53125 52.734375 16.796875 39.40625 
Q 19.671875 43.65625 24.015625 45.921875 
Q 28.375 48.1875 33.59375 48.1875 
Q 44.578125 48.1875 50.953125 41.515625 
Q 57.328125 34.859375 57.328125 23.390625 
Q 57.328125 12.15625 50.6875 5.359375 
Q 44.046875 -1.421875 33.015625 -1.421875 
Q 20.359375 -1.421875 13.671875 8.265625 
Q 6.984375 17.96875 6.984375 36.375 
Q 6.984375 53.65625 15.1875 63.9375 
Q 23.390625 74.21875 37.203125 74.21875 
Q 40.921875 74.21875 44.703125 73.484375 
Q 48.484375 72.75 52.59375 71.296875 
z
" id="DejaVuSans-36"/>
      </defs>
      <g transform="translate(469.077021 445.970359)scale(0.105 -0.105)">
       <use xlink:href="#DejaVuSans-46"/>
       <use x="57.519531" xlink:href="#DejaVuSans-59"/>
       <use x="118.603516" xlink:href="#DejaVuSans-31"/>
       <use x="182.226562" xlink:href="#DejaVuSans-36"/>
      </g>
     </g>
    </g>
    <g id="xtick_10">
     <g id="line2d_10">
      <g>
       <use style="stroke:#000000;stroke-width:0.8;" x="528.052909" xlink:href="#me587c471d7" y="430.992"/>
      </g>
     </g>
     <g id="text_10">
      <!-- 9M17 -->
      <defs>
       <path d="M 9.8125 72.90625 
L 24.515625 72.90625 
L 43.109375 23.296875 
L 61.8125 72.90625 
L 76.515625 72.90625 
L 76.515625 0 
L 66.890625 0 
L 66.890625 64.015625 
L 48.09375 14.015625 
L 38.1875 14.015625 
L 19.390625 64.015625 
L 19.390625 0 
L 9.8125 0 
z
" id="DejaVuSans-4d"/>
       <path d="M 8.203125 72.90625 
L 55.078125 72.90625 
L 55.078125 68.703125 
L 28.609375 0 
L 18.3125 0 
L 43.21875 64.59375 
L 8.203125 64.59375 
z
" id="DejaVuSans-37"/>
      </defs>
      <g transform="translate(513.502206 445.970359)scale(0.105 -0.105)">
       <use xlink:href="#DejaVuSans-39"/>
       <use x="63.623047" xlink:href="#DejaVuSans-4d"/>
       <use x="149.902344" xlink:href="#DejaVuSans-31"/>
       <use x="213.525391" xlink:href="#DejaVuSans-37"/>
      </g>
     </g>
    </g>
   </g>
   <g id="matplotlib.axis_2">
    <g id="ytick_1">
     <g id="line2d_11">
      <defs>
       <path d="M 0 0 
L -3.5 0 
" id="m7044434c6e" style="stroke:#000000;stroke-width:0.8;"/>
      </defs>
      <g>
       <use style="stroke:#000000;stroke-width:0.8;" x="92.7" xlink:href="#m7044434c6e" y="391.216865"/>
      </g>
     </g>
     <g id="text_11">
      <!-- -20.0 -->
      <defs>
       <path d="M 4.890625 31.390625 
L 31.203125 31.390625 
L 31.203125 23.390625 
L 4.890625 23.390625 
z
" id="DejaVuSans-2d"/>
       <path d="M 10.6875 12.40625 
L 21 12.40625 
L 21 0 
L 10.6875 0 
z
" id="DejaVuSans-2e"/>
      </defs>
      <g transform="translate(58.532891 395.206045)scale(0.105 -0.105)">
       <use xlink:href="#DejaVuSans-2d"/>
       <use x="36.083984" xlink:href="#DejaVuSans-32"/>
       <use x="99.707031" xlink:href="#DejaVuSans-30"/>
       <use x="163.330078" xlink:href="#DejaVuSans-2e"/>
       <use x="195.117188" xlink:href="#DejaVuSans-30"/>
      </g>
     </g>
    </g>
    <g id="ytick_2">
     <g id="line2d_12">
      <g>
       <use style="stroke:#000000;stroke-width:0.8;" x="92.7" xlink:href="#m7044434c6e" y="341.497946"/>
      </g>
     </g>
     <g id="text_12">
      <!-- -15.0 -->
      <g transform="translate(58.532891 345.487126)scale(0.105 -0.105)">
       <use xlink:href="#DejaVuSans-2d"/>
       <use x="36.083984" xlink:href="#DejaVuSans-31"/>
       <use x="99.707031" xlink:href="#DejaVuSans-35"/>
       <use x="163.330078" xlink:href="#DejaVuSans-2e"/>
       <use x="195.117188" xlink:href="#DejaVuSans-30"/>
      </g>
     </g>
    </g>
    <g id="ytick_3">
     <g id="line2d_13">
      <g>
       <use style="stroke:#000000;stroke-width:0.8;" x="92.7" xlink:href="#m7044434c6e" y="291.779027"/>
      </g>
     </g>
     <g id="text_13">
      <!-- -10.0 -->
      <g transform="translate(58.532891 295.768207)scale(0.105 -0.105)">
       <use xlink:href="#DejaVuSans-2d"/>
       <use x="36.083984" xlink:href="#DejaVuSans-31"/>
       <use x="99.707031" xlink:href="#DejaVuSans-30"/>
       <use x="163.330078" xlink:href="#DejaVuSans-2e"/>
       <use x="195.117188" xlink:href="#DejaVuSans-30"/>
      </g>
     </g>
    </g>
    <g id="ytick_4">
     <g id="line2d_14">
      <g>
       <use style="stroke:#000000;stroke-width:0.8;" x="92.7" xlink:href="#m7044434c6e" y="242.060108"/>
      </g>
     </g>
     <g id="text_14">
      <!-- -5.0 -->
      <g transform="translate(65.213516 246.049288)scale(0.105 -0.105)">
       <use xlink:href="#DejaVuSans-2d"/>
       <use x="36.083984" xlink:href="#DejaVuSans-35"/>
       <use x="99.707031" xlink:href="#DejaVuSans-2e"/>
       <use x="131.494141" xlink:href="#DejaVuSans-30"/>
      </g>
     </g>
    </g>
    <g id="ytick_5">
     <g id="line2d_15">
      <g>
       <use style="stroke:#000000;stroke-width:0.8;" x="92.7" xlink:href="#m7044434c6e" y="192.341189"/>
      </g>
     </g>
     <g id="text_15">
      <!-- 0.0 -->
      <g transform="translate(69.001719 196.330369)scale(0.105 -0.105)">
       <use xlink:href="#DejaVuSans-30"/>
       <use x="63.623047" xlink:href="#DejaVuSans-2e"/>
       <use x="95.410156" xlink:href="#DejaVuSans-30"/>
      </g>
     </g>
    </g>
    <g id="ytick_6">
     <g id="line2d_16">
      <g>
       <use style="stroke:#000000;stroke-width:0.8;" x="92.7" xlink:href="#m7044434c6e" y="142.62227"/>
      </g>
     </g>
     <g id="text_16">
      <!-- 5.0 -->
      <g transform="translate(69.001719 146.61145)scale(0.105 -0.105)">
       <use xlink:href="#DejaVuSans-35"/>
       <use x="63.623047" xlink:href="#DejaVuSans-2e"/>
       <use x="95.410156" xlink:href="#DejaVuSans-30"/>
      </g>
     </g>
    </g>
    <g id="ytick_7">
     <g id="line2d_17">
      <g>
       <use style="stroke:#000000;stroke-width:0.8;" x="92.7" xlink:href="#m7044434c6e" y="92.903351"/>
      </g>
     </g>
     <g id="text_17">
      <!-- 10.0 -->
      <g transform="translate(62.321094 96.892531)scale(0.105 -0.105)">
       <use xlink:href="#DejaVuSans-31"/>
       <use x="63.623047" xlink:href="#DejaVuSans-30"/>
       <use x="127.246094" xlink:href="#DejaVuSans-2e"/>
       <use x="159.033203" xlink:href="#DejaVuSans-30"/>
      </g>
     </g>
    </g>
   </g>
   <g id="line2d_18">
    <path clip-path="url(#p5aeebaf832)" d="M 113.431091 184.386162 
L 120.802145 182.886831 
L 129.094582 181.438669 
L 138.3084 180.061883 
L 149.825673 178.574223 
L 183.9168 174.330683 
L 193.130618 172.87596 
L 200.962364 171.427583 
L 208.333418 169.843226 
L 215.704473 168.019293 
L 222.614836 166.087042 
L 229.5252 163.936376 
L 236.435564 161.564093 
L 243.345927 158.966988 
L 250.256291 156.14186 
L 258.088036 152.688626 
L 270.066 147.410139 
L 275.594291 145.229423 
L 280.2012 143.642584 
L 284.347418 142.44732 
L 288.032945 141.607348 
L 291.718473 141.009243 
L 294.943309 140.708813 
L 298.168145 140.638265 
L 301.392982 140.795269 
L 305.5392 141.22853 
L 316.595782 142.53328 
L 319.820618 142.646985 
L 322.584764 142.546198 
L 325.348909 142.213905 
L 327.652364 141.726996 
L 329.955818 141.020813 
L 332.259273 140.068764 
L 334.562727 138.844253 
L 336.866182 137.320688 
L 339.169636 135.471474 
L 341.473091 133.27002 
L 343.776545 130.68973 
L 346.08 127.720057 
L 348.844145 123.71939 
L 352.068982 118.601512 
L 356.675891 110.812046 
L 363.125564 99.929313 
L 366.3504 94.921165 
L 369.114545 91.053994 
L 371.418 88.22338 
L 373.260764 86.265656 
L 375.103527 84.619264 
L 376.946291 83.319877 
L 378.328364 82.594522 
L 379.710436 82.099475 
L 381.092509 81.849788 
L 382.474582 81.860511 
L 383.856655 82.146694 
L 385.238727 82.723389 
L 386.6208 83.605645 
L 388.002873 84.808513 
L 389.384945 86.347044 
L 390.767018 88.234519 
L 392.149091 90.463642 
L 393.991855 93.93167 
L 395.834618 97.921226 
L 398.138073 103.566493 
L 400.441527 109.853395 
L 403.205673 118.109114 
L 406.430509 128.511493 
L 410.576727 142.698996 
L 421.172618 179.427634 
L 424.397455 189.689437 
L 427.1616 197.784497 
L 429.465055 203.909196 
L 431.768509 209.366513 
L 433.611273 213.187171 
L 435.454036 216.469824 
L 436.836109 218.550628 
L 438.218182 220.301091 
L 439.600255 221.731138 
L 440.982327 222.85089 
L 442.3644 223.670463 
L 443.746473 224.199977 
L 445.128545 224.44955 
L 446.510618 224.4293 
L 447.892691 224.149346 
L 449.274764 223.619805 
L 450.656836 222.850797 
L 452.038909 221.852439 
L 453.881673 220.182018 
L 455.724436 218.145838 
L 457.5672 215.767882 
L 459.870655 212.351353 
L 462.174109 208.48512 
L 464.477564 204.216026 
L 467.241709 198.627294 
L 470.466545 191.567149 
L 474.152073 182.943776 
L 479.219673 170.46005 
L 490.736945 141.863093 
L 494.422473 133.371633 
L 497.647309 126.466262 
L 500.411455 121.039424 
L 502.714909 116.925853 
L 505.018364 113.23388 
L 507.321818 110.01035 
L 509.164582 107.800283 
L 511.007345 105.943985 
L 512.850109 104.465438 
L 514.232182 103.618855 
L 515.614255 103.008368 
L 516.996327 102.644094 
L 518.3784 102.536152 
L 519.760473 102.694659 
L 521.142545 103.129735 
L 522.524618 103.851498 
L 523.906691 104.870066 
L 525.288764 106.195557 
L 526.670836 107.83809 
L 527.592218 109.114244 
L 527.592218 109.114244 
" style="fill:none;stroke:#ff7802;stroke-linecap:square;stroke-width:2;"/>
   </g>
   <g id="line2d_19">
    <path clip-path="url(#p5aeebaf832)" d="M 113.431091 153.560432 
L 115.734545 181.733451 
L 118.038 207.250365 
L 120.341455 230.204388 
L 122.644909 250.688738 
L 124.487673 265.360695 
L 126.330436 278.559446 
L 128.1732 290.332718 
L 130.015964 300.728237 
L 131.858727 309.793731 
L 133.701491 317.576926 
L 135.083564 322.601524 
L 136.465636 326.95181 
L 137.847709 330.647919 
L 139.229782 333.709985 
L 140.611855 336.158143 
L 141.993927 338.012528 
L 142.915309 338.928853 
L 143.836691 339.596194 
L 144.758073 340.020517 
L 145.679455 340.207786 
L 146.600836 340.163968 
L 147.522218 339.895029 
L 148.4436 339.406934 
L 149.364982 338.70565 
L 150.286364 337.797142 
L 151.668436 336.058886 
L 153.050509 333.887935 
L 154.432582 331.304422 
L 156.275345 327.252778 
L 158.118109 322.551215 
L 159.960873 317.247459 
L 162.264327 309.843638 
L 164.567782 301.66668 
L 167.331927 290.965038 
L 170.556764 277.457227 
L 174.242291 260.984503 
L 179.309891 237.206871 
L 188.9844 191.528381 
L 192.669927 175.182113 
L 195.894764 161.826446 
L 198.658909 151.286036 
L 200.962364 143.265173 
L 203.265818 136.037206 
L 205.108582 130.888359 
L 206.951345 126.348633 
L 208.794109 122.410278 
L 210.636873 119.039919 
L 212.479636 116.203972 
L 214.3224 113.868852 
L 215.704473 112.425976 
L 217.086545 111.231756 
L 218.468618 110.272022 
L 219.850691 109.532606 
L 221.232764 108.999339 
L 222.614836 108.658053 
L 223.996909 108.494579 
L 225.839673 108.52872 
L 227.682436 108.820199 
L 229.5252 109.33543 
L 231.828655 110.242954 
L 234.5928 111.631845 
L 238.278327 113.806438 
L 245.649382 118.254611 
L 248.413527 119.610358 
L 250.716982 120.480137 
L 252.559745 120.959582 
L 254.402509 121.235394 
L 256.245273 121.322884 
L 258.548727 121.192336 
L 260.852182 120.825032 
L 263.155636 120.252912 
L 265.919782 119.340986 
L 269.144618 118.036077 
L 273.751527 115.888232 
L 282.504655 111.732623 
L 285.729491 110.455974 
L 288.493636 109.577017 
L 290.797091 109.038539 
L 293.100545 108.710484 
L 295.404 108.624792 
L 297.246764 108.752205 
L 299.089527 109.069455 
L 301.392982 109.726166 
L 303.696436 110.648122 
L 305.999891 111.809694 
L 308.764036 113.483795 
L 311.528182 115.421759 
L 314.753018 117.957135 
L 318.899236 121.542902 
L 324.888218 127.086415 
L 332.719964 134.30523 
L 336.866182 137.801186 
L 340.091018 140.238053 
L 342.855164 142.071624 
L 345.619309 143.626533 
L 348.383455 144.904281 
L 351.1476 145.93356 
L 353.911745 146.74352 
L 357.136582 147.450165 
L 360.822109 148.000182 
L 364.968327 148.373127 
L 370.957309 148.645282 
L 379.710436 149.03706 
L 383.856655 149.452533 
L 387.542182 150.056026 
L 390.767018 150.821192 
L 393.991855 151.823367 
L 397.677382 153.202744 
L 402.284291 155.170134 
L 417.0264 161.670347 
L 420.711927 162.960516 
L 423.936764 163.861216 
L 426.700909 164.424455 
L 429.465055 164.76217 
L 431.768509 164.848906 
L 434.071964 164.739471 
L 436.375418 164.415921 
L 438.678873 163.868735 
L 440.982327 163.107171 
L 443.746473 161.926929 
L 446.510618 160.475363 
L 449.274764 158.772866 
L 452.4996 156.496669 
L 455.724436 153.939057 
L 459.409964 150.713016 
L 463.556182 146.755097 
L 468.163091 142.030024 
L 473.691382 136.033803 
L 484.287273 124.116519 
L 491.658327 115.997847 
L 496.725927 110.731577 
L 500.872145 106.715863 
L 504.557673 103.427667 
L 507.782509 100.807344 
L 511.007345 98.460668 
L 513.771491 96.691575 
L 516.535636 95.167707 
L 519.299782 93.909454 
L 521.603236 93.07852 
L 523.906691 92.458 
L 526.210145 92.059694 
L 527.592218 91.932282 
L 527.592218 91.932282 
" style="fill:none;stroke:#2a90ac;stroke-dasharray:7.4,3.2;stroke-dashoffset:0;stroke-width:2;"/>
   </g>
   <g id="line2d_20">
    <path clip-path="url(#p5aeebaf832)" d="M 113.431091 368.346162 
L 115.273855 375.698018 
L 117.116618 382.263161 
L 118.959382 388.064292 
L 120.802145 393.124117 
L 122.644909 397.465338 
L 124.487673 401.110658 
L 125.869745 403.401621 
L 127.251818 405.323489 
L 128.633891 406.885839 
L 130.015964 408.098251 
L 131.398036 408.9703 
L 132.780109 409.511567 
L 134.162182 409.731628 
L 135.544255 409.640061 
L 136.926327 409.246445 
L 138.3084 408.560358 
L 139.690473 407.591377 
L 141.072545 406.349081 
L 142.454618 404.843047 
L 144.297382 402.441298 
L 146.140145 399.610414 
L 147.982909 396.373097 
L 150.286364 391.789493 
L 152.589818 386.650655 
L 154.893273 381.000925 
L 157.657418 373.609307 
L 160.882255 364.238859 
L 164.107091 354.179944 
L 168.253309 340.431246 
L 173.320909 322.732103 
L 183.456109 286.182516 
L 189.445091 265.10094 
L 193.591309 251.245591 
L 197.276836 239.678947 
L 200.501673 230.285569 
L 203.265818 222.871327 
L 206.029964 216.126076 
L 208.333418 211.05082 
L 210.636873 206.45118 
L 212.940327 202.299348 
L 215.243782 198.567514 
L 217.547236 195.227869 
L 219.850691 192.252606 
L 222.154145 189.613914 
L 224.4576 187.283984 
L 226.761055 185.235009 
L 229.064509 183.439179 
L 231.828655 181.579179 
L 234.5928 179.99561 
L 237.817636 178.433381 
L 241.503164 176.930716 
L 246.570764 175.155506 
L 254.8632 172.27856 
L 262.694945 169.225653 
L 271.448073 165.857296 
L 276.515673 164.139501 
L 280.661891 162.956343 
L 284.347418 162.124472 
L 287.572255 161.600621 
L 290.797091 161.296564 
L 294.021927 161.240327 
L 296.786073 161.410611 
L 299.550218 161.798713 
L 302.775055 162.507032 
L 305.999891 163.441249 
L 310.146109 164.890361 
L 316.135091 167.265794 
L 324.427527 170.539794 
L 328.573745 171.923849 
L 331.798582 172.787224 
L 335.023418 173.406991 
L 337.787564 173.704784 
L 340.551709 173.752421 
L 342.855164 173.577326 
L 345.158618 173.188693 
L 347.922764 172.460828 
L 351.1476 171.33036 
L 355.293818 169.586999 
L 364.968327 165.392918 
L 368.193164 164.310932 
L 370.957309 163.639223 
L 373.260764 163.308277 
L 375.564218 163.224538 
L 377.406982 163.360231 
L 379.249745 163.696468 
L 381.092509 164.252064 
L 382.935273 165.045833 
L 384.778036 166.09659 
L 386.6208 167.423149 
L 388.463564 169.044324 
L 390.306327 170.978796 
L 392.149091 173.229139 
L 394.452545 176.442105 
L 396.756 180.04067 
L 399.520145 184.779105 
L 402.744982 190.748796 
L 407.812582 200.690649 
L 414.722945 214.26989 
L 418.408473 220.996341 
L 421.172618 225.600778 
L 423.476073 229.061544 
L 425.779527 232.112951 
L 427.622291 234.216941 
L 429.465055 235.986261 
L 431.307818 237.388607 
L 432.689891 238.180108 
L 434.071964 238.733387 
L 435.454036 239.034818 
L 436.836109 239.071947 
L 438.218182 238.845982 
L 439.600255 238.366945 
L 440.982327 237.645002 
L 442.3644 236.690322 
L 443.746473 235.513073 
L 445.589236 233.614764 
L 447.432 231.362953 
L 449.274764 228.781744 
L 451.578218 225.128733 
L 453.881673 221.045768 
L 456.645818 215.644952 
L 459.870655 208.755678 
L 463.556182 200.264582 
L 468.163091 189.006692 
L 482.9052 152.390559 
L 486.590727 144.100075 
L 489.815564 137.438997 
L 492.579709 132.272897 
L 494.883164 128.413113 
L 497.186618 125.008359 
L 499.029382 122.64381 
L 500.872145 120.62471 
L 502.714909 118.975159 
L 504.096982 117.995011 
L 505.479055 117.246461 
L 506.861127 116.739674 
L 508.2432 116.48482 
L 509.625273 116.492067 
L 511.007345 116.771582 
L 512.389418 117.333533 
L 513.771491 118.188088 
L 515.153564 119.345415 
L 516.535636 120.815682 
L 517.917709 122.609056 
L 519.299782 124.735707 
L 520.681855 127.2058 
L 522.524618 131.051078 
L 524.367382 135.5491 
L 526.210145 140.723968 
L 527.592218 145.063798 
L 527.592218 145.063798 
" style="fill:none;stroke:#2a90ac;stroke-linecap:square;stroke-width:2;"/>
   </g>
   <g id="line2d_21">
    <path clip-path="url(#p5aeebaf832)" d="M 113.431091 242.060108 
L 115.734545 265.586287 
L 118.038 287.072967 
L 120.341455 306.588633 
L 122.644909 324.201766 
L 124.948364 339.98085 
L 127.251818 353.994366 
L 129.094582 363.979992 
L 130.937345 372.914547 
L 132.780109 380.833094 
L 134.622873 387.770697 
L 136.465636 393.762419 
L 138.3084 398.843323 
L 139.690473 402.077369 
L 141.072545 404.833595 
L 142.454618 407.126793 
L 143.836691 408.971757 
L 145.218764 410.383277 
L 146.600836 411.376146 
L 147.522218 411.81278 
L 148.4436 412.074304 
L 149.364982 412.165102 
L 150.286364 412.089555 
L 151.207745 411.852047 
L 152.589818 411.201696 
L 153.971891 410.211586 
L 155.353964 408.89651 
L 156.736036 407.27126 
L 158.118109 405.350627 
L 159.960873 402.355868 
L 161.803636 398.897346 
L 163.6464 395.010125 
L 165.949855 389.601655 
L 168.253309 383.646612 
L 171.017455 375.875505 
L 174.242291 366.096963 
L 178.388509 352.686744 
L 184.377491 332.409775 
L 191.748545 307.592559 
L 195.434073 295.890158 
L 198.658909 286.33398 
L 201.423055 278.800221 
L 203.726509 273.075932 
L 206.029964 267.928033 
L 208.333418 263.392396 
L 210.636873 259.432484 
L 212.940327 256.001957 
L 215.243782 253.05448 
L 217.547236 250.543713 
L 219.850691 248.42332 
L 222.154145 246.646964 
L 224.4576 245.168306 
L 226.761055 243.941009 
L 229.5252 242.734807 
L 232.750036 241.593891 
L 237.817636 240.086894 
L 242.424545 238.656808 
L 245.649382 237.415834 
L 248.413527 236.08405 
L 250.716982 234.724025 
L 253.020436 233.089981 
L 255.323891 231.18137 
L 258.088036 228.574428 
L 261.312873 225.169272 
L 264.9984 220.910051 
L 270.066 214.654914 
L 279.740509 202.626207 
L 283.426036 198.426298 
L 286.650873 195.092503 
L 289.415018 192.561185 
L 291.718473 190.725788 
L 294.021927 189.175076 
L 295.864691 188.161884 
L 297.707455 187.369297 
L 299.550218 186.808825 
L 301.392982 186.469729 
L 303.235745 186.335712 
L 305.078509 186.390476 
L 307.381964 186.699576 
L 309.685418 187.246347 
L 312.449564 188.17138 
L 315.213709 189.337817 
L 318.438545 190.930383 
L 323.045455 193.472414 
L 331.337891 198.090767 
L 334.562727 199.641655 
L 337.326873 200.759099 
L 340.091018 201.622891 
L 342.394473 202.109272 
L 344.697927 202.350253 
L 347.001382 202.344995 
L 349.304836 202.131915 
L 352.068982 201.659675 
L 355.754509 200.778996 
L 365.889709 198.177974 
L 368.653855 197.75394 
L 370.957309 197.593305 
L 373.260764 197.651652 
L 375.564218 197.970018 
L 377.406982 198.439505 
L 379.249745 199.12268 
L 381.092509 200.040558 
L 382.935273 201.214149 
L 384.778036 202.664465 
L 386.6208 204.412519 
L 388.463564 206.479322 
L 390.306327 208.88574 
L 392.149091 211.635019 
L 394.452545 215.506109 
L 396.756 219.796327 
L 399.520145 225.401833 
L 403.205673 233.458304 
L 408.733964 246.22384 
L 415.183636 261.024401 
L 418.869164 268.893076 
L 421.633309 274.299739 
L 423.936764 278.386281 
L 426.240218 282.019173 
L 428.082982 284.553039 
L 429.925745 286.718018 
L 431.768509 288.4792 
L 433.150582 289.514094 
L 434.532655 290.287486 
L 435.914727 290.784649 
L 437.2968 290.994964 
L 438.678873 290.924259 
L 440.060945 290.58247 
L 441.443018 289.979534 
L 442.825091 289.125388 
L 444.207164 288.029968 
L 445.589236 286.703212 
L 447.432 284.591523 
L 449.274764 282.109789 
L 451.117527 279.281564 
L 453.420982 275.294913 
L 455.724436 270.849679 
L 458.488582 264.97484 
L 461.252727 258.585381 
L 464.477564 250.586644 
L 468.623782 239.635459 
L 474.152073 224.29927 
L 484.747964 194.730863 
L 488.894182 183.875636 
L 492.119018 175.978674 
L 494.883164 169.69535 
L 497.647309 163.944094 
L 499.950764 159.615172 
L 502.254218 155.75695 
L 504.096982 153.040192 
L 505.939745 150.677678 
L 507.782509 148.692964 
L 509.164582 147.466528 
L 510.546655 146.47579 
L 511.928727 145.730687 
L 513.3108 145.241156 
L 514.692873 145.017134 
L 516.074945 145.068557 
L 517.457018 145.405363 
L 518.839091 146.037488 
L 520.221164 146.97487 
L 521.603236 148.227445 
L 522.985309 149.80515 
L 524.367382 151.717923 
L 525.749455 153.975699 
L 527.131527 156.588416 
L 527.592218 157.539915 
L 527.592218 157.539915 
" style="fill:none;stroke:#2a90ac;stroke-dasharray:7.4,3.2;stroke-dashoffset:0;stroke-width:2;"/>
   </g>
   <g id="line2d_22"/>
   <g id="line2d_23">
    <defs>
     <path d="M 0 2.5 
C 0.663008 2.5 1.29895 2.236584 1.767767 1.767767 
C 2.236584 1.29895 2.5 0.663008 2.5 0 
C 2.5 -0.663008 2.236584 -1.29895 1.767767 -1.767767 
C 1.29895 -2.236584 0.663008 -2.5 0 -2.5 
C -0.663008 -2.5 -1.29895 -2.236584 -1.767767 -1.767767 
C -2.236584 -1.29895 -2.5 -0.663008 -2.5 0 
C -2.5 0.663008 -2.236584 1.29895 -1.767767 1.767767 
C -1.29895 2.236584 -0.663008 2.5 0 2.5 
z
" id="m47ad5150e8" style="stroke:#ff6100;"/>
    </defs>
    <g clip-path="url(#p5aeebaf832)">
     <use style="fill:#ff6100;stroke:#ff6100;" x="113.431091" xlink:href="#m47ad5150e8" y="184.386162"/>
     <use style="fill:#ff6100;stroke:#ff6100;" x="205.569273" xlink:href="#m47ad5150e8" y="170.464865"/>
     <use style="fill:#ff6100;stroke:#ff6100;" x="297.707455" xlink:href="#m47ad5150e8" y="140.633514"/>
     <use style="fill:#ff6100;stroke:#ff6100;" x="343.776545" xlink:href="#m47ad5150e8" y="130.68973"/>
     <use style="fill:#ff6100;stroke:#ff6100;" x="389.845636" xlink:href="#m47ad5150e8" y="86.937081"/>
     <use style="fill:#ff6100;stroke:#ff6100;" x="435.914727" xlink:href="#m47ad5150e8" y="217.200649"/>
     <use style="fill:#ff6100;stroke:#ff6100;" x="528.052909" xlink:href="#m47ad5150e8" y="109.807784"/>
    </g>
   </g>
   <g id="patch_3">
    <path d="M 92.7 430.992 
L 92.7 63.072 
" style="fill:none;stroke:#000000;stroke-linecap:square;stroke-linejoin:miter;stroke-width:0.8;"/>
   </g>
   <g id="patch_4">
    <path d="M 92.7 430.992 
L 548.784 430.992 
" style="fill:none;stroke:#000000;stroke-linecap:square;stroke-linejoin:miter;stroke-width:0.8;"/>
   </g>
   <g id="text_18">
    <!-- 0.8 -->
    <g transform="translate(96.73281 182.20249)scale(0.105 -0.105)">
     <use xlink:href="#DejaVuSans-30"/>
     <use x="63.623047" xlink:href="#DejaVuSans-2e"/>
     <use x="95.410156" xlink:href="#DejaVuSans-38"/>
    </g>
   </g>
   <g id="text_19">
    <!-- 2.2 -->
    <g transform="translate(188.870991 168.281193)scale(0.105 -0.105)">
     <use xlink:href="#DejaVuSans-32"/>
     <use x="63.623047" xlink:href="#DejaVuSans-2e"/>
     <use x="95.410156" xlink:href="#DejaVuSans-32"/>
    </g>
   </g>
   <g id="text_20">
    <!-- 5.2 -->
    <g transform="translate(281.009173 138.449842)scale(0.105 -0.105)">
     <use xlink:href="#DejaVuSans-35"/>
     <use x="63.623047" xlink:href="#DejaVuSans-2e"/>
     <use x="95.410156" xlink:href="#DejaVuSans-32"/>
    </g>
   </g>
   <g id="text_21">
    <!-- 6.2 -->
    <g transform="translate(327.078264 128.506058)scale(0.105 -0.105)">
     <use xlink:href="#DejaVuSans-36"/>
     <use x="63.623047" xlink:href="#DejaVuSans-2e"/>
     <use x="95.410156" xlink:href="#DejaVuSans-32"/>
    </g>
   </g>
   <g id="text_22">
    <!-- 10.6 -->
    <g transform="translate(366.46673 84.753409)scale(0.105 -0.105)">
     <use xlink:href="#DejaVuSans-31"/>
     <use x="63.623047" xlink:href="#DejaVuSans-30"/>
     <use x="127.246094" xlink:href="#DejaVuSans-2e"/>
     <use x="159.033203" xlink:href="#DejaVuSans-36"/>
    </g>
   </g>
   <g id="text_23">
    <!-- -2.5 -->
    <g transform="translate(415.428243 215.016977)scale(0.105 -0.105)">
     <use xlink:href="#DejaVuSans-2d"/>
     <use x="36.083984" xlink:href="#DejaVuSans-32"/>
     <use x="99.707031" xlink:href="#DejaVuSans-2e"/>
     <use x="131.494141" xlink:href="#DejaVuSans-35"/>
    </g>
   </g>
   <g id="text_24">
    <!-- 8.3 -->
    <g transform="translate(511.354628 107.624112)scale(0.105 -0.105)">
     <use xlink:href="#DejaVuSans-38"/>
     <use x="63.623047" xlink:href="#DejaVuSans-2e"/>
     <use x="95.410156" xlink:href="#DejaVuSans-33"/>
    </g>
   </g>
   <g id="text_25">
    <!-- Sales Growth -->
    <defs>
     <path d="M 43.703125 16.90625 
C 43.703125 26.40625 37.5 32.203125 31.203125 36.09375 
L 23.203125 41.09375 
C 19.5 43.40625 14.703125 47.59375 14.703125 53.40625 
C 14.703125 58 16.796875 64.5 26.59375 64.5 
C 36.203125 64.5 38.90625 58 40.203125 53.203125 
C 40.703125 52.59375 42.296875 52.90625 42.703125 53.5 
C 42.703125 57.703125 41.796875 63.296875 40.90625 65.703125 
C 40.09375 65.703125 38.703125 65.90625 37.40625 66.296875 
C 34.796875 67 31.203125 67.59375 28.09375 67.59375 
C 15.09375 67.59375 7.703125 59.90625 7.703125 50.40625 
C 7.703125 42.203125 13.5 36.5 18.5 33.203125 
L 28 27 
C 35.296875 22.296875 36.203125 17.40625 36.203125 13 
C 36.203125 7 32.09375 1.5 23.703125 1.5 
C 12.09375 1.5 8 11.296875 6.5 16.40625 
C 6.09375 17 4.59375 16.796875 4.09375 16.09375 
C 4.296875 11.40625 5.59375 4.296875 6.796875 2.09375 
C 8.703125 1 14 -1.59375 22.40625 -1.59375 
C 35.40625 -1.59375 43.703125 5.90625 43.703125 16.90625 
z
" id="AGaramondPro-Regular-53"/>
     <path d="M 11.796875 16.40625 
C 5.40625 14.09375 3.5 11.796875 3.5 7.90625 
C 3.5 5.09375 4.703125 2.59375 6.59375 0.90625 
C 8.296875 -0.59375 10.703125 -1.40625 13.59375 -1.40625 
C 16.40625 -1.40625 18.59375 -0.09375 20.796875 1.09375 
C 22.796875 2.203125 24 3.09375 24.703125 3.09375 
C 25.296875 3.09375 25.90625 2.296875 26.296875 1.703125 
C 28 -0.5 30.40625 -1.40625 32.796875 -1.40625 
C 37.703125 -1.40625 41.203125 2.5 41.203125 3 
C 41.203125 3.703125 40.90625 4.296875 40.5 4.296875 
C 40.203125 4.296875 39.703125 3.90625 39.203125 3.59375 
C 38.59375 3.296875 37.703125 3 36.703125 3 
C 32.796875 3 31.90625 7.09375 32.09375 11.703125 
L 32.703125 29.09375 
C 33 36.59375 29.5 40.796875 22.296875 40.796875 
C 15 40.796875 3.703125 33.703125 3.703125 28.5 
C 3.703125 27.59375 4.203125 27.09375 5.09375 27.09375 
C 6.59375 27.09375 9.296875 27.796875 10.796875 29 
C 11.59375 29.59375 11.703125 30.796875 11.796875 32.40625 
C 12 35.5 15.40625 36.90625 18.203125 36.90625 
C 24.40625 36.90625 25.59375 31.90625 25.5 28.203125 
L 25.40625 23.59375 
C 25.40625 22.09375 25.203125 21.203125 23.703125 20.703125 
z
M 11.203125 9.09375 
C 11.203125 13 14.09375 14.5 20 16.5 
C 21.796875 17.09375 23.5 17.5 24.09375 17.5 
C 24.703125 17.5 25.09375 17.296875 25.09375 16.203125 
L 24.90625 10.296875 
C 24.796875 8.203125 24.796875 6.796875 23.59375 5.59375 
C 22.59375 4.59375 19.5 3.09375 17.5 3.09375 
C 12.40625 3.09375 11.203125 7.40625 11.203125 9.09375 
z
" id="AGaramondPro-Regular-61"/>
     <path d="M 16.203125 58.5 
C 16.203125 62.90625 16.40625 67.90625 16.5 70.90625 
C 16.296875 71.296875 15.90625 71.5 15.5 71.5 
C 11.90625 69.59375 7.203125 68.09375 4.703125 67.296875 
C 4.203125 67 4.203125 65.59375 4.703125 65.296875 
L 5.703125 64.703125 
C 8.703125 62.90625 8.796875 62.296875 8.796875 56.40625 
L 8.796875 11.203125 
C 8.796875 4 8.703125 3 5 2.5 
L 2.703125 2.203125 
C 2 1.703125 2.203125 0 2.90625 -0.296875 
C 5.90625 -0.09375 8.90625 0 12.5 0 
C 16 0 18.90625 -0.09375 22.203125 -0.296875 
C 22.90625 0 23.09375 1.703125 22.40625 2.203125 
L 20 2.5 
C 16.40625 3 16.203125 4 16.203125 11.203125 
z
" id="AGaramondPro-Regular-6c"/>
     <path d="M 31.5 25.59375 
C 35.703125 25.59375 37.09375 25.703125 37.40625 26.296875 
C 37.59375 26.703125 37.796875 27.5 37.796875 28.90625 
C 37.796875 34.90625 32.203125 40.796875 23.59375 40.796875 
C 11.59375 40.796875 3.5 30.5 3.5 18.203125 
C 3.5 13.796875 4.703125 9.09375 7.703125 5.203125 
C 10.59375 1.40625 15.703125 -1.40625 22.203125 -1.40625 
C 27.40625 -1.40625 34.59375 1.09375 37.90625 7.90625 
C 37.796875 8.796875 37.09375 9.40625 36.09375 9.09375 
C 33 5.203125 30.203125 4.203125 26.90625 4.203125 
C 16.203125 4.203125 10.296875 12.796875 10.296875 22.90625 
C 10.296875 25.40625 10.40625 25.59375 13 25.59375 
z
M 12.09375 28.59375 
C 11.40625 28.59375 11.40625 28.90625 11.40625 29.09375 
C 11.5 32.40625 16.59375 37.796875 22.5 37.796875 
C 28.296875 37.796875 30.203125 34.296875 30.203125 31.5 
C 30.203125 30.203125 29.90625 29.796875 29.59375 29.59375 
C 28.796875 29 26.59375 28.59375 19.203125 28.59375 
z
" id="AGaramondPro-Regular-65"/>
     <path d="M 18.59375 40.796875 
C 11 40.796875 5 36.703125 5 29.40625 
C 5 23.90625 9.09375 20.40625 14.90625 17.09375 
C 18.59375 15 22.59375 12.5 22.59375 7.90625 
C 22.59375 3.59375 19.5 1.5 15.90625 1.5 
C 10.203125 1.5 7 6.296875 5.296875 11.796875 
C 4.796875 12.40625 3.5 12.296875 3 11.703125 
C 2.796875 8.40625 3.40625 3.5 4.203125 1.59375 
C 6.703125 -0.40625 10.203125 -1.40625 14.90625 -1.40625 
C 22.296875 -1.40625 29.296875 2.40625 29.296875 10 
C 29.296875 17.09375 24.40625 20.5 19.09375 23.5 
C 15.59375 25.5 11.40625 27.703125 11.40625 31.796875 
C 11.40625 35.40625 13.90625 37.90625 17.796875 37.90625 
C 21.90625 37.90625 24.90625 35 26.59375 30.59375 
C 27.09375 30 28.59375 30.203125 29 30.90625 
C 29 33.59375 28.296875 36.796875 27.40625 39 
C 26.5 39.796875 22.796875 40.796875 18.59375 40.796875 
z
" id="AGaramondPro-Regular-73"/>
     <path id="AGaramondPro-Regular-20"/>
     <path d="M 64.796875 15.796875 
C 64.796875 20.90625 64.90625 23.703125 69.09375 24.203125 
L 70.703125 24.40625 
C 71.40625 25 71.296875 26.5 70.59375 26.90625 
C 67.296875 26.703125 63.90625 26.59375 60 26.59375 
C 54.09375 26.59375 48.59375 26.703125 45.703125 26.90625 
C 45 26.59375 44.90625 24.796875 45.703125 24.40625 
L 50.09375 23.90625 
C 56.296875 23.203125 56.59375 22.59375 56.59375 14.203125 
L 56.59375 10.203125 
C 56.59375 7 56.09375 5.203125 55.59375 4.5 
C 54.5 2.796875 50.796875 1.5 44.59375 1.5 
C 24.5 1.5 14.59375 16.59375 14.59375 35.796875 
C 14.59375 50.796875 23.09375 64.59375 42.5 64.59375 
C 52.703125 64.59375 60.203125 61.203125 63 50.40625 
C 63.59375 49.796875 65.40625 49.90625 65.703125 50.703125 
C 64.796875 56.703125 64.203125 61.90625 64.203125 65.203125 
C 63 65 59.90625 65.703125 58 66.09375 
C 56.296875 66.5 51 67.59375 45.296875 67.59375 
C 30.203125 67.59375 20.296875 62.90625 13.59375 55.90625 
C 7.40625 49.296875 4.59375 40.703125 4.59375 32.203125 
C 4.59375 23.40625 7.796875 15.5 13.796875 9.5 
C 21.5 1.703125 32.40625 -1.59375 44.296875 -1.59375 
C 49.703125 -1.59375 56.90625 -0.40625 62.203125 1 
C 64.09375 1.5 65.90625 1.90625 67.09375 1.90625 
C 67.5 2.203125 67.5 2.796875 67.203125 3.09375 
C 65.40625 3.796875 64.796875 6.203125 64.796875 10.203125 
z
" id="AGaramondPro-Regular-47"/>
     <path d="M 9.796875 11.203125 
C 9.796875 4 9.703125 3.09375 6 2.5 
L 4.09375 2.203125 
C 3.40625 1.703125 3.59375 0 4.296875 -0.296875 
C 6.90625 -0.09375 9.90625 0 13.5 0 
C 17 0 19.90625 -0.09375 24.59375 -0.296875 
C 25.296875 0 25.5 1.703125 24.796875 2.203125 
L 21.203125 2.5 
C 17.40625 2.796875 17.203125 4 17.203125 11.203125 
L 17.203125 24.796875 
C 17.203125 28.203125 17.5 31.09375 18.5 32.5 
C 19.296875 33.59375 20.5 34.5 22.09375 34.5 
C 23.5 34.5 25 33.90625 26.5 32.90625 
C 27.203125 32.5 27.703125 32.203125 28.703125 32.203125 
C 30.296875 32.203125 33 33.5 33 36.796875 
C 33 39.203125 31 40.796875 28.5 40.796875 
C 24.796875 40.796875 21 37.703125 17.5 34.796875 
C 17.296875 34.90625 17.203125 35.203125 17.203125 35.703125 
L 17.203125 41.5 
C 17.203125 41.90625 16.90625 42.09375 16.40625 42.203125 
C 13.90625 40.703125 8.59375 38.09375 6.296875 37.296875 
C 5.796875 37 5.796875 35.90625 6.203125 35.5 
L 7.09375 34.90625 
C 9.796875 33.09375 9.796875 32.59375 9.796875 28.703125 
z
" id="AGaramondPro-Regular-72"/>
     <path d="M 24.796875 40.796875 
C 13 40.796875 3.5 31.796875 3.5 19.203125 
C 3.5 6.703125 12.5 -1.40625 24 -1.40625 
C 36.5 -1.40625 45.09375 7.59375 45.09375 20.09375 
C 45.09375 32.40625 36 40.796875 24.796875 40.796875 
z
M 36.5 18.5 
C 36.5 10.796875 33.796875 1.59375 25 1.59375 
C 16.203125 1.59375 12.09375 11.40625 12.09375 20.5 
C 12.09375 31.5 17 37.796875 23.59375 37.796875 
C 33.09375 37.796875 36.5 27 36.5 18.5 
z
" id="AGaramondPro-Regular-6f"/>
     <path d="M 16.703125 7.09375 
C 17.5 5 19.09375 0.90625 19.703125 -1.203125 
C 20 -1.5 20.5 -1.59375 20.90625 -1.59375 
C 21.40625 -1.59375 21.796875 -1.5 22.09375 -1.203125 
C 22.90625 1.09375 24.296875 4.703125 26.09375 9 
L 31.296875 21.5 
C 32 23.296875 33.40625 26.40625 33.5 26.40625 
C 33.59375 26.40625 35.09375 23.09375 35.796875 21.296875 
L 40.59375 9.796875 
C 42.296875 5.796875 44.09375 0.59375 44.703125 -1.203125 
C 45 -1.5 45.40625 -1.59375 45.796875 -1.59375 
C 46.296875 -1.59375 46.703125 -1.5 47.09375 -1.203125 
C 47.90625 1.40625 49.09375 4.296875 50.5 7.90625 
C 52.40625 13 57.203125 25 59.90625 30.59375 
C 62 35 62.90625 36.40625 65.296875 36.90625 
L 67.296875 37.296875 
C 67.90625 37.796875 67.796875 39.296875 67 39.703125 
C 64.796875 39.5 62.40625 39.40625 60.5 39.40625 
C 58 39.40625 55.5 39.5 52.59375 39.703125 
C 51.90625 39.40625 51.703125 37.796875 52.5 37.296875 
L 55 36.90625 
C 56.203125 36.703125 56.796875 36.203125 56.796875 35.59375 
C 56.796875 34.90625 56.59375 33.59375 55.796875 31.296875 
C 54.296875 27.09375 50.296875 16.5 49 13.59375 
C 48.296875 12 47.796875 11 47.59375 10.796875 
C 47.296875 11 46.90625 12.09375 46.296875 13.59375 
C 45.203125 16.296875 39.796875 29 38.703125 32.296875 
C 37.5 35.796875 37.296875 36.09375 41.296875 36.90625 
L 43.40625 37.296875 
C 44 37.796875 44 39.40625 43.09375 39.703125 
C 39.703125 39.5 36.703125 39.40625 33.59375 39.40625 
C 31 39.40625 27.796875 39.5 25.296875 39.703125 
C 24.5 39.40625 24.296875 37.90625 25 37.296875 
L 26.59375 36.90625 
C 28.796875 36.40625 30.296875 35.59375 31.203125 33.40625 
C 31.703125 32.09375 31.59375 30.796875 30.296875 27.59375 
L 25.40625 15.5 
C 24.203125 12.59375 23.40625 10.90625 23.09375 10.703125 
C 23.09375 10.90625 22.203125 12.703125 21.296875 15 
L 15.09375 30.296875 
C 14 33 13.5 34.90625 13.5 35.5 
C 13.5 36.09375 14.296875 36.703125 15.703125 36.90625 
L 18 37.296875 
C 18.703125 37.796875 18.59375 39.296875 17.796875 39.703125 
C 15.09375 39.5 12.203125 39.40625 9.09375 39.40625 
C 6.09375 39.40625 3.296875 39.5 0.203125 39.703125 
C -0.703125 39.296875 -0.59375 37.796875 -0.09375 37.296875 
L 1.5 36.90625 
C 4 36.296875 5.203125 35.296875 7.5 29.703125 
z
" id="AGaramondPro-Regular-77"/>
     <path d="M 29.296875 35.203125 
C 30.203125 35.796875 30.40625 38.5 29.203125 39.40625 
L 18.09375 39.40625 
C 16.40625 39.40625 16.296875 39.5 16.296875 41.296875 
L 16.296875 45.796875 
C 15.90625 46.5 14.703125 46.5 14.203125 46.296875 
C 13.203125 44.296875 11.296875 41.59375 10 40.40625 
C 9 39.5 6.5 38.203125 3.59375 37.296875 
C 3.203125 36.703125 3.296875 35.59375 3.90625 35.203125 
L 6.703125 35.203125 
C 8.703125 35.203125 8.796875 35 8.796875 32.296875 
L 8.796875 9.40625 
C 8.796875 3.40625 10.59375 -1.40625 19.203125 -1.40625 
C 24.296875 -1.40625 27.90625 1.09375 29.703125 3.203125 
C 29.90625 3.796875 29.5 4.90625 28.703125 4.90625 
C 28.40625 4.90625 27.09375 3.796875 26.203125 3.5 
C 25.40625 3.203125 24.5 3 23.5 3 
C 16.90625 3 16.203125 8.296875 16.203125 14.09375 
L 16.203125 32.796875 
C 16.203125 34.90625 16.296875 35.203125 18 35.203125 
z
" id="AGaramondPro-Regular-74"/>
     <path d="M 8.796875 11.203125 
C 8.796875 4 8.703125 2.90625 5 2.5 
L 2.5 2.203125 
C 1.796875 1.703125 2 0 2.703125 -0.296875 
C 5.90625 -0.09375 8.90625 0 12.5 0 
C 16 0 18.90625 -0.09375 21.90625 -0.296875 
C 22.59375 0 22.796875 1.796875 22.09375 2.203125 
L 20 2.5 
C 16.40625 3 16.203125 4 16.203125 11.203125 
L 16.203125 28 
C 16.203125 31.5 16.5 32 18.296875 33.5 
C 20.09375 35 22.703125 36.203125 26.09375 36.203125 
C 32.5 36.203125 35.59375 31.90625 35.59375 25.5 
L 35.59375 11.203125 
C 35.59375 4 35.5 3.09375 31.796875 2.5 
L 29.796875 2.203125 
C 29.09375 1.703125 29.296875 0 30 -0.296875 
C 32.703125 -0.09375 35.703125 0 39.296875 0 
C 42.796875 0 45.703125 -0.09375 49.296875 -0.296875 
C 50 0 50.203125 1.703125 49.5 2.203125 
L 46.796875 2.5 
C 43.203125 2.90625 43 4 43 11.203125 
L 43 27.90625 
C 43 34.90625 39.59375 40.796875 30.09375 40.796875 
C 25 40.796875 20.203125 38.40625 16.59375 35.59375 
C 16.296875 35.796875 16.203125 36.59375 16.203125 37.5 
L 16.203125 58.5 
C 16.203125 62.90625 16.40625 67.90625 16.5 70.90625 
C 16.296875 71.296875 15.90625 71.5 15.5 71.5 
C 11.90625 69.59375 7.203125 68.09375 4.703125 67.296875 
C 4.203125 67 4.203125 65.59375 4.703125 65.296875 
L 5.703125 64.703125 
C 8.703125 62.90625 8.796875 62.296875 8.796875 56.40625 
z
" id="AGaramondPro-Regular-68"/>
    </defs>
    <g style="fill:#472101;" transform="translate(92.7 57.072)scale(0.16 -0.16)">
     <use xlink:href="#AGaramondPro-Regular-53"/>
     <use x="48.899994" xlink:href="#AGaramondPro-Regular-61"/>
     <use x="89.299988" xlink:href="#AGaramondPro-Regular-6c"/>
     <use x="113.999985" xlink:href="#AGaramondPro-Regular-65"/>
     <use x="153.599976" xlink:href="#AGaramondPro-Regular-73"/>
     <use x="185.899963" xlink:href="#AGaramondPro-Regular-20"/>
     <use x="210.899948" xlink:href="#AGaramondPro-Regular-47"/>
     <use x="285.59993" xlink:href="#AGaramondPro-Regular-72"/>
     <use x="318.799927" xlink:href="#AGaramondPro-Regular-6f"/>
     <use x="367.399918" xlink:href="#AGaramondPro-Regular-77"/>
     <use x="433.399902" xlink:href="#AGaramondPro-Regular-74"/>
     <use x="464.099899" xlink:href="#AGaramondPro-Regular-68"/>
    </g>
   </g>
   <g id="legend_1">
    <g id="line2d_24">
     <path d="M 558.234 149.9385 
L 579.234 149.9385 
" style="fill:none;stroke:#ff7802;stroke-linecap:square;stroke-width:2;"/>
    </g>
    <g id="line2d_25">
     <defs>
      <path d="M 0 2.5 
C 0.663008 2.5 1.29895 2.236584 1.767767 1.767767 
C 2.236584 1.29895 2.5 0.663008 2.5 0 
C 2.5 -0.663008 2.236584 -1.29895 1.767767 -1.767767 
C 1.29895 -2.236584 0.663008 -2.5 0 -2.5 
C -0.663008 -2.5 -1.29895 -2.236584 -1.767767 -1.767767 
C -2.236584 -1.29895 -2.5 -0.663008 -2.5 0 
C -2.5 0.663008 -2.236584 1.29895 -1.767767 1.767767 
C -1.29895 2.236584 -0.663008 2.5 0 2.5 
z
" id="m8d3179c008" style="stroke:#ff7802;"/>
     </defs>
     <g>
      <use style="fill:#ff7802;stroke:#ff7802;" x="568.734" xlink:href="#m8d3179c008" y="149.9385"/>
     </g>
    </g>
    <g id="text_26">
     <!-- Hilti -->
     <defs>
      <path d="M 54.59375 32.296875 
C 59.40625 32.296875 59.59375 32.09375 59.59375 29.09375 
L 59.59375 15 
C 59.59375 4.5 59.59375 3.5 53.5 2.5 
L 51.59375 2.203125 
C 51 1.59375 51.203125 0 51.796875 -0.296875 
C 56.203125 -0.09375 59.796875 0 63.90625 0 
C 67.796875 0 71.203125 -0.09375 76 -0.296875 
C 76.59375 0 76.796875 1.796875 76.203125 2.203125 
L 73.796875 2.5 
C 68 3.203125 67.796875 4.5 67.796875 15 
L 67.796875 51 
C 67.796875 61.5 68 63 73.796875 63.59375 
L 75.90625 63.796875 
C 76.5 64.203125 76.296875 66 75.703125 66.296875 
C 71.203125 66.09375 67.796875 66 63.90625 66 
C 59.796875 66 56.40625 66.09375 51.796875 66.296875 
C 51.203125 66 51 64.203125 51.59375 63.796875 
L 53.5 63.59375 
C 59.40625 63 59.59375 61.5 59.59375 51 
L 59.59375 39.5 
C 59.59375 36.40625 59.40625 36.296875 54.59375 36.296875 
L 26 36.296875 
C 21.203125 36.296875 21 36.40625 21 39.5 
L 21 51 
C 21 61.5 21.203125 63 27 63.59375 
L 28.90625 63.796875 
C 29.5 64.203125 29.296875 66 28.703125 66.296875 
C 24.40625 66.09375 21 66 17.09375 66 
C 12.796875 66 9.40625 66.203125 4.5 66.296875 
C 3.90625 66 3.703125 64.203125 4.296875 63.796875 
L 6.90625 63.59375 
C 12.09375 63.203125 12.796875 61.5 12.796875 51 
L 12.796875 15 
C 12.796875 4.5 12.59375 3.5 7 2.5 
L 5.296875 2.203125 
C 4.703125 1.59375 4.90625 0 5.5 -0.296875 
C 9.40625 -0.203125 12.796875 0 17.09375 0 
C 21 0 24.40625 -0.09375 29.796875 -0.296875 
C 30.40625 0 30.59375 1.796875 30 2.203125 
L 27.09375 2.5 
C 21.5 3.09375 21 4.5 21 15 
L 21 29.09375 
C 21 32.09375 21.203125 32.296875 26 32.296875 
z
" id="AGaramondPro-Regular-48"/>
      <path d="M 9.796875 11.203125 
C 9.796875 4 9.703125 3 6 2.5 
L 3.90625 2.203125 
C 3.203125 1.703125 3.40625 0 4.09375 -0.296875 
C 6.90625 -0.09375 9.90625 0 13.5 0 
C 17 0 19.90625 -0.09375 22.90625 -0.296875 
C 23.59375 0 23.796875 1.703125 23.09375 2.203125 
L 21 2.5 
C 17.40625 3 17.203125 4 17.203125 11.203125 
L 17.203125 29.203125 
C 17.203125 33.296875 17.40625 38.09375 17.59375 41.59375 
C 17.5 42 17.09375 42.203125 16.59375 42.203125 
C 14.296875 40.703125 8.59375 38.09375 6.296875 37.296875 
C 5.796875 37 5.796875 35.90625 6.203125 35.5 
L 7.09375 34.90625 
C 9.796875 33.09375 9.796875 32.59375 9.796875 28.703125 
z
M 13.09375 62.40625 
C 10.09375 62.40625 7.703125 60.296875 7.703125 57 
C 7.703125 54.296875 9.703125 52 12.796875 52 
C 15.59375 52 18.09375 53.59375 18.09375 57.203125 
C 18.09375 60 16.09375 62.40625 13.09375 62.40625 
z
" id="AGaramondPro-Regular-69"/>
     </defs>
     <g transform="translate(587.634 153.6135)scale(0.105 -0.105)">
      <use xlink:href="#AGaramondPro-Regular-48"/>
      <use x="80.599991" xlink:href="#AGaramondPro-Regular-69"/>
      <use x="106.299988" xlink:href="#AGaramondPro-Regular-6c"/>
      <use x="130.999985" xlink:href="#AGaramondPro-Regular-74"/>
      <use x="161.699982" xlink:href="#AGaramondPro-Regular-69"/>
     </g>
    </g>
    <g id="line2d_26">
     <path d="M 558.234 181.154672 
L 579.234 181.154672 
" style="fill:none;stroke:#2a90ac;stroke-dasharray:7.4,3.2;stroke-dashoffset:0;stroke-width:2;"/>
    </g>
    <g id="line2d_27"/>
    <g id="text_27">
     <!-- 75-Percentile -->
     <defs>
      <path d="M 35.703125 56.40625 
C 38.90625 56.40625 39.40625 55.703125 37.90625 52.703125 
L 9.59375 -4.5 
C 9.90625 -5.796875 11.40625 -6.59375 13 -6.40625 
L 38.5 44.90625 
C 42.203125 52.40625 45.09375 57.703125 47.90625 62 
C 47.90625 62.40625 47.59375 62.796875 47.203125 62.90625 
C 46 62.59375 39.296875 62.59375 33.796875 62.59375 
L 16.90625 62.59375 
C 11.40625 62.59375 7.90625 62.703125 6.296875 62.90625 
C 5.40625 59.09375 3.90625 54.796875 2.90625 52.09375 
C 3.296875 51.203125 4.296875 51 5 51.296875 
C 7.90625 56.09375 10.09375 56.40625 15.703125 56.40625 
z
" id="AGaramondPro-Regular-37"/>
      <path d="M 7.796875 41.5 
C 7.09375 39.203125 7.203125 38.40625 8.703125 38.40625 
C 20.5 38.203125 35.59375 34.59375 35.59375 20.40625 
C 35.59375 6.703125 22.40625 -2.796875 6.90625 -3.703125 
C 6 -4.40625 6.09375 -6.40625 7.203125 -6.796875 
C 23.09375 -6.296875 43 5.703125 43 23 
C 43 38.203125 29 43.703125 16.5 44.90625 
L 14.40625 45.09375 
C 13 45.203125 12.59375 45.703125 13 46.90625 
L 14.796875 52.90625 
C 15.40625 54.796875 15.90625 55.296875 18.203125 55.59375 
L 37.09375 58.296875 
C 38.5 59.796875 40 62.296875 40.703125 64.5 
C 40.703125 64.90625 40.40625 65.5 39.796875 65.40625 
L 15.703125 62 
C 14.09375 61.796875 13.59375 60.90625 13.09375 59.296875 
z
" id="AGaramondPro-Regular-35"/>
      <path d="M 4 22.5 
C 3.5 21.90625 3.203125 21 3.203125 20 
C 3.203125 19 3.59375 17.703125 4.703125 16.796875 
L 28 19 
C 28.5 19.59375 28.796875 20.5 28.796875 21.5 
C 28.796875 22.796875 28.40625 24 27.296875 24.703125 
z
" id="AGaramondPro-Regular-2d"/>
      <path d="M 21 59.59375 
C 21 62.796875 21.09375 63.203125 26.40625 63.203125 
C 36.796875 63.203125 42.5 56.90625 42.5 47.203125 
C 42.5 38.5 38.59375 32.40625 27.796875 30.40625 
C 27.203125 30.203125 27.203125 28.703125 27.90625 28.40625 
C 32 28.40625 37.296875 29.296875 41.703125 31.40625 
C 46 33.5 51.703125 38.09375 51.703125 47.296875 
C 51.703125 54.203125 48.296875 59.40625 43.703125 62.296875 
C 39 65.203125 32.796875 66.296875 24.5 66.296875 
C 16.203125 66.296875 10 66.203125 4.703125 65.5 
C 3.90625 65.09375 3.796875 63.59375 4.5 63 
L 8.09375 62.59375 
C 12.59375 62.09375 12.796875 60.40625 12.796875 51.90625 
L 12.796875 15 
C 12.796875 4.5 12.59375 3.296875 6.796875 2.5 
L 4.703125 2.203125 
C 4.09375 1.59375 4.296875 0 4.90625 -0.296875 
C 9.296875 -0.09375 12.90625 0 17.09375 0 
C 21.09375 0 24.40625 -0.09375 30.09375 -0.296875 
C 30.703125 0 30.90625 1.703125 30.296875 2.203125 
L 27.59375 2.5 
C 21.203125 3.203125 21 4.5 21 15 
z
" id="AGaramondPro-Regular-50"/>
      <path d="M 27.796875 40.796875 
C 11.203125 40.796875 3.59375 29.296875 3.59375 18.5 
C 3.59375 12 5.90625 7.09375 9.40625 3.703125 
C 12.90625 0.296875 17.796875 -1.40625 23.09375 -1.40625 
C 28.90625 -1.40625 36.40625 1.40625 39.796875 8.796875 
C 39.703125 9.703125 38.796875 10.40625 38 10.203125 
C 35.703125 6.796875 32.703125 4.203125 26.90625 4.203125 
C 16.203125 4.203125 10.796875 13.5 10.796875 21.296875 
C 10.796875 31.90625 17.59375 37.40625 24.59375 37.40625 
C 28.703125 37.40625 32.40625 34.796875 34.59375 32.09375 
C 35 31.59375 35.5 31.40625 36 31.40625 
C 37.203125 31.40625 38.203125 33.296875 38.203125 35.09375 
C 38.203125 36.796875 37.5 38.40625 36.703125 39.09375 
C 34 40.296875 30.09375 40.796875 27.796875 40.796875 
z
" id="AGaramondPro-Regular-63"/>
      <path d="M 9.796875 11.203125 
C 9.796875 4 9.703125 3 6 2.5 
L 3.90625 2.203125 
C 3.203125 1.703125 3.40625 0 4.09375 -0.296875 
C 6.90625 -0.09375 9.90625 0 13.5 0 
C 17 0 19.90625 -0.09375 22.59375 -0.296875 
C 23.296875 0 23.5 1.703125 22.796875 2.203125 
L 21 2.5 
C 17.40625 3.09375 17.203125 4 17.203125 11.203125 
L 17.203125 26.5 
C 17.203125 29.40625 17.40625 30.796875 18.703125 32.5 
C 20.09375 34.40625 23.40625 36 27.203125 36 
C 34 36 36.59375 31.796875 36.59375 26.09375 
L 36.59375 11.203125 
C 36.59375 4 36.5 3.09375 32.796875 2.5 
L 30.90625 2.203125 
C 30.203125 1.703125 30.40625 0 31.09375 -0.296875 
C 33.796875 -0.09375 36.796875 0 40.40625 0 
C 43.90625 0 46.796875 -0.09375 49.796875 -0.296875 
C 50.5 0 50.703125 1.703125 50 2.203125 
L 47.796875 2.5 
C 44.203125 3 44 4 44 11.203125 
L 44 28.40625 
C 44 35.09375 40.59375 40.796875 32.296875 40.796875 
C 27.203125 40.796875 22.5 38.296875 18.296875 35.703125 
C 17.59375 35.703125 17.203125 36.203125 17.203125 36.796875 
C 17.203125 37.703125 17.203125 39.203125 17.40625 41.5 
C 17.203125 42 16.703125 42.203125 16.296875 42.203125 
C 14.296875 40.703125 8.59375 38.09375 6.296875 37.296875 
C 5.796875 37 5.796875 35.90625 6.203125 35.5 
L 7.09375 34.90625 
C 9.796875 33.09375 9.796875 32.59375 9.796875 28.703125 
z
" id="AGaramondPro-Regular-6e"/>
     </defs>
     <g transform="translate(587.634 184.829672)scale(0.105 -0.105)">
      <use xlink:href="#AGaramondPro-Regular-37"/>
      <use x="49.999985" xlink:href="#AGaramondPro-Regular-35"/>
      <use x="99.999969" xlink:href="#AGaramondPro-Regular-2d"/>
      <use x="131.999954" xlink:href="#AGaramondPro-Regular-50"/>
      <use x="186.899948" xlink:href="#AGaramondPro-Regular-65"/>
      <use x="226.499939" xlink:href="#AGaramondPro-Regular-72"/>
      <use x="259.699936" xlink:href="#AGaramondPro-Regular-63"/>
      <use x="299.699921" xlink:href="#AGaramondPro-Regular-65"/>
      <use x="339.299911" xlink:href="#AGaramondPro-Regular-6e"/>
      <use x="391.799896" xlink:href="#AGaramondPro-Regular-74"/>
      <use x="422.499893" xlink:href="#AGaramondPro-Regular-69"/>
      <use x="448.19989" xlink:href="#AGaramondPro-Regular-6c"/>
      <use x="472.899887" xlink:href="#AGaramondPro-Regular-65"/>
     </g>
    </g>
    <g id="line2d_28">
     <path d="M 558.234 212.370844 
L 579.234 212.370844 
" style="fill:none;stroke:#2a90ac;stroke-linecap:square;stroke-width:2;"/>
    </g>
    <g id="line2d_29"/>
    <g id="text_28">
     <!-- Median -->
     <defs>
      <path d="M 27.5 49.796875 
C 24.40625 56.203125 21.90625 62.40625 22.296875 66.296875 
C 19 66 16.296875 66 14 66 
C 11.5 66 9.09375 66.09375 6.09375 66.296875 
C 5.296875 65.90625 5.203125 64.40625 5.703125 63.796875 
L 7.296875 63.59375 
C 13.40625 62.796875 14.203125 61.296875 14 55 
C 13.796875 49.5 13.40625 41 12.90625 32.703125 
C 12.296875 22.796875 11.796875 17.296875 11.203125 10.703125 
C 10.59375 3.703125 9.203125 3.09375 5 2.5 
L 2.796875 2.203125 
C 2.203125 1.703125 2.40625 0.203125 3 -0.296875 
C 6.40625 -0.09375 10 0 13.203125 0 
C 17 0 20.90625 -0.09375 24.296875 -0.296875 
C 25 0 25.09375 1.59375 24.40625 2.203125 
L 20.59375 2.5 
C 16.703125 2.796875 16.09375 4.40625 16.09375 11.796875 
C 16.09375 20.296875 16.5 29.203125 16.796875 35.296875 
C 17.09375 41.09375 17.40625 46.90625 17.796875 53.09375 
L 18 53.09375 
C 20.203125 48.5 22.296875 43.296875 24.40625 38.703125 
L 33.40625 19.40625 
C 35.703125 14.5 40.5 4.703125 42.203125 -0.59375 
C 42.40625 -0.90625 42.90625 -1 43.09375 -1 
C 43.5 -1 43.90625 -0.90625 44.09375 -0.59375 
C 45.90625 4 50.40625 13.40625 54.90625 22.203125 
L 63.796875 39.703125 
C 65.796875 43.59375 69.59375 51.59375 70.296875 52.703125 
L 70.5 52.703125 
L 70.796875 11 
C 70.796875 4.59375 70.796875 3 65.90625 2.5 
L 63 2.203125 
C 62.40625 1.59375 62.5 0.203125 63.203125 -0.296875 
C 67.296875 -0.09375 71.796875 0 75.296875 0 
C 78.90625 0 83 -0.09375 87.09375 -0.296875 
C 87.796875 0.09375 87.90625 1.59375 87.296875 2.203125 
L 84.09375 2.5 
C 79.40625 2.90625 79.5 5.59375 79.203125 10.59375 
C 78.40625 25 78.296875 43.5 78.09375 54.09375 
C 78 61.09375 78.796875 63 85.09375 63.59375 
L 87.203125 63.796875 
C 87.703125 64.203125 87.703125 65.90625 87.09375 66.296875 
C 84 66.09375 80.703125 66 78.203125 66 
C 76.203125 66 74.09375 66 70.703125 66.296875 
C 70.5 61.703125 67.59375 56.203125 63.09375 47.09375 
L 53.703125 28 
C 51.203125 22.90625 48.703125 17.703125 46 13 
L 45.796875 13 
C 43.40625 17.40625 41.203125 22 38.90625 26.703125 
z
" id="AGaramondPro-Regular-4d"/>
      <path d="M 42.40625 58.5 
C 42.40625 62.90625 42.59375 67.90625 42.703125 70.90625 
C 42.5 71.296875 42.09375 71.5 41.703125 71.5 
C 38.09375 69.59375 33.40625 68.09375 30.90625 67.296875 
C 30.40625 67 30.40625 65.59375 30.90625 65.296875 
L 31.90625 64.703125 
C 34.90625 62.90625 35 62.296875 35 56.40625 
L 35 41.296875 
C 35 40.5 34.90625 39.90625 34.40625 39.90625 
C 33.296875 40.296875 31.09375 40.796875 27.703125 40.796875 
C 14.09375 40.796875 3.5 31.796875 3.5 17.796875 
C 3.5 7.296875 10.90625 -1.40625 22 -1.40625 
C 26.796875 -1.40625 30.203125 0.203125 34.59375 3.203125 
L 35 3.203125 
C 35.203125 2.796875 35.203125 1.59375 35.203125 0.09375 
L 35.203125 -1.59375 
C 35.203125 -2.09375 35.703125 -2.40625 36.296875 -2.40625 
C 39.09375 -1.296875 45.296875 0.203125 49.5 0.796875 
C 50.40625 1.296875 50.296875 3.796875 49.59375 4 
C 48.09375 3.5 46.40625 3 45.296875 3 
C 42.5 3 42.40625 6.703125 42.40625 14.59375 
z
M 35 9.90625 
C 35 8.296875 34.90625 6.796875 34.296875 6.203125 
C 32.703125 4.59375 29.296875 3.40625 26.59375 3.40625 
C 16.796875 3.40625 11.703125 12 11.703125 21.09375 
C 11.703125 29.796875 16.40625 37.703125 25.5 37.703125 
C 29.40625 37.703125 32.40625 35.59375 33.90625 33.5 
C 34.59375 32.5 35 31.59375 35 29.59375 
z
" id="AGaramondPro-Regular-64"/>
     </defs>
     <g transform="translate(587.634 216.045844)scale(0.105 -0.105)">
      <use xlink:href="#AGaramondPro-Regular-4d"/>
      <use x="91.199982" xlink:href="#AGaramondPro-Regular-65"/>
      <use x="130.799973" xlink:href="#AGaramondPro-Regular-64"/>
      <use x="181.699966" xlink:href="#AGaramondPro-Regular-69"/>
      <use x="207.399963" xlink:href="#AGaramondPro-Regular-61"/>
      <use x="247.799957" xlink:href="#AGaramondPro-Regular-6e"/>
     </g>
    </g>
    <g id="line2d_30">
     <path d="M 558.234 243.587016 
L 579.234 243.587016 
" style="fill:none;stroke:#2a90ac;stroke-dasharray:7.4,3.2;stroke-dashoffset:0;stroke-width:2;"/>
    </g>
    <g id="line2d_31"/>
    <g id="text_29">
     <!-- 25-Percentile -->
     <defs>
      <path d="M 19.203125 6.203125 
C 16.59375 6.203125 16.09375 6.40625 16.09375 7.09375 
C 16.09375 7.703125 17 9.296875 25.203125 18.703125 
L 31.296875 25.703125 
C 39.09375 34.703125 42 41.5 42 47.703125 
C 42 57.296875 35.5 64 25.5 64 
C 16.5 64 8.59375 58.703125 5.40625 49.90625 
C 5.40625 48.59375 6.90625 48.09375 7.796875 48.59375 
C 10.5 54.5 14.796875 58.59375 20.796875 58.59375 
C 28.90625 58.59375 33.296875 53.09375 33.296875 44 
C 33.296875 33.296875 25.59375 23.59375 19 16.5 
C 11.59375 8.5 8.296875 5.09375 3.703125 2.09375 
C 3.09375 1.703125 2.59375 1.296875 2.59375 1 
C 2.59375 0.203125 3.09375 -0.203125 3.296875 -0.296875 
C 5.5 -0.09375 8.796875 0 14.40625 0 
L 28.90625 0 
C 33.5 0 37.703125 -0.09375 41.796875 -0.296875 
C 43.296875 1.703125 45.09375 6.90625 46.40625 11.90625 
C 46 12.5 44.90625 12.796875 44.203125 12.5 
C 43.59375 11.40625 42.90625 10.09375 41 8.40625 
C 39.203125 6.796875 36.203125 6.203125 31.59375 6.203125 
z
" id="AGaramondPro-Regular-32"/>
     </defs>
     <g transform="translate(587.634 247.262016)scale(0.105 -0.105)">
      <use xlink:href="#AGaramondPro-Regular-32"/>
      <use x="49.999985" xlink:href="#AGaramondPro-Regular-35"/>
      <use x="99.999969" xlink:href="#AGaramondPro-Regular-2d"/>
      <use x="131.999954" xlink:href="#AGaramondPro-Regular-50"/>
      <use x="186.899948" xlink:href="#AGaramondPro-Regular-65"/>
      <use x="226.499939" xlink:href="#AGaramondPro-Regular-72"/>
      <use x="259.699936" xlink:href="#AGaramondPro-Regular-63"/>
      <use x="299.699921" xlink:href="#AGaramondPro-Regular-65"/>
      <use x="339.299911" xlink:href="#AGaramondPro-Regular-6e"/>
      <use x="391.799896" xlink:href="#AGaramondPro-Regular-74"/>
      <use x="422.499893" xlink:href="#AGaramondPro-Regular-69"/>
      <use x="448.19989" xlink:href="#AGaramondPro-Regular-6c"/>
      <use x="472.899887" xlink:href="#AGaramondPro-Regular-65"/>
     </g>
    </g>
   </g>
  </g>
 </g>
 <defs>
  <clipPath id="p5aeebaf832">
   <rect height="367.92" width="456.084" x="92.7" y="63.072"/>
  </clipPath>
 </defs>
</svg>
