<?xml version="1.0" encoding="utf-8" standalone="no"?>
<!DOCTYPE svg PUBLIC "-//W3C//DTD SVG 1.1//EN"
  "http://www.w3.org/Graphics/SVG/1.1/DTD/svg11.dtd">
<!-- Created with matplotlib (http://matplotlib.org/) -->
<svg height="525pt" version="1.1" viewBox="0 0 741 525" width="741pt" xmlns="http://www.w3.org/2000/svg" xmlns:xlink="http://www.w3.org/1999/xlink">
 <defs>
  <style type="text/css">
*{stroke-linecap:butt;stroke-linejoin:round;}
  </style>
 </defs>
 <g id="figure_1">
  <g id="patch_1">
   <path d="M 0 525.6 
L 741.6 525.6 
L 741.6 0 
L 0 0 
z
" style="fill:#ffffff;"/>
  </g>
  <g id="axes_1">
   <g id="patch_2">
    <path d="M 92.7 467.784 
L 548.784 467.784 
L 548.784 63.072 
L 92.7 63.072 
z
" style="fill:#ffffff;"/>
   </g>
   <g id="matplotlib.axis_1">
    <g id="xtick_1">
     <g id="line2d_1">
      <defs>
       <path d="M 0 0 
L 0 3.5 
" id="m3793a4ef93" style="stroke:#000000;stroke-width:0.8;"/>
      </defs>
      <g>
       <use style="stroke:#000000;stroke-width:0.8;" x="113.431091" xlink:href="#m3793a4ef93" y="467.784"/>
      </g>
     </g>
     <g id="text_1">
      <!-- 2008 -->
      <defs>
       <path d="M 19.1875 8.296875 
L 53.609375 8.296875 
L 53.609375 0 
L 7.328125 0 
L 7.328125 8.296875 
Q 12.9375 14.109375 22.625 23.890625 
Q 32.328125 33.6875 34.8125 36.53125 
Q 39.546875 41.84375 41.421875 45.53125 
Q 43.3125 49.21875 43.3125 52.78125 
Q 43.3125 58.59375 39.234375 62.25 
Q 35.15625 65.921875 28.609375 65.921875 
Q 23.96875 65.921875 18.8125 64.3125 
Q 13.671875 62.703125 7.8125 59.421875 
L 7.8125 69.390625 
Q 13.765625 71.78125 18.9375 73 
Q 24.125 74.21875 28.421875 74.21875 
Q 39.75 74.21875 46.484375 68.546875 
Q 53.21875 62.890625 53.21875 53.421875 
Q 53.21875 48.921875 51.53125 44.890625 
Q 49.859375 40.875 45.40625 35.40625 
Q 44.1875 33.984375 37.640625 27.21875 
Q 31.109375 20.453125 19.1875 8.296875 
z
" id="DejaVuSans-32"/>
       <path d="M 31.78125 66.40625 
Q 24.171875 66.40625 20.328125 58.90625 
Q 16.5 51.421875 16.5 36.375 
Q 16.5 21.390625 20.328125 13.890625 
Q 24.171875 6.390625 31.78125 6.390625 
Q 39.453125 6.390625 43.28125 13.890625 
Q 47.125 21.390625 47.125 36.375 
Q 47.125 51.421875 43.28125 58.90625 
Q 39.453125 66.40625 31.78125 66.40625 
z
M 31.78125 74.21875 
Q 44.046875 74.21875 50.515625 64.515625 
Q 56.984375 54.828125 56.984375 36.375 
Q 56.984375 17.96875 50.515625 8.265625 
Q 44.046875 -1.421875 31.78125 -1.421875 
Q 19.53125 -1.421875 13.0625 8.265625 
Q 6.59375 17.96875 6.59375 36.375 
Q 6.59375 54.828125 13.0625 64.515625 
Q 19.53125 74.21875 31.78125 74.21875 
z
" id="DejaVuSans-30"/>
       <path d="M 31.78125 34.625 
Q 24.75 34.625 20.71875 30.859375 
Q 16.703125 27.09375 16.703125 20.515625 
Q 16.703125 13.921875 20.71875 10.15625 
Q 24.75 6.390625 31.78125 6.390625 
Q 38.8125 6.390625 42.859375 10.171875 
Q 46.921875 13.96875 46.921875 20.515625 
Q 46.921875 27.09375 42.890625 30.859375 
Q 38.875 34.625 31.78125 34.625 
z
M 21.921875 38.8125 
Q 15.578125 40.375 12.03125 44.71875 
Q 8.5 49.078125 8.5 55.328125 
Q 8.5 64.0625 14.71875 69.140625 
Q 20.953125 74.21875 31.78125 74.21875 
Q 42.671875 74.21875 48.875 69.140625 
Q 55.078125 64.0625 55.078125 55.328125 
Q 55.078125 49.078125 51.53125 44.71875 
Q 48 40.375 41.703125 38.8125 
Q 48.828125 37.15625 52.796875 32.3125 
Q 56.78125 27.484375 56.78125 20.515625 
Q 56.78125 9.90625 50.3125 4.234375 
Q 43.84375 -1.421875 31.78125 -1.421875 
Q 19.734375 -1.421875 13.25 4.234375 
Q 6.78125 9.90625 6.78125 20.515625 
Q 6.78125 27.484375 10.78125 32.3125 
Q 14.796875 37.15625 21.921875 38.8125 
z
M 18.3125 54.390625 
Q 18.3125 48.734375 21.84375 45.5625 
Q 25.390625 42.390625 31.78125 42.390625 
Q 38.140625 42.390625 41.71875 45.5625 
Q 45.3125 48.734375 45.3125 54.390625 
Q 45.3125 60.0625 41.71875 63.234375 
Q 38.140625 66.40625 31.78125 66.40625 
Q 25.390625 66.40625 21.84375 63.234375 
Q 18.3125 60.0625 18.3125 54.390625 
z
" id="DejaVuSans-38"/>
      </defs>
      <g transform="translate(100.069841 482.762359)scale(0.105 -0.105)">
       <use xlink:href="#DejaVuSans-32"/>
       <use x="63.623047" xlink:href="#DejaVuSans-30"/>
       <use x="127.246094" xlink:href="#DejaVuSans-30"/>
       <use x="190.869141" xlink:href="#DejaVuSans-38"/>
      </g>
     </g>
    </g>
    <g id="xtick_2">
     <g id="line2d_2">
      <g>
       <use style="stroke:#000000;stroke-width:0.8;" x="159.500182" xlink:href="#m3793a4ef93" y="467.784"/>
      </g>
     </g>
     <g id="text_2">
      <!-- 2009 -->
      <defs>
       <path d="M 10.984375 1.515625 
L 10.984375 10.5 
Q 14.703125 8.734375 18.5 7.8125 
Q 22.3125 6.890625 25.984375 6.890625 
Q 35.75 6.890625 40.890625 13.453125 
Q 46.046875 20.015625 46.78125 33.40625 
Q 43.953125 29.203125 39.59375 26.953125 
Q 35.25 24.703125 29.984375 24.703125 
Q 19.046875 24.703125 12.671875 31.3125 
Q 6.296875 37.9375 6.296875 49.421875 
Q 6.296875 60.640625 12.9375 67.421875 
Q 19.578125 74.21875 30.609375 74.21875 
Q 43.265625 74.21875 49.921875 64.515625 
Q 56.59375 54.828125 56.59375 36.375 
Q 56.59375 19.140625 48.40625 8.859375 
Q 40.234375 -1.421875 26.421875 -1.421875 
Q 22.703125 -1.421875 18.890625 -0.6875 
Q 15.09375 0.046875 10.984375 1.515625 
z
M 30.609375 32.421875 
Q 37.25 32.421875 41.125 36.953125 
Q 45.015625 41.5 45.015625 49.421875 
Q 45.015625 57.28125 41.125 61.84375 
Q 37.25 66.40625 30.609375 66.40625 
Q 23.96875 66.40625 20.09375 61.84375 
Q 16.21875 57.28125 16.21875 49.421875 
Q 16.21875 41.5 20.09375 36.953125 
Q 23.96875 32.421875 30.609375 32.421875 
z
" id="DejaVuSans-39"/>
      </defs>
      <g transform="translate(146.138932 482.762359)scale(0.105 -0.105)">
       <use xlink:href="#DejaVuSans-32"/>
       <use x="63.623047" xlink:href="#DejaVuSans-30"/>
       <use x="127.246094" xlink:href="#DejaVuSans-30"/>
       <use x="190.869141" xlink:href="#DejaVuSans-39"/>
      </g>
     </g>
    </g>
    <g id="xtick_3">
     <g id="line2d_3">
      <g>
       <use style="stroke:#000000;stroke-width:0.8;" x="205.569273" xlink:href="#m3793a4ef93" y="467.784"/>
      </g>
     </g>
     <g id="text_3">
      <!-- 2010 -->
      <defs>
       <path d="M 12.40625 8.296875 
L 28.515625 8.296875 
L 28.515625 63.921875 
L 10.984375 60.40625 
L 10.984375 69.390625 
L 28.421875 72.90625 
L 38.28125 72.90625 
L 38.28125 8.296875 
L 54.390625 8.296875 
L 54.390625 0 
L 12.40625 0 
z
" id="DejaVuSans-31"/>
      </defs>
      <g transform="translate(192.208023 482.762359)scale(0.105 -0.105)">
       <use xlink:href="#DejaVuSans-32"/>
       <use x="63.623047" xlink:href="#DejaVuSans-30"/>
       <use x="127.246094" xlink:href="#DejaVuSans-31"/>
       <use x="190.869141" xlink:href="#DejaVuSans-30"/>
      </g>
     </g>
    </g>
    <g id="xtick_4">
     <g id="line2d_4">
      <g>
       <use style="stroke:#000000;stroke-width:0.8;" x="251.638364" xlink:href="#m3793a4ef93" y="467.784"/>
      </g>
     </g>
     <g id="text_4">
      <!-- 2011 -->
      <g transform="translate(238.277114 482.762359)scale(0.105 -0.105)">
       <use xlink:href="#DejaVuSans-32"/>
       <use x="63.623047" xlink:href="#DejaVuSans-30"/>
       <use x="127.246094" xlink:href="#DejaVuSans-31"/>
       <use x="190.869141" xlink:href="#DejaVuSans-31"/>
      </g>
     </g>
    </g>
    <g id="xtick_5">
     <g id="line2d_5">
      <g>
       <use style="stroke:#000000;stroke-width:0.8;" x="297.707455" xlink:href="#m3793a4ef93" y="467.784"/>
      </g>
     </g>
     <g id="text_5">
      <!-- FY12 -->
      <defs>
       <path d="M 9.8125 72.90625 
L 51.703125 72.90625 
L 51.703125 64.59375 
L 19.671875 64.59375 
L 19.671875 43.109375 
L 48.578125 43.109375 
L 48.578125 34.8125 
L 19.671875 34.8125 
L 19.671875 0 
L 9.8125 0 
z
" id="DejaVuSans-46"/>
       <path d="M -0.203125 72.90625 
L 10.40625 72.90625 
L 30.609375 42.921875 
L 50.6875 72.90625 
L 61.28125 72.90625 
L 35.5 34.71875 
L 35.5 0 
L 25.59375 0 
L 25.59375 34.71875 
z
" id="DejaVuSans-59"/>
      </defs>
      <g transform="translate(284.800658 482.762359)scale(0.105 -0.105)">
       <use xlink:href="#DejaVuSans-46"/>
       <use x="57.519531" xlink:href="#DejaVuSans-59"/>
       <use x="118.603516" xlink:href="#DejaVuSans-31"/>
       <use x="182.226562" xlink:href="#DejaVuSans-32"/>
      </g>
     </g>
    </g>
    <g id="xtick_6">
     <g id="line2d_6">
      <g>
       <use style="stroke:#000000;stroke-width:0.8;" x="343.776545" xlink:href="#m3793a4ef93" y="467.784"/>
      </g>
     </g>
     <g id="text_6">
      <!-- FY13 -->
      <defs>
       <path d="M 40.578125 39.3125 
Q 47.65625 37.796875 51.625 33 
Q 55.609375 28.21875 55.609375 21.1875 
Q 55.609375 10.40625 48.1875 4.484375 
Q 40.765625 -1.421875 27.09375 -1.421875 
Q 22.515625 -1.421875 17.65625 -0.515625 
Q 12.796875 0.390625 7.625 2.203125 
L 7.625 11.71875 
Q 11.71875 9.328125 16.59375 8.109375 
Q 21.484375 6.890625 26.8125 6.890625 
Q 36.078125 6.890625 40.9375 10.546875 
Q 45.796875 14.203125 45.796875 21.1875 
Q 45.796875 27.640625 41.28125 31.265625 
Q 36.765625 34.90625 28.71875 34.90625 
L 20.21875 34.90625 
L 20.21875 43.015625 
L 29.109375 43.015625 
Q 36.375 43.015625 40.234375 45.921875 
Q 44.09375 48.828125 44.09375 54.296875 
Q 44.09375 59.90625 40.109375 62.90625 
Q 36.140625 65.921875 28.71875 65.921875 
Q 24.65625 65.921875 20.015625 65.03125 
Q 15.375 64.15625 9.8125 62.3125 
L 9.8125 71.09375 
Q 15.4375 72.65625 20.34375 73.4375 
Q 25.25 74.21875 29.59375 74.21875 
Q 40.828125 74.21875 47.359375 69.109375 
Q 53.90625 64.015625 53.90625 55.328125 
Q 53.90625 49.265625 50.4375 45.09375 
Q 46.96875 40.921875 40.578125 39.3125 
z
" id="DejaVuSans-33"/>
      </defs>
      <g transform="translate(330.869749 482.762359)scale(0.105 -0.105)">
       <use xlink:href="#DejaVuSans-46"/>
       <use x="57.519531" xlink:href="#DejaVuSans-59"/>
       <use x="118.603516" xlink:href="#DejaVuSans-31"/>
       <use x="182.226562" xlink:href="#DejaVuSans-33"/>
      </g>
     </g>
    </g>
    <g id="xtick_7">
     <g id="line2d_7">
      <g>
       <use style="stroke:#000000;stroke-width:0.8;" x="389.845636" xlink:href="#m3793a4ef93" y="467.784"/>
      </g>
     </g>
     <g id="text_7">
      <!-- FY14 -->
      <defs>
       <path d="M 37.796875 64.3125 
L 12.890625 25.390625 
L 37.796875 25.390625 
z
M 35.203125 72.90625 
L 47.609375 72.90625 
L 47.609375 25.390625 
L 58.015625 25.390625 
L 58.015625 17.1875 
L 47.609375 17.1875 
L 47.609375 0 
L 37.796875 0 
L 37.796875 17.1875 
L 4.890625 17.1875 
L 4.890625 26.703125 
z
" id="DejaVuSans-34"/>
      </defs>
      <g transform="translate(376.938839 482.762359)scale(0.105 -0.105)">
       <use xlink:href="#DejaVuSans-46"/>
       <use x="57.519531" xlink:href="#DejaVuSans-59"/>
       <use x="118.603516" xlink:href="#DejaVuSans-31"/>
       <use x="182.226562" xlink:href="#DejaVuSans-34"/>
      </g>
     </g>
    </g>
    <g id="xtick_8">
     <g id="line2d_8">
      <g>
       <use style="stroke:#000000;stroke-width:0.8;" x="435.914727" xlink:href="#m3793a4ef93" y="467.784"/>
      </g>
     </g>
     <g id="text_8">
      <!-- FY15 -->
      <defs>
       <path d="M 10.796875 72.90625 
L 49.515625 72.90625 
L 49.515625 64.59375 
L 19.828125 64.59375 
L 19.828125 46.734375 
Q 21.96875 47.46875 24.109375 47.828125 
Q 26.265625 48.1875 28.421875 48.1875 
Q 40.625 48.1875 47.75 41.5 
Q 54.890625 34.8125 54.890625 23.390625 
Q 54.890625 11.625 47.5625 5.09375 
Q 40.234375 -1.421875 26.90625 -1.421875 
Q 22.3125 -1.421875 17.546875 -0.640625 
Q 12.796875 0.140625 7.71875 1.703125 
L 7.71875 11.625 
Q 12.109375 9.234375 16.796875 8.0625 
Q 21.484375 6.890625 26.703125 6.890625 
Q 35.15625 6.890625 40.078125 11.328125 
Q 45.015625 15.765625 45.015625 23.390625 
Q 45.015625 31 40.078125 35.4375 
Q 35.15625 39.890625 26.703125 39.890625 
Q 22.75 39.890625 18.8125 39.015625 
Q 14.890625 38.140625 10.796875 36.28125 
z
" id="DejaVuSans-35"/>
      </defs>
      <g transform="translate(423.00793 482.762359)scale(0.105 -0.105)">
       <use xlink:href="#DejaVuSans-46"/>
       <use x="57.519531" xlink:href="#DejaVuSans-59"/>
       <use x="118.603516" xlink:href="#DejaVuSans-31"/>
       <use x="182.226562" xlink:href="#DejaVuSans-35"/>
      </g>
     </g>
    </g>
    <g id="xtick_9">
     <g id="line2d_9">
      <g>
       <use style="stroke:#000000;stroke-width:0.8;" x="481.983818" xlink:href="#m3793a4ef93" y="467.784"/>
      </g>
     </g>
     <g id="text_9">
      <!-- FY16 -->
      <defs>
       <path d="M 33.015625 40.375 
Q 26.375 40.375 22.484375 35.828125 
Q 18.609375 31.296875 18.609375 23.390625 
Q 18.609375 15.53125 22.484375 10.953125 
Q 26.375 6.390625 33.015625 6.390625 
Q 39.65625 6.390625 43.53125 10.953125 
Q 47.40625 15.53125 47.40625 23.390625 
Q 47.40625 31.296875 43.53125 35.828125 
Q 39.65625 40.375 33.015625 40.375 
z
M 52.59375 71.296875 
L 52.59375 62.3125 
Q 48.875 64.0625 45.09375 64.984375 
Q 41.3125 65.921875 37.59375 65.921875 
Q 27.828125 65.921875 22.671875 59.328125 
Q 17.53125 52.734375 16.796875 39.40625 
Q 19.671875 43.65625 24.015625 45.921875 
Q 28.375 48.1875 33.59375 48.1875 
Q 44.578125 48.1875 50.953125 41.515625 
Q 57.328125 34.859375 57.328125 23.390625 
Q 57.328125 12.15625 50.6875 5.359375 
Q 44.046875 -1.421875 33.015625 -1.421875 
Q 20.359375 -1.421875 13.671875 8.265625 
Q 6.984375 17.96875 6.984375 36.375 
Q 6.984375 53.65625 15.1875 63.9375 
Q 23.390625 74.21875 37.203125 74.21875 
Q 40.921875 74.21875 44.703125 73.484375 
Q 48.484375 72.75 52.59375 71.296875 
z
" id="DejaVuSans-36"/>
      </defs>
      <g transform="translate(469.077021 482.762359)scale(0.105 -0.105)">
       <use xlink:href="#DejaVuSans-46"/>
       <use x="57.519531" xlink:href="#DejaVuSans-59"/>
       <use x="118.603516" xlink:href="#DejaVuSans-31"/>
       <use x="182.226562" xlink:href="#DejaVuSans-36"/>
      </g>
     </g>
    </g>
    <g id="xtick_10">
     <g id="line2d_10">
      <g>
       <use style="stroke:#000000;stroke-width:0.8;" x="528.052909" xlink:href="#m3793a4ef93" y="467.784"/>
      </g>
     </g>
     <g id="text_10">
      <!-- 9M17 -->
      <defs>
       <path d="M 9.8125 72.90625 
L 24.515625 72.90625 
L 43.109375 23.296875 
L 61.8125 72.90625 
L 76.515625 72.90625 
L 76.515625 0 
L 66.890625 0 
L 66.890625 64.015625 
L 48.09375 14.015625 
L 38.1875 14.015625 
L 19.390625 64.015625 
L 19.390625 0 
L 9.8125 0 
z
" id="DejaVuSans-4d"/>
       <path d="M 8.203125 72.90625 
L 55.078125 72.90625 
L 55.078125 68.703125 
L 28.609375 0 
L 18.3125 0 
L 43.21875 64.59375 
L 8.203125 64.59375 
z
" id="DejaVuSans-37"/>
      </defs>
      <g transform="translate(513.502206 482.762359)scale(0.105 -0.105)">
       <use xlink:href="#DejaVuSans-39"/>
       <use x="63.623047" xlink:href="#DejaVuSans-4d"/>
       <use x="149.902344" xlink:href="#DejaVuSans-31"/>
       <use x="213.525391" xlink:href="#DejaVuSans-37"/>
      </g>
     </g>
    </g>
   </g>
   <g id="matplotlib.axis_2">
    <g id="ytick_1">
     <g id="line2d_11">
      <defs>
       <path d="M 0 0 
L -3.5 0 
" id="m3dd1fef878" style="stroke:#000000;stroke-width:0.8;"/>
      </defs>
      <g>
       <use style="stroke:#000000;stroke-width:0.8;" x="92.7" xlink:href="#m3dd1fef878" y="424.031351"/>
      </g>
     </g>
     <g id="text_11">
      <!-- -20.0 -->
      <defs>
       <path d="M 4.890625 31.390625 
L 31.203125 31.390625 
L 31.203125 23.390625 
L 4.890625 23.390625 
z
" id="DejaVuSans-2d"/>
       <path d="M 10.6875 12.40625 
L 21 12.40625 
L 21 0 
L 10.6875 0 
z
" id="DejaVuSans-2e"/>
      </defs>
      <g transform="translate(58.532891 428.020531)scale(0.105 -0.105)">
       <use xlink:href="#DejaVuSans-2d"/>
       <use x="36.083984" xlink:href="#DejaVuSans-32"/>
       <use x="99.707031" xlink:href="#DejaVuSans-30"/>
       <use x="163.330078" xlink:href="#DejaVuSans-2e"/>
       <use x="195.117188" xlink:href="#DejaVuSans-30"/>
      </g>
     </g>
    </g>
    <g id="ytick_2">
     <g id="line2d_12">
      <g>
       <use style="stroke:#000000;stroke-width:0.8;" x="92.7" xlink:href="#m3dd1fef878" y="369.340541"/>
      </g>
     </g>
     <g id="text_12">
      <!-- -15.0 -->
      <g transform="translate(58.532891 373.32972)scale(0.105 -0.105)">
       <use xlink:href="#DejaVuSans-2d"/>
       <use x="36.083984" xlink:href="#DejaVuSans-31"/>
       <use x="99.707031" xlink:href="#DejaVuSans-35"/>
       <use x="163.330078" xlink:href="#DejaVuSans-2e"/>
       <use x="195.117188" xlink:href="#DejaVuSans-30"/>
      </g>
     </g>
    </g>
    <g id="ytick_3">
     <g id="line2d_13">
      <g>
       <use style="stroke:#000000;stroke-width:0.8;" x="92.7" xlink:href="#m3dd1fef878" y="314.64973"/>
      </g>
     </g>
     <g id="text_13">
      <!-- -10.0 -->
      <g transform="translate(58.532891 318.638909)scale(0.105 -0.105)">
       <use xlink:href="#DejaVuSans-2d"/>
       <use x="36.083984" xlink:href="#DejaVuSans-31"/>
       <use x="99.707031" xlink:href="#DejaVuSans-30"/>
       <use x="163.330078" xlink:href="#DejaVuSans-2e"/>
       <use x="195.117188" xlink:href="#DejaVuSans-30"/>
      </g>
     </g>
    </g>
    <g id="ytick_4">
     <g id="line2d_14">
      <g>
       <use style="stroke:#000000;stroke-width:0.8;" x="92.7" xlink:href="#m3dd1fef878" y="259.958919"/>
      </g>
     </g>
     <g id="text_14">
      <!-- -5.0 -->
      <g transform="translate(65.213516 263.948099)scale(0.105 -0.105)">
       <use xlink:href="#DejaVuSans-2d"/>
       <use x="36.083984" xlink:href="#DejaVuSans-35"/>
       <use x="99.707031" xlink:href="#DejaVuSans-2e"/>
       <use x="131.494141" xlink:href="#DejaVuSans-30"/>
      </g>
     </g>
    </g>
    <g id="ytick_5">
     <g id="line2d_15">
      <g>
       <use style="stroke:#000000;stroke-width:0.8;" x="92.7" xlink:href="#m3dd1fef878" y="205.268108"/>
      </g>
     </g>
     <g id="text_15">
      <!-- 0.0 -->
      <g transform="translate(69.001719 209.257288)scale(0.105 -0.105)">
       <use xlink:href="#DejaVuSans-30"/>
       <use x="63.623047" xlink:href="#DejaVuSans-2e"/>
       <use x="95.410156" xlink:href="#DejaVuSans-30"/>
      </g>
     </g>
    </g>
    <g id="ytick_6">
     <g id="line2d_16">
      <g>
       <use style="stroke:#000000;stroke-width:0.8;" x="92.7" xlink:href="#m3dd1fef878" y="150.577297"/>
      </g>
     </g>
     <g id="text_16">
      <!-- 5.0 -->
      <g transform="translate(69.001719 154.566477)scale(0.105 -0.105)">
       <use xlink:href="#DejaVuSans-35"/>
       <use x="63.623047" xlink:href="#DejaVuSans-2e"/>
       <use x="95.410156" xlink:href="#DejaVuSans-30"/>
      </g>
     </g>
    </g>
    <g id="ytick_7">
     <g id="line2d_17">
      <g>
       <use style="stroke:#000000;stroke-width:0.8;" x="92.7" xlink:href="#m3dd1fef878" y="95.886486"/>
      </g>
     </g>
     <g id="text_17">
      <!-- 10.0 -->
      <g transform="translate(62.321094 99.875666)scale(0.105 -0.105)">
       <use xlink:href="#DejaVuSans-31"/>
       <use x="63.623047" xlink:href="#DejaVuSans-30"/>
       <use x="127.246094" xlink:href="#DejaVuSans-2e"/>
       <use x="159.033203" xlink:href="#DejaVuSans-30"/>
      </g>
     </g>
    </g>
   </g>
   <g id="line2d_18">
    <path clip-path="url(#p406151c2f2)" d="M 113.431091 196.517578 
L 120.341455 194.964472 
L 128.1732 193.440367 
L 136.926327 191.973957 
L 147.522218 190.435778 
L 169.174691 187.597285 
L 181.613345 185.819292 
L 190.827164 184.281363 
L 198.658909 182.757257 
L 206.029964 181.092763 
L 212.940327 179.297729 
L 219.850691 177.26737 
L 226.761055 174.998163 
L 233.671418 172.486586 
L 240.581782 169.729114 
L 247.492145 166.722226 
L 254.402509 163.464847 
L 272.369455 154.810775 
L 277.437055 152.715019 
L 281.583273 151.231801 
L 285.2688 150.130793 
L 288.954327 149.270122 
L 292.179164 148.741143 
L 295.404 148.445394 
L 298.168145 148.394891 
L 301.392982 148.567596 
L 305.5392 149.044184 
L 316.595782 150.479407 
L 319.820618 150.604484 
L 322.584764 150.493618 
L 324.888218 150.208845 
L 327.191673 149.717976 
L 329.495127 148.991755 
L 331.798582 148.000931 
L 334.102036 146.716251 
L 335.9448 145.457272 
L 337.787564 143.976526 
L 339.630327 142.259035 
L 341.473091 140.289822 
L 343.315855 138.053908 
L 345.619309 134.870189 
L 347.922764 131.301957 
L 350.686909 126.620251 
L 354.372436 119.916956 
L 364.507636 101.194311 
L 367.271782 96.632752 
L 369.575236 93.195235 
L 371.878691 90.170184 
L 373.721455 88.098625 
L 375.564218 86.379341 
L 376.946291 85.344665 
L 378.328364 84.546774 
L 379.710436 84.002222 
L 381.092509 83.727566 
L 382.474582 83.739362 
L 383.856655 84.054163 
L 385.238727 84.688527 
L 386.6208 85.659009 
L 388.002873 86.982164 
L 389.384945 88.674549 
L 390.767018 90.750771 
L 392.149091 93.202806 
L 393.991855 97.017637 
L 395.834618 101.406149 
L 397.677382 106.314132 
L 399.980836 113.097034 
L 402.744982 122.047049 
L 405.969818 133.375049 
L 410.116036 148.894923 
L 421.633309 192.724899 
L 424.858145 203.890335 
L 427.622291 212.656828 
L 429.925745 219.255643 
L 431.768509 223.995964 
L 433.611273 228.198688 
L 435.454036 231.809606 
L 436.836109 234.098491 
L 438.218182 236.024 
L 439.600255 237.597052 
L 440.982327 238.828779 
L 442.3644 239.73031 
L 443.746473 240.312775 
L 445.128545 240.587305 
L 446.510618 240.56503 
L 447.892691 240.25708 
L 449.274764 239.674586 
L 450.656836 238.828677 
L 452.038909 237.730483 
L 453.420982 236.391136 
L 455.263745 234.249447 
L 457.106509 231.725211 
L 458.949273 228.844808 
L 461.252727 224.783637 
L 463.556182 220.258709 
L 466.320327 214.289188 
L 469.545164 206.693279 
L 473.230691 197.352674 
L 477.8376 184.996738 
L 492.119018 146.169396 
L 495.804545 137.071182 
L 499.029382 129.752291 
L 501.793527 124.068444 
L 504.096982 119.815587 
L 506.400436 116.057406 
L 508.2432 113.441654 
L 510.085964 111.201855 
L 511.928727 109.364392 
L 513.3108 108.266199 
L 514.692873 107.42029 
L 516.074945 106.837795 
L 517.457018 106.529845 
L 518.839091 106.50757 
L 520.221164 106.782101 
L 521.603236 107.364566 
L 522.985309 108.266097 
L 524.367382 109.497824 
L 525.749455 111.070876 
L 527.131527 112.996385 
L 527.592218 113.718468 
L 527.592218 113.718468 
" style="fill:none;stroke:#ff7802;stroke-linecap:square;stroke-width:2;"/>
   </g>
   <g id="line2d_19">
    <path clip-path="url(#p406151c2f2)" d="M 113.431091 162.609276 
L 115.734545 193.599597 
L 118.038 221.668201 
L 120.341455 246.917627 
L 122.644909 269.450412 
L 124.487673 285.589564 
L 126.330436 300.10819 
L 128.1732 313.058789 
L 130.015964 324.493861 
L 131.858727 334.465904 
L 133.701491 343.027419 
L 135.083564 348.554477 
L 136.465636 353.339791 
L 137.847709 357.405511 
L 139.229782 360.773784 
L 140.611855 363.466757 
L 141.533236 364.897845 
L 142.454618 366.045205 
L 143.376 366.915402 
L 144.297382 367.514996 
L 145.218764 367.850551 
L 146.140145 367.928629 
L 147.061527 367.755792 
L 147.982909 367.338603 
L 148.904291 366.683625 
L 149.825673 365.797419 
L 151.207745 364.048914 
L 152.589818 361.817062 
L 153.971891 359.124009 
L 155.353964 355.991906 
L 157.196727 351.171079 
L 159.039491 345.661591 
L 160.882255 339.51594 
L 163.185709 331.019252 
L 165.489164 321.713129 
L 168.253309 309.621699 
L 171.478145 294.46486 
L 175.624364 273.748808 
L 182.074036 240.097045 
L 188.9844 204.374019 
L 192.669927 186.393125 
L 195.894764 171.70189 
L 198.658909 160.107439 
L 200.962364 151.28449 
L 203.265818 143.333726 
L 205.108582 137.669995 
L 206.951345 132.676297 
L 208.794109 128.344105 
L 210.636873 124.636711 
L 212.479636 121.517169 
L 213.861709 119.541068 
L 215.243782 117.859268 
L 216.625855 116.456183 
L 218.007927 115.316229 
L 219.39 114.42382 
L 220.772073 113.76337 
L 222.154145 113.319294 
L 223.536218 113.076006 
L 224.918291 113.017922 
L 226.761055 113.201631 
L 228.603818 113.649939 
L 230.446582 114.325902 
L 232.750036 115.434716 
L 235.514182 117.057041 
L 239.6604 119.827531 
L 244.728 123.212572 
L 247.492145 124.803301 
L 249.7956 125.874645 
L 251.638364 126.513341 
L 253.481127 126.927055 
L 255.323891 127.124623 
L 257.166655 127.124032 
L 259.470109 126.87204 
L 261.773564 126.37367 
L 264.077018 125.664058 
L 266.841164 124.583153 
L 270.066 123.082583 
L 274.672909 120.674636 
L 282.043964 116.818347 
L 285.2688 115.378736 
L 288.032945 114.370667 
L 290.3364 113.736266 
L 292.639855 113.326301 
L 294.943309 113.175909 
L 296.786073 113.266099 
L 298.628836 113.562216 
L 300.4716 114.066039 
L 302.775055 114.966865 
L 305.078509 116.142546 
L 307.381964 117.564893 
L 310.146109 119.557618 
L 312.910255 121.816237 
L 316.135091 124.722371 
L 320.281309 128.768714 
L 329.034436 137.75601 
L 334.102036 142.751499 
L 337.787564 146.071829 
L 341.0124 148.658463 
L 343.776545 150.577297 
L 346.540691 152.182842 
L 349.304836 153.493696 
L 352.068982 154.541924 
L 354.833127 155.359588 
L 358.057964 156.064898 
L 361.743491 156.605444 
L 365.889709 156.965864 
L 372.339382 157.252176 
L 379.249745 157.597275 
L 383.395964 158.026434 
L 386.6208 158.561285 
L 389.845636 159.327827 
L 393.070473 160.359444 
L 396.756 161.81486 
L 400.902218 163.707809 
L 407.812582 167.160346 
L 414.262255 170.311499 
L 418.408473 172.093489 
L 421.633309 173.258988 
L 424.397455 174.059175 
L 427.1616 174.639766 
L 429.925745 174.966583 
L 432.2292 175.020417 
L 434.532655 174.854506 
L 436.836109 174.449421 
L 439.139564 173.799314 
L 441.443018 172.915988 
L 443.746473 171.812421 
L 446.510618 170.2157 
L 449.274764 168.342952 
L 452.038909 166.216607 
L 455.263745 163.445276 
L 458.488582 160.394916 
L 462.174109 156.61281 
L 466.320327 152.044117 
L 471.387927 146.115515 
L 478.298291 137.65633 
L 490.736945 122.380349 
L 495.804545 116.52198 
L 499.950764 112.032435 
L 503.636291 108.337067 
L 506.861127 105.375251 
L 510.085964 102.70427 
L 512.850109 100.673336 
L 515.614255 98.904673 
L 518.3784 97.42071 
L 520.681855 96.417735 
L 522.985309 95.641023 
L 525.288764 95.103555 
L 527.592218 94.81831 
L 527.592218 94.81831 
" style="fill:none;stroke:#2a90ac;stroke-dasharray:7.4,3.2;stroke-dashoffset:0;stroke-width:2;"/>
   </g>
   <g id="line2d_20">
    <path clip-path="url(#p406151c2f2)" d="M 113.431091 398.873578 
L 115.273855 406.96062 
L 117.116618 414.182277 
L 118.959382 420.563522 
L 120.802145 426.129329 
L 122.644909 430.904672 
L 124.026982 433.98246 
L 125.409055 436.640195 
L 126.791127 438.888414 
L 128.1732 440.737652 
L 129.555273 442.198445 
L 130.937345 443.281328 
L 132.319418 443.996838 
L 133.701491 444.355509 
L 134.622873 444.401583 
L 135.544255 444.296867 
L 136.926327 443.86389 
L 138.3084 443.109194 
L 139.690473 442.043315 
L 141.072545 440.676789 
L 142.454618 439.020152 
L 144.297382 436.378228 
L 146.140145 433.264255 
L 147.982909 429.703207 
L 150.286364 424.661242 
L 152.589818 419.00852 
L 154.893273 412.793818 
L 157.657418 404.663038 
L 160.882255 394.355545 
L 164.107091 383.290738 
L 167.792618 369.889618 
L 172.399527 352.297437 
L 179.770582 323.126675 
L 187.602327 292.321656 
L 192.209236 275.047044 
L 195.894764 262.006326 
L 199.1196 251.334419 
L 201.883745 242.842361 
L 204.647891 235.044157 
L 206.951345 229.133632 
L 209.2548 223.763792 
L 211.558255 218.904894 
L 213.861709 214.526349 
L 216.165164 210.597566 
L 218.468618 207.087955 
L 220.772073 203.966927 
L 223.075527 201.203892 
L 225.378982 198.768261 
L 227.682436 196.629443 
L 229.985891 194.756848 
L 232.750036 192.81808 
L 235.514182 191.165764 
L 238.739018 189.529589 
L 242.424545 187.941323 
L 247.952836 185.857923 
L 254.402509 183.388046 
L 261.312873 180.444531 
L 271.448073 176.135826 
L 276.515673 174.246251 
L 280.661891 172.944777 
L 284.347418 172.029719 
L 287.572255 171.453483 
L 290.797091 171.11902 
L 293.561236 171.048138 
L 296.325382 171.196949 
L 299.089527 171.583708 
L 301.853673 172.200055 
L 305.078509 173.162553 
L 308.764036 174.513284 
L 313.370945 176.452325 
L 325.8096 181.825211 
L 329.495127 183.104378 
L 332.719964 183.983384 
L 335.484109 184.512662 
L 338.248255 184.796881 
L 340.551709 184.820463 
L 342.855164 184.627859 
L 345.158618 184.200363 
L 347.462073 183.55231 
L 350.226218 182.53956 
L 353.451055 181.122165 
L 359.440036 178.180323 
L 364.046945 176.015421 
L 367.271782 174.743128 
L 370.035927 173.908646 
L 372.339382 173.447153 
L 374.642836 173.241419 
L 376.4856 173.288142 
L 378.328364 173.545116 
L 380.171127 174.033037 
L 382.013891 174.772601 
L 383.856655 175.784504 
L 385.699418 177.08944 
L 387.542182 178.708107 
L 389.384945 180.661199 
L 391.227709 182.965459 
L 393.070473 185.603217 
L 395.373927 189.315471 
L 398.138073 194.287315 
L 401.362909 200.649253 
L 405.509127 209.424191 
L 416.105018 232.235579 
L 419.329855 238.530609 
L 422.094 243.425987 
L 424.397455 247.061039 
L 426.240218 249.628213 
L 428.082982 251.853899 
L 429.925745 253.702565 
L 431.307818 254.820268 
L 432.689891 255.690918 
L 434.071964 256.299526 
L 435.454036 256.6311 
L 436.836109 256.671942 
L 438.218182 256.42338 
L 439.600255 255.896439 
L 440.982327 255.102302 
L 442.3644 254.052154 
L 443.746473 252.757181 
L 445.589236 250.66904 
L 447.432 248.192049 
L 449.274764 245.352719 
L 451.578218 241.334406 
L 453.881673 236.843145 
L 456.645818 230.902247 
L 459.409964 224.444344 
L 462.6348 216.376062 
L 466.781018 205.376166 
L 473.691382 186.247536 
L 480.141055 168.5622 
L 484.287273 157.821817 
L 487.512109 150.040363 
L 490.276255 143.887501 
L 493.0404 138.306277 
L 495.343855 134.156479 
L 497.647309 130.517569 
L 499.490073 128.009079 
L 501.332836 125.887209 
L 502.714909 124.565475 
L 504.096982 123.487313 
L 505.479055 122.663907 
L 506.861127 122.106442 
L 508.2432 121.826102 
L 509.625273 121.834074 
L 511.007345 122.14154 
L 512.389418 122.759686 
L 513.771491 123.699697 
L 515.153564 124.972756 
L 516.535636 126.59005 
L 517.917709 128.562762 
L 519.299782 130.902077 
L 520.681855 133.61918 
L 522.524618 137.848986 
L 524.367382 142.79681 
L 526.210145 148.489165 
L 527.592218 153.262978 
L 527.592218 153.262978 
" style="fill:none;stroke:#2a90ac;stroke-linecap:square;stroke-width:2;"/>
   </g>
   <g id="line2d_21">
    <path clip-path="url(#p406151c2f2)" d="M 113.431091 259.958919 
L 115.734545 285.837715 
L 118.038 309.473064 
L 120.341455 330.940296 
L 122.644909 350.314743 
L 124.948364 367.671735 
L 127.251818 383.086603 
L 129.094582 394.070791 
L 130.937345 403.898802 
L 132.780109 412.609204 
L 134.622873 420.240567 
L 136.465636 426.831461 
L 138.3084 432.420455 
L 139.690473 435.977905 
L 141.072545 439.009754 
L 142.454618 441.532273 
L 143.836691 443.561732 
L 145.218764 445.114404 
L 146.140145 445.892673 
L 147.061527 446.471088 
L 147.982909 446.854473 
L 148.904291 447.047647 
L 149.825673 447.055432 
L 150.747055 446.88265 
L 151.668436 446.53412 
L 152.589818 446.014666 
L 153.971891 444.925545 
L 155.353964 443.478961 
L 156.736036 441.691186 
L 158.118109 439.57849 
L 159.960873 436.284255 
L 161.803636 432.479881 
L 163.6464 428.203937 
L 165.949855 422.254621 
L 168.253309 415.704073 
L 171.017455 407.155856 
L 174.242291 396.399459 
L 177.927818 383.326391 
L 183.456109 362.807562 
L 191.748545 332.044615 
L 195.434073 319.171974 
L 198.658909 308.660178 
L 201.423055 300.373043 
L 203.726509 294.076325 
L 206.029964 288.413636 
L 208.333418 283.424436 
L 210.636873 279.068532 
L 212.479636 276.005529 
L 214.3224 273.289117 
L 216.165164 270.893199 
L 218.007927 268.791676 
L 220.311382 266.53901 
L 222.614836 264.654589 
L 224.918291 263.087442 
L 227.221745 261.786599 
L 229.985891 260.50534 
L 233.210727 259.284936 
L 239.6604 257.191166 
L 243.345927 255.8556 
L 246.110073 254.62768 
L 248.413527 253.385255 
L 250.716982 251.889227 
L 253.020436 250.091779 
L 255.323891 247.992307 
L 258.088036 245.124671 
L 260.852182 241.936955 
L 264.077018 237.897952 
L 268.683927 231.721333 
L 280.661891 215.391397 
L 284.347418 210.873337 
L 287.111564 207.80552 
L 289.875709 205.083024 
L 292.179164 203.123784 
L 294.482618 201.485033 
L 296.325382 200.429428 
L 298.168145 199.621087 
L 300.010909 199.067126 
L 301.853673 198.752199 
L 303.696436 198.658376 
L 305.5392 198.76773 
L 307.842655 199.162828 
L 310.146109 199.812363 
L 312.449564 200.681319 
L 315.213709 201.964399 
L 318.438545 203.716221 
L 323.045455 206.512456 
L 331.337891 211.592644 
L 334.562727 213.29862 
L 337.326873 214.527809 
L 339.630327 215.341562 
L 341.933782 215.926539 
L 344.237236 216.24783 
L 346.540691 216.293185 
L 348.844145 216.100906 
L 351.608291 215.620056 
L 354.833127 214.8128 
L 366.811091 211.50659 
L 369.575236 211.125438 
L 371.878691 211.039675 
L 374.182145 211.212848 
L 376.024909 211.568156 
L 377.867673 212.141189 
L 379.710436 212.955058 
L 381.5532 214.032878 
L 383.395964 215.397761 
L 385.238727 217.07282 
L 387.081491 219.081168 
L 388.924255 221.445919 
L 390.767018 224.188903 
L 392.609782 227.302477 
L 394.913236 231.658884 
L 397.677382 237.468746 
L 400.902218 244.885802 
L 404.587745 253.952906 
L 417.487091 286.313056 
L 420.711927 293.501511 
L 423.476073 299.056191 
L 425.779527 303.158176 
L 427.622291 306.040871 
L 429.465055 308.527392 
L 431.307818 310.579337 
L 432.689891 311.810003 
L 434.071964 312.758419 
L 435.454036 313.408382 
L 436.836109 313.745032 
L 438.218182 313.769083 
L 439.600255 313.491298 
L 440.982327 312.922607 
L 442.3644 312.073942 
L 443.746473 310.956233 
L 445.128545 309.58041 
L 446.971309 307.363363 
L 448.814073 304.732788 
L 450.656836 301.714597 
L 452.960291 297.436243 
L 455.263745 292.643325 
L 458.027891 286.28385 
L 460.792036 279.34372 
L 464.016873 270.629677 
L 467.7024 260.026879 
L 472.77 244.693237 
L 486.130036 203.835765 
L 489.815564 193.413051 
L 493.0404 184.905823 
L 495.804545 178.179542 
L 498.568691 172.067684 
L 500.872145 167.506905 
L 503.1756 163.484139 
L 505.018364 160.6873 
L 506.861127 158.293086 
L 508.703891 156.327406 
L 510.085964 155.149957 
L 511.468036 154.239063 
L 512.850109 153.605655 
L 514.232182 153.260663 
L 515.614255 153.215017 
L 516.996327 153.479649 
L 518.3784 154.065488 
L 519.760473 154.983467 
L 521.142545 156.244514 
L 522.524618 157.859561 
L 523.906691 159.839538 
L 525.288764 162.195376 
L 526.670836 164.938005 
L 527.592218 166.986707 
L 527.592218 166.986707 
" style="fill:none;stroke:#2a90ac;stroke-dasharray:7.4,3.2;stroke-dashoffset:0;stroke-width:2;"/>
   </g>
   <g id="line2d_22"/>
   <g id="line2d_23">
    <defs>
     <path d="M 0 2.5 
C 0.663008 2.5 1.29895 2.236584 1.767767 1.767767 
C 2.236584 1.29895 2.5 0.663008 2.5 0 
C 2.5 -0.663008 2.236584 -1.29895 1.767767 -1.767767 
C 1.29895 -2.236584 0.663008 -2.5 0 -2.5 
C -0.663008 -2.5 -1.29895 -2.236584 -1.767767 -1.767767 
C -2.236584 -1.29895 -2.5 -0.663008 -2.5 0 
C -2.5 0.663008 -2.236584 1.29895 -1.767767 1.767767 
C -1.29895 2.236584 -0.663008 2.5 0 2.5 
z
" id="m26da21734d" style="stroke:#ff6100;"/>
    </defs>
    <g clip-path="url(#p406151c2f2)">
     <use style="fill:#ff6100;stroke:#ff6100;" x="113.431091" xlink:href="#m26da21734d" y="196.517578"/>
     <use style="fill:#ff6100;stroke:#ff6100;" x="205.569273" xlink:href="#m26da21734d" y="181.204151"/>
     <use style="fill:#ff6100;stroke:#ff6100;" x="297.707455" xlink:href="#m26da21734d" y="148.389665"/>
     <use style="fill:#ff6100;stroke:#ff6100;" x="343.776545" xlink:href="#m26da21734d" y="137.451503"/>
     <use style="fill:#ff6100;stroke:#ff6100;" x="389.845636" xlink:href="#m26da21734d" y="89.323589"/>
     <use style="fill:#ff6100;stroke:#ff6100;" x="435.914727" xlink:href="#m26da21734d" y="232.613514"/>
     <use style="fill:#ff6100;stroke:#ff6100;" x="528.052909" xlink:href="#m26da21734d" y="114.481362"/>
    </g>
   </g>
   <g id="patch_3">
    <path d="M 92.7 467.784 
L 92.7 63.072 
" style="fill:none;stroke:#000000;stroke-linecap:square;stroke-linejoin:miter;stroke-width:0.8;"/>
   </g>
   <g id="patch_4">
    <path d="M 92.7 467.784 
L 548.784 467.784 
" style="fill:none;stroke:#000000;stroke-linecap:square;stroke-linejoin:miter;stroke-width:0.8;"/>
   </g>
   <g id="text_18">
    <!-- 0.8 -->
    <g transform="translate(96.73281 194.333907)scale(0.105 -0.105)">
     <use xlink:href="#DejaVuSans-30"/>
     <use x="63.623047" xlink:href="#DejaVuSans-2e"/>
     <use x="95.410156" xlink:href="#DejaVuSans-38"/>
    </g>
   </g>
   <g id="text_19">
    <!-- 2.2 -->
    <g transform="translate(188.870991 179.020479)scale(0.105 -0.105)">
     <use xlink:href="#DejaVuSans-32"/>
     <use x="63.623047" xlink:href="#DejaVuSans-2e"/>
     <use x="95.410156" xlink:href="#DejaVuSans-32"/>
    </g>
   </g>
   <g id="text_20">
    <!-- 5.2 -->
    <g transform="translate(281.009173 146.205993)scale(0.105 -0.105)">
     <use xlink:href="#DejaVuSans-35"/>
     <use x="63.623047" xlink:href="#DejaVuSans-2e"/>
     <use x="95.410156" xlink:href="#DejaVuSans-32"/>
    </g>
   </g>
   <g id="text_21">
    <!-- 6.2 -->
    <g transform="translate(327.078264 135.267831)scale(0.105 -0.105)">
     <use xlink:href="#DejaVuSans-36"/>
     <use x="63.623047" xlink:href="#DejaVuSans-2e"/>
     <use x="95.410156" xlink:href="#DejaVuSans-32"/>
    </g>
   </g>
   <g id="text_22">
    <!-- 10.6 -->
    <g transform="translate(366.46673 87.139917)scale(0.105 -0.105)">
     <use xlink:href="#DejaVuSans-31"/>
     <use x="63.623047" xlink:href="#DejaVuSans-30"/>
     <use x="127.246094" xlink:href="#DejaVuSans-2e"/>
     <use x="159.033203" xlink:href="#DejaVuSans-36"/>
    </g>
   </g>
   <g id="text_23">
    <!-- -2.5 -->
    <g transform="translate(415.428243 230.429842)scale(0.105 -0.105)">
     <use xlink:href="#DejaVuSans-2d"/>
     <use x="36.083984" xlink:href="#DejaVuSans-32"/>
     <use x="99.707031" xlink:href="#DejaVuSans-2e"/>
     <use x="131.494141" xlink:href="#DejaVuSans-35"/>
    </g>
   </g>
   <g id="text_24">
    <!-- 8.3 -->
    <g transform="translate(511.354628 112.29769)scale(0.105 -0.105)">
     <use xlink:href="#DejaVuSans-38"/>
     <use x="63.623047" xlink:href="#DejaVuSans-2e"/>
     <use x="95.410156" xlink:href="#DejaVuSans-33"/>
    </g>
   </g>
   <g id="text_25">
    <!-- Sales Growth -->
    <defs>
     <path d="M 43.703125 16.90625 
C 43.703125 26.40625 37.5 32.203125 31.203125 36.09375 
L 23.203125 41.09375 
C 19.5 43.40625 14.703125 47.59375 14.703125 53.40625 
C 14.703125 58 16.796875 64.5 26.59375 64.5 
C 36.203125 64.5 38.90625 58 40.203125 53.203125 
C 40.703125 52.59375 42.296875 52.90625 42.703125 53.5 
C 42.703125 57.703125 41.796875 63.296875 40.90625 65.703125 
C 40.09375 65.703125 38.703125 65.90625 37.40625 66.296875 
C 34.796875 67 31.203125 67.59375 28.09375 67.59375 
C 15.09375 67.59375 7.703125 59.90625 7.703125 50.40625 
C 7.703125 42.203125 13.5 36.5 18.5 33.203125 
L 28 27 
C 35.296875 22.296875 36.203125 17.40625 36.203125 13 
C 36.203125 7 32.09375 1.5 23.703125 1.5 
C 12.09375 1.5 8 11.296875 6.5 16.40625 
C 6.09375 17 4.59375 16.796875 4.09375 16.09375 
C 4.296875 11.40625 5.59375 4.296875 6.796875 2.09375 
C 8.703125 1 14 -1.59375 22.40625 -1.59375 
C 35.40625 -1.59375 43.703125 5.90625 43.703125 16.90625 
z
" id="AGaramondPro-Regular-53"/>
     <path d="M 11.796875 16.40625 
C 5.40625 14.09375 3.5 11.796875 3.5 7.90625 
C 3.5 5.09375 4.703125 2.59375 6.59375 0.90625 
C 8.296875 -0.59375 10.703125 -1.40625 13.59375 -1.40625 
C 16.40625 -1.40625 18.59375 -0.09375 20.796875 1.09375 
C 22.796875 2.203125 24 3.09375 24.703125 3.09375 
C 25.296875 3.09375 25.90625 2.296875 26.296875 1.703125 
C 28 -0.5 30.40625 -1.40625 32.796875 -1.40625 
C 37.703125 -1.40625 41.203125 2.5 41.203125 3 
C 41.203125 3.703125 40.90625 4.296875 40.5 4.296875 
C 40.203125 4.296875 39.703125 3.90625 39.203125 3.59375 
C 38.59375 3.296875 37.703125 3 36.703125 3 
C 32.796875 3 31.90625 7.09375 32.09375 11.703125 
L 32.703125 29.09375 
C 33 36.59375 29.5 40.796875 22.296875 40.796875 
C 15 40.796875 3.703125 33.703125 3.703125 28.5 
C 3.703125 27.59375 4.203125 27.09375 5.09375 27.09375 
C 6.59375 27.09375 9.296875 27.796875 10.796875 29 
C 11.59375 29.59375 11.703125 30.796875 11.796875 32.40625 
C 12 35.5 15.40625 36.90625 18.203125 36.90625 
C 24.40625 36.90625 25.59375 31.90625 25.5 28.203125 
L 25.40625 23.59375 
C 25.40625 22.09375 25.203125 21.203125 23.703125 20.703125 
z
M 11.203125 9.09375 
C 11.203125 13 14.09375 14.5 20 16.5 
C 21.796875 17.09375 23.5 17.5 24.09375 17.5 
C 24.703125 17.5 25.09375 17.296875 25.09375 16.203125 
L 24.90625 10.296875 
C 24.796875 8.203125 24.796875 6.796875 23.59375 5.59375 
C 22.59375 4.59375 19.5 3.09375 17.5 3.09375 
C 12.40625 3.09375 11.203125 7.40625 11.203125 9.09375 
z
" id="AGaramondPro-Regular-61"/>
     <path d="M 16.203125 58.5 
C 16.203125 62.90625 16.40625 67.90625 16.5 70.90625 
C 16.296875 71.296875 15.90625 71.5 15.5 71.5 
C 11.90625 69.59375 7.203125 68.09375 4.703125 67.296875 
C 4.203125 67 4.203125 65.59375 4.703125 65.296875 
L 5.703125 64.703125 
C 8.703125 62.90625 8.796875 62.296875 8.796875 56.40625 
L 8.796875 11.203125 
C 8.796875 4 8.703125 3 5 2.5 
L 2.703125 2.203125 
C 2 1.703125 2.203125 0 2.90625 -0.296875 
C 5.90625 -0.09375 8.90625 0 12.5 0 
C 16 0 18.90625 -0.09375 22.203125 -0.296875 
C 22.90625 0 23.09375 1.703125 22.40625 2.203125 
L 20 2.5 
C 16.40625 3 16.203125 4 16.203125 11.203125 
z
" id="AGaramondPro-Regular-6c"/>
     <path d="M 31.5 25.59375 
C 35.703125 25.59375 37.09375 25.703125 37.40625 26.296875 
C 37.59375 26.703125 37.796875 27.5 37.796875 28.90625 
C 37.796875 34.90625 32.203125 40.796875 23.59375 40.796875 
C 11.59375 40.796875 3.5 30.5 3.5 18.203125 
C 3.5 13.796875 4.703125 9.09375 7.703125 5.203125 
C 10.59375 1.40625 15.703125 -1.40625 22.203125 -1.40625 
C 27.40625 -1.40625 34.59375 1.09375 37.90625 7.90625 
C 37.796875 8.796875 37.09375 9.40625 36.09375 9.09375 
C 33 5.203125 30.203125 4.203125 26.90625 4.203125 
C 16.203125 4.203125 10.296875 12.796875 10.296875 22.90625 
C 10.296875 25.40625 10.40625 25.59375 13 25.59375 
z
M 12.09375 28.59375 
C 11.40625 28.59375 11.40625 28.90625 11.40625 29.09375 
C 11.5 32.40625 16.59375 37.796875 22.5 37.796875 
C 28.296875 37.796875 30.203125 34.296875 30.203125 31.5 
C 30.203125 30.203125 29.90625 29.796875 29.59375 29.59375 
C 28.796875 29 26.59375 28.59375 19.203125 28.59375 
z
" id="AGaramondPro-Regular-65"/>
     <path d="M 18.59375 40.796875 
C 11 40.796875 5 36.703125 5 29.40625 
C 5 23.90625 9.09375 20.40625 14.90625 17.09375 
C 18.59375 15 22.59375 12.5 22.59375 7.90625 
C 22.59375 3.59375 19.5 1.5 15.90625 1.5 
C 10.203125 1.5 7 6.296875 5.296875 11.796875 
C 4.796875 12.40625 3.5 12.296875 3 11.703125 
C 2.796875 8.40625 3.40625 3.5 4.203125 1.59375 
C 6.703125 -0.40625 10.203125 -1.40625 14.90625 -1.40625 
C 22.296875 -1.40625 29.296875 2.40625 29.296875 10 
C 29.296875 17.09375 24.40625 20.5 19.09375 23.5 
C 15.59375 25.5 11.40625 27.703125 11.40625 31.796875 
C 11.40625 35.40625 13.90625 37.90625 17.796875 37.90625 
C 21.90625 37.90625 24.90625 35 26.59375 30.59375 
C 27.09375 30 28.59375 30.203125 29 30.90625 
C 29 33.59375 28.296875 36.796875 27.40625 39 
C 26.5 39.796875 22.796875 40.796875 18.59375 40.796875 
z
" id="AGaramondPro-Regular-73"/>
     <path id="AGaramondPro-Regular-20"/>
     <path d="M 64.796875 15.796875 
C 64.796875 20.90625 64.90625 23.703125 69.09375 24.203125 
L 70.703125 24.40625 
C 71.40625 25 71.296875 26.5 70.59375 26.90625 
C 67.296875 26.703125 63.90625 26.59375 60 26.59375 
C 54.09375 26.59375 48.59375 26.703125 45.703125 26.90625 
C 45 26.59375 44.90625 24.796875 45.703125 24.40625 
L 50.09375 23.90625 
C 56.296875 23.203125 56.59375 22.59375 56.59375 14.203125 
L 56.59375 10.203125 
C 56.59375 7 56.09375 5.203125 55.59375 4.5 
C 54.5 2.796875 50.796875 1.5 44.59375 1.5 
C 24.5 1.5 14.59375 16.59375 14.59375 35.796875 
C 14.59375 50.796875 23.09375 64.59375 42.5 64.59375 
C 52.703125 64.59375 60.203125 61.203125 63 50.40625 
C 63.59375 49.796875 65.40625 49.90625 65.703125 50.703125 
C 64.796875 56.703125 64.203125 61.90625 64.203125 65.203125 
C 63 65 59.90625 65.703125 58 66.09375 
C 56.296875 66.5 51 67.59375 45.296875 67.59375 
C 30.203125 67.59375 20.296875 62.90625 13.59375 55.90625 
C 7.40625 49.296875 4.59375 40.703125 4.59375 32.203125 
C 4.59375 23.40625 7.796875 15.5 13.796875 9.5 
C 21.5 1.703125 32.40625 -1.59375 44.296875 -1.59375 
C 49.703125 -1.59375 56.90625 -0.40625 62.203125 1 
C 64.09375 1.5 65.90625 1.90625 67.09375 1.90625 
C 67.5 2.203125 67.5 2.796875 67.203125 3.09375 
C 65.40625 3.796875 64.796875 6.203125 64.796875 10.203125 
z
" id="AGaramondPro-Regular-47"/>
     <path d="M 9.796875 11.203125 
C 9.796875 4 9.703125 3.09375 6 2.5 
L 4.09375 2.203125 
C 3.40625 1.703125 3.59375 0 4.296875 -0.296875 
C 6.90625 -0.09375 9.90625 0 13.5 0 
C 17 0 19.90625 -0.09375 24.59375 -0.296875 
C 25.296875 0 25.5 1.703125 24.796875 2.203125 
L 21.203125 2.5 
C 17.40625 2.796875 17.203125 4 17.203125 11.203125 
L 17.203125 24.796875 
C 17.203125 28.203125 17.5 31.09375 18.5 32.5 
C 19.296875 33.59375 20.5 34.5 22.09375 34.5 
C 23.5 34.5 25 33.90625 26.5 32.90625 
C 27.203125 32.5 27.703125 32.203125 28.703125 32.203125 
C 30.296875 32.203125 33 33.5 33 36.796875 
C 33 39.203125 31 40.796875 28.5 40.796875 
C 24.796875 40.796875 21 37.703125 17.5 34.796875 
C 17.296875 34.90625 17.203125 35.203125 17.203125 35.703125 
L 17.203125 41.5 
C 17.203125 41.90625 16.90625 42.09375 16.40625 42.203125 
C 13.90625 40.703125 8.59375 38.09375 6.296875 37.296875 
C 5.796875 37 5.796875 35.90625 6.203125 35.5 
L 7.09375 34.90625 
C 9.796875 33.09375 9.796875 32.59375 9.796875 28.703125 
z
" id="AGaramondPro-Regular-72"/>
     <path d="M 24.796875 40.796875 
C 13 40.796875 3.5 31.796875 3.5 19.203125 
C 3.5 6.703125 12.5 -1.40625 24 -1.40625 
C 36.5 -1.40625 45.09375 7.59375 45.09375 20.09375 
C 45.09375 32.40625 36 40.796875 24.796875 40.796875 
z
M 36.5 18.5 
C 36.5 10.796875 33.796875 1.59375 25 1.59375 
C 16.203125 1.59375 12.09375 11.40625 12.09375 20.5 
C 12.09375 31.5 17 37.796875 23.59375 37.796875 
C 33.09375 37.796875 36.5 27 36.5 18.5 
z
" id="AGaramondPro-Regular-6f"/>
     <path d="M 16.703125 7.09375 
C 17.5 5 19.09375 0.90625 19.703125 -1.203125 
C 20 -1.5 20.5 -1.59375 20.90625 -1.59375 
C 21.40625 -1.59375 21.796875 -1.5 22.09375 -1.203125 
C 22.90625 1.09375 24.296875 4.703125 26.09375 9 
L 31.296875 21.5 
C 32 23.296875 33.40625 26.40625 33.5 26.40625 
C 33.59375 26.40625 35.09375 23.09375 35.796875 21.296875 
L 40.59375 9.796875 
C 42.296875 5.796875 44.09375 0.59375 44.703125 -1.203125 
C 45 -1.5 45.40625 -1.59375 45.796875 -1.59375 
C 46.296875 -1.59375 46.703125 -1.5 47.09375 -1.203125 
C 47.90625 1.40625 49.09375 4.296875 50.5 7.90625 
C 52.40625 13 57.203125 25 59.90625 30.59375 
C 62 35 62.90625 36.40625 65.296875 36.90625 
L 67.296875 37.296875 
C 67.90625 37.796875 67.796875 39.296875 67 39.703125 
C 64.796875 39.5 62.40625 39.40625 60.5 39.40625 
C 58 39.40625 55.5 39.5 52.59375 39.703125 
C 51.90625 39.40625 51.703125 37.796875 52.5 37.296875 
L 55 36.90625 
C 56.203125 36.703125 56.796875 36.203125 56.796875 35.59375 
C 56.796875 34.90625 56.59375 33.59375 55.796875 31.296875 
C 54.296875 27.09375 50.296875 16.5 49 13.59375 
C 48.296875 12 47.796875 11 47.59375 10.796875 
C 47.296875 11 46.90625 12.09375 46.296875 13.59375 
C 45.203125 16.296875 39.796875 29 38.703125 32.296875 
C 37.5 35.796875 37.296875 36.09375 41.296875 36.90625 
L 43.40625 37.296875 
C 44 37.796875 44 39.40625 43.09375 39.703125 
C 39.703125 39.5 36.703125 39.40625 33.59375 39.40625 
C 31 39.40625 27.796875 39.5 25.296875 39.703125 
C 24.5 39.40625 24.296875 37.90625 25 37.296875 
L 26.59375 36.90625 
C 28.796875 36.40625 30.296875 35.59375 31.203125 33.40625 
C 31.703125 32.09375 31.59375 30.796875 30.296875 27.59375 
L 25.40625 15.5 
C 24.203125 12.59375 23.40625 10.90625 23.09375 10.703125 
C 23.09375 10.90625 22.203125 12.703125 21.296875 15 
L 15.09375 30.296875 
C 14 33 13.5 34.90625 13.5 35.5 
C 13.5 36.09375 14.296875 36.703125 15.703125 36.90625 
L 18 37.296875 
C 18.703125 37.796875 18.59375 39.296875 17.796875 39.703125 
C 15.09375 39.5 12.203125 39.40625 9.09375 39.40625 
C 6.09375 39.40625 3.296875 39.5 0.203125 39.703125 
C -0.703125 39.296875 -0.59375 37.796875 -0.09375 37.296875 
L 1.5 36.90625 
C 4 36.296875 5.203125 35.296875 7.5 29.703125 
z
" id="AGaramondPro-Regular-77"/>
     <path d="M 29.296875 35.203125 
C 30.203125 35.796875 30.40625 38.5 29.203125 39.40625 
L 18.09375 39.40625 
C 16.40625 39.40625 16.296875 39.5 16.296875 41.296875 
L 16.296875 45.796875 
C 15.90625 46.5 14.703125 46.5 14.203125 46.296875 
C 13.203125 44.296875 11.296875 41.59375 10 40.40625 
C 9 39.5 6.5 38.203125 3.59375 37.296875 
C 3.203125 36.703125 3.296875 35.59375 3.90625 35.203125 
L 6.703125 35.203125 
C 8.703125 35.203125 8.796875 35 8.796875 32.296875 
L 8.796875 9.40625 
C 8.796875 3.40625 10.59375 -1.40625 19.203125 -1.40625 
C 24.296875 -1.40625 27.90625 1.09375 29.703125 3.203125 
C 29.90625 3.796875 29.5 4.90625 28.703125 4.90625 
C 28.40625 4.90625 27.09375 3.796875 26.203125 3.5 
C 25.40625 3.203125 24.5 3 23.5 3 
C 16.90625 3 16.203125 8.296875 16.203125 14.09375 
L 16.203125 32.796875 
C 16.203125 34.90625 16.296875 35.203125 18 35.203125 
z
" id="AGaramondPro-Regular-74"/>
     <path d="M 8.796875 11.203125 
C 8.796875 4 8.703125 2.90625 5 2.5 
L 2.5 2.203125 
C 1.796875 1.703125 2 0 2.703125 -0.296875 
C 5.90625 -0.09375 8.90625 0 12.5 0 
C 16 0 18.90625 -0.09375 21.90625 -0.296875 
C 22.59375 0 22.796875 1.796875 22.09375 2.203125 
L 20 2.5 
C 16.40625 3 16.203125 4 16.203125 11.203125 
L 16.203125 28 
C 16.203125 31.5 16.5 32 18.296875 33.5 
C 20.09375 35 22.703125 36.203125 26.09375 36.203125 
C 32.5 36.203125 35.59375 31.90625 35.59375 25.5 
L 35.59375 11.203125 
C 35.59375 4 35.5 3.09375 31.796875 2.5 
L 29.796875 2.203125 
C 29.09375 1.703125 29.296875 0 30 -0.296875 
C 32.703125 -0.09375 35.703125 0 39.296875 0 
C 42.796875 0 45.703125 -0.09375 49.296875 -0.296875 
C 50 0 50.203125 1.703125 49.5 2.203125 
L 46.796875 2.5 
C 43.203125 2.90625 43 4 43 11.203125 
L 43 27.90625 
C 43 34.90625 39.59375 40.796875 30.09375 40.796875 
C 25 40.796875 20.203125 38.40625 16.59375 35.59375 
C 16.296875 35.796875 16.203125 36.59375 16.203125 37.5 
L 16.203125 58.5 
C 16.203125 62.90625 16.40625 67.90625 16.5 70.90625 
C 16.296875 71.296875 15.90625 71.5 15.5 71.5 
C 11.90625 69.59375 7.203125 68.09375 4.703125 67.296875 
C 4.203125 67 4.203125 65.59375 4.703125 65.296875 
L 5.703125 64.703125 
C 8.703125 62.90625 8.796875 62.296875 8.796875 56.40625 
z
" id="AGaramondPro-Regular-68"/>
    </defs>
    <g style="fill:#472101;" transform="translate(92.7 57.072)scale(0.16 -0.16)">
     <use xlink:href="#AGaramondPro-Regular-53"/>
     <use x="48.899994" xlink:href="#AGaramondPro-Regular-61"/>
     <use x="89.299988" xlink:href="#AGaramondPro-Regular-6c"/>
     <use x="113.999985" xlink:href="#AGaramondPro-Regular-65"/>
     <use x="153.599976" xlink:href="#AGaramondPro-Regular-73"/>
     <use x="185.899963" xlink:href="#AGaramondPro-Regular-20"/>
     <use x="210.899948" xlink:href="#AGaramondPro-Regular-47"/>
     <use x="285.59993" xlink:href="#AGaramondPro-Regular-72"/>
     <use x="318.799927" xlink:href="#AGaramondPro-Regular-6f"/>
     <use x="367.399918" xlink:href="#AGaramondPro-Regular-77"/>
     <use x="433.399902" xlink:href="#AGaramondPro-Regular-74"/>
     <use x="464.099899" xlink:href="#AGaramondPro-Regular-68"/>
    </g>
   </g>
   <g id="legend_1">
    <g id="line2d_24">
     <path d="M 558.234 157.767759 
L 579.234 157.767759 
" style="fill:none;stroke:#ff7802;stroke-linecap:square;stroke-width:2;"/>
    </g>
    <g id="line2d_25">
     <defs>
      <path d="M 0 2.5 
C 0.663008 2.5 1.29895 2.236584 1.767767 1.767767 
C 2.236584 1.29895 2.5 0.663008 2.5 0 
C 2.5 -0.663008 2.236584 -1.29895 1.767767 -1.767767 
C 1.29895 -2.236584 0.663008 -2.5 0 -2.5 
C -0.663008 -2.5 -1.29895 -2.236584 -1.767767 -1.767767 
C -2.236584 -1.29895 -2.5 -0.663008 -2.5 0 
C -2.5 0.663008 -2.236584 1.29895 -1.767767 1.767767 
C -1.29895 2.236584 -0.663008 2.5 0 2.5 
z
" id="m5c9e0784a7" style="stroke:#ff7802;"/>
     </defs>
     <g>
      <use style="fill:#ff7802;stroke:#ff7802;" x="568.734" xlink:href="#m5c9e0784a7" y="157.767759"/>
     </g>
    </g>
    <g id="text_26">
     <!-- Tejora Technologies Private Limited -->
     <defs>
      <path d="M -0.296875 72.90625 
L 61.375 72.90625 
L 61.375 64.59375 
L 35.5 64.59375 
L 35.5 0 
L 25.59375 0 
L 25.59375 64.59375 
L -0.296875 64.59375 
z
" id="DejaVuSans-54"/>
      <path d="M 56.203125 29.59375 
L 56.203125 25.203125 
L 14.890625 25.203125 
Q 15.484375 15.921875 20.484375 11.0625 
Q 25.484375 6.203125 34.421875 6.203125 
Q 39.59375 6.203125 44.453125 7.46875 
Q 49.3125 8.734375 54.109375 11.28125 
L 54.109375 2.78125 
Q 49.265625 0.734375 44.1875 -0.34375 
Q 39.109375 -1.421875 33.890625 -1.421875 
Q 20.796875 -1.421875 13.15625 6.1875 
Q 5.515625 13.8125 5.515625 26.8125 
Q 5.515625 40.234375 12.765625 48.109375 
Q 20.015625 56 32.328125 56 
Q 43.359375 56 49.78125 48.890625 
Q 56.203125 41.796875 56.203125 29.59375 
z
M 47.21875 32.234375 
Q 47.125 39.59375 43.09375 43.984375 
Q 39.0625 48.390625 32.421875 48.390625 
Q 24.90625 48.390625 20.390625 44.140625 
Q 15.875 39.890625 15.1875 32.171875 
z
" id="DejaVuSans-65"/>
      <path d="M 9.421875 54.6875 
L 18.40625 54.6875 
L 18.40625 -0.984375 
Q 18.40625 -11.421875 14.421875 -16.109375 
Q 10.453125 -20.796875 1.609375 -20.796875 
L -1.8125 -20.796875 
L -1.8125 -13.1875 
L 0.59375 -13.1875 
Q 5.71875 -13.1875 7.5625 -10.8125 
Q 9.421875 -8.453125 9.421875 -0.984375 
z
M 9.421875 75.984375 
L 18.40625 75.984375 
L 18.40625 64.59375 
L 9.421875 64.59375 
z
" id="DejaVuSans-6a"/>
      <path d="M 30.609375 48.390625 
Q 23.390625 48.390625 19.1875 42.75 
Q 14.984375 37.109375 14.984375 27.296875 
Q 14.984375 17.484375 19.15625 11.84375 
Q 23.34375 6.203125 30.609375 6.203125 
Q 37.796875 6.203125 41.984375 11.859375 
Q 46.1875 17.53125 46.1875 27.296875 
Q 46.1875 37.015625 41.984375 42.703125 
Q 37.796875 48.390625 30.609375 48.390625 
z
M 30.609375 56 
Q 42.328125 56 49.015625 48.375 
Q 55.71875 40.765625 55.71875 27.296875 
Q 55.71875 13.875 49.015625 6.21875 
Q 42.328125 -1.421875 30.609375 -1.421875 
Q 18.84375 -1.421875 12.171875 6.21875 
Q 5.515625 13.875 5.515625 27.296875 
Q 5.515625 40.765625 12.171875 48.375 
Q 18.84375 56 30.609375 56 
z
" id="DejaVuSans-6f"/>
      <path d="M 41.109375 46.296875 
Q 39.59375 47.171875 37.8125 47.578125 
Q 36.03125 48 33.890625 48 
Q 26.265625 48 22.1875 43.046875 
Q 18.109375 38.09375 18.109375 28.8125 
L 18.109375 0 
L 9.078125 0 
L 9.078125 54.6875 
L 18.109375 54.6875 
L 18.109375 46.1875 
Q 20.953125 51.171875 25.484375 53.578125 
Q 30.03125 56 36.53125 56 
Q 37.453125 56 38.578125 55.875 
Q 39.703125 55.765625 41.0625 55.515625 
z
" id="DejaVuSans-72"/>
      <path d="M 34.28125 27.484375 
Q 23.390625 27.484375 19.1875 25 
Q 14.984375 22.515625 14.984375 16.5 
Q 14.984375 11.71875 18.140625 8.90625 
Q 21.296875 6.109375 26.703125 6.109375 
Q 34.1875 6.109375 38.703125 11.40625 
Q 43.21875 16.703125 43.21875 25.484375 
L 43.21875 27.484375 
z
M 52.203125 31.203125 
L 52.203125 0 
L 43.21875 0 
L 43.21875 8.296875 
Q 40.140625 3.328125 35.546875 0.953125 
Q 30.953125 -1.421875 24.3125 -1.421875 
Q 15.921875 -1.421875 10.953125 3.296875 
Q 6 8.015625 6 15.921875 
Q 6 25.140625 12.171875 29.828125 
Q 18.359375 34.515625 30.609375 34.515625 
L 43.21875 34.515625 
L 43.21875 35.40625 
Q 43.21875 41.609375 39.140625 45 
Q 35.0625 48.390625 27.6875 48.390625 
Q 23 48.390625 18.546875 47.265625 
Q 14.109375 46.140625 10.015625 43.890625 
L 10.015625 52.203125 
Q 14.9375 54.109375 19.578125 55.046875 
Q 24.21875 56 28.609375 56 
Q 40.484375 56 46.34375 49.84375 
Q 52.203125 43.703125 52.203125 31.203125 
z
" id="DejaVuSans-61"/>
      <path id="DejaVuSans-20"/>
      <path d="M 48.78125 52.59375 
L 48.78125 44.1875 
Q 44.96875 46.296875 41.140625 47.34375 
Q 37.3125 48.390625 33.40625 48.390625 
Q 24.65625 48.390625 19.8125 42.84375 
Q 14.984375 37.3125 14.984375 27.296875 
Q 14.984375 17.28125 19.8125 11.734375 
Q 24.65625 6.203125 33.40625 6.203125 
Q 37.3125 6.203125 41.140625 7.25 
Q 44.96875 8.296875 48.78125 10.40625 
L 48.78125 2.09375 
Q 45.015625 0.34375 40.984375 -0.53125 
Q 36.96875 -1.421875 32.421875 -1.421875 
Q 20.0625 -1.421875 12.78125 6.34375 
Q 5.515625 14.109375 5.515625 27.296875 
Q 5.515625 40.671875 12.859375 48.328125 
Q 20.21875 56 33.015625 56 
Q 37.15625 56 41.109375 55.140625 
Q 45.0625 54.296875 48.78125 52.59375 
z
" id="DejaVuSans-63"/>
      <path d="M 54.890625 33.015625 
L 54.890625 0 
L 45.90625 0 
L 45.90625 32.71875 
Q 45.90625 40.484375 42.875 44.328125 
Q 39.84375 48.1875 33.796875 48.1875 
Q 26.515625 48.1875 22.3125 43.546875 
Q 18.109375 38.921875 18.109375 30.90625 
L 18.109375 0 
L 9.078125 0 
L 9.078125 75.984375 
L 18.109375 75.984375 
L 18.109375 46.1875 
Q 21.34375 51.125 25.703125 53.5625 
Q 30.078125 56 35.796875 56 
Q 45.21875 56 50.046875 50.171875 
Q 54.890625 44.34375 54.890625 33.015625 
z
" id="DejaVuSans-68"/>
      <path d="M 54.890625 33.015625 
L 54.890625 0 
L 45.90625 0 
L 45.90625 32.71875 
Q 45.90625 40.484375 42.875 44.328125 
Q 39.84375 48.1875 33.796875 48.1875 
Q 26.515625 48.1875 22.3125 43.546875 
Q 18.109375 38.921875 18.109375 30.90625 
L 18.109375 0 
L 9.078125 0 
L 9.078125 54.6875 
L 18.109375 54.6875 
L 18.109375 46.1875 
Q 21.34375 51.125 25.703125 53.5625 
Q 30.078125 56 35.796875 56 
Q 45.21875 56 50.046875 50.171875 
Q 54.890625 44.34375 54.890625 33.015625 
z
" id="DejaVuSans-6e"/>
      <path d="M 9.421875 75.984375 
L 18.40625 75.984375 
L 18.40625 0 
L 9.421875 0 
z
" id="DejaVuSans-6c"/>
      <path d="M 45.40625 27.984375 
Q 45.40625 37.75 41.375 43.109375 
Q 37.359375 48.484375 30.078125 48.484375 
Q 22.859375 48.484375 18.828125 43.109375 
Q 14.796875 37.75 14.796875 27.984375 
Q 14.796875 18.265625 18.828125 12.890625 
Q 22.859375 7.515625 30.078125 7.515625 
Q 37.359375 7.515625 41.375 12.890625 
Q 45.40625 18.265625 45.40625 27.984375 
z
M 54.390625 6.78125 
Q 54.390625 -7.171875 48.1875 -13.984375 
Q 42 -20.796875 29.203125 -20.796875 
Q 24.46875 -20.796875 20.265625 -20.09375 
Q 16.0625 -19.390625 12.109375 -17.921875 
L 12.109375 -9.1875 
Q 16.0625 -11.328125 19.921875 -12.34375 
Q 23.78125 -13.375 27.78125 -13.375 
Q 36.625 -13.375 41.015625 -8.765625 
Q 45.40625 -4.15625 45.40625 5.171875 
L 45.40625 9.625 
Q 42.625 4.78125 38.28125 2.390625 
Q 33.9375 0 27.875 0 
Q 17.828125 0 11.671875 7.65625 
Q 5.515625 15.328125 5.515625 27.984375 
Q 5.515625 40.671875 11.671875 48.328125 
Q 17.828125 56 27.875 56 
Q 33.9375 56 38.28125 53.609375 
Q 42.625 51.21875 45.40625 46.390625 
L 45.40625 54.6875 
L 54.390625 54.6875 
z
" id="DejaVuSans-67"/>
      <path d="M 9.421875 54.6875 
L 18.40625 54.6875 
L 18.40625 0 
L 9.421875 0 
z
M 9.421875 75.984375 
L 18.40625 75.984375 
L 18.40625 64.59375 
L 9.421875 64.59375 
z
" id="DejaVuSans-69"/>
      <path d="M 44.28125 53.078125 
L 44.28125 44.578125 
Q 40.484375 46.53125 36.375 47.5 
Q 32.28125 48.484375 27.875 48.484375 
Q 21.1875 48.484375 17.84375 46.4375 
Q 14.5 44.390625 14.5 40.28125 
Q 14.5 37.15625 16.890625 35.375 
Q 19.28125 33.59375 26.515625 31.984375 
L 29.59375 31.296875 
Q 39.15625 29.25 43.1875 25.515625 
Q 47.21875 21.78125 47.21875 15.09375 
Q 47.21875 7.46875 41.1875 3.015625 
Q 35.15625 -1.421875 24.609375 -1.421875 
Q 20.21875 -1.421875 15.453125 -0.5625 
Q 10.6875 0.296875 5.421875 2 
L 5.421875 11.28125 
Q 10.40625 8.6875 15.234375 7.390625 
Q 20.0625 6.109375 24.8125 6.109375 
Q 31.15625 6.109375 34.5625 8.28125 
Q 37.984375 10.453125 37.984375 14.40625 
Q 37.984375 18.0625 35.515625 20.015625 
Q 33.0625 21.96875 24.703125 23.78125 
L 21.578125 24.515625 
Q 13.234375 26.265625 9.515625 29.90625 
Q 5.8125 33.546875 5.8125 39.890625 
Q 5.8125 47.609375 11.28125 51.796875 
Q 16.75 56 26.8125 56 
Q 31.78125 56 36.171875 55.265625 
Q 40.578125 54.546875 44.28125 53.078125 
z
" id="DejaVuSans-73"/>
      <path d="M 19.671875 64.796875 
L 19.671875 37.40625 
L 32.078125 37.40625 
Q 38.96875 37.40625 42.71875 40.96875 
Q 46.484375 44.53125 46.484375 51.125 
Q 46.484375 57.671875 42.71875 61.234375 
Q 38.96875 64.796875 32.078125 64.796875 
z
M 9.8125 72.90625 
L 32.078125 72.90625 
Q 44.34375 72.90625 50.609375 67.359375 
Q 56.890625 61.8125 56.890625 51.125 
Q 56.890625 40.328125 50.609375 34.8125 
Q 44.34375 29.296875 32.078125 29.296875 
L 19.671875 29.296875 
L 19.671875 0 
L 9.8125 0 
z
" id="DejaVuSans-50"/>
      <path d="M 2.984375 54.6875 
L 12.5 54.6875 
L 29.59375 8.796875 
L 46.6875 54.6875 
L 56.203125 54.6875 
L 35.6875 0 
L 23.484375 0 
z
" id="DejaVuSans-76"/>
      <path d="M 18.3125 70.21875 
L 18.3125 54.6875 
L 36.8125 54.6875 
L 36.8125 47.703125 
L 18.3125 47.703125 
L 18.3125 18.015625 
Q 18.3125 11.328125 20.140625 9.421875 
Q 21.96875 7.515625 27.59375 7.515625 
L 36.8125 7.515625 
L 36.8125 0 
L 27.59375 0 
Q 17.1875 0 13.234375 3.875 
Q 9.28125 7.765625 9.28125 18.015625 
L 9.28125 47.703125 
L 2.6875 47.703125 
L 2.6875 54.6875 
L 9.28125 54.6875 
L 9.28125 70.21875 
z
" id="DejaVuSans-74"/>
      <path d="M 9.8125 72.90625 
L 19.671875 72.90625 
L 19.671875 8.296875 
L 55.171875 8.296875 
L 55.171875 0 
L 9.8125 0 
z
" id="DejaVuSans-4c"/>
      <path d="M 52 44.1875 
Q 55.375 50.25 60.0625 53.125 
Q 64.75 56 71.09375 56 
Q 79.640625 56 84.28125 50.015625 
Q 88.921875 44.046875 88.921875 33.015625 
L 88.921875 0 
L 79.890625 0 
L 79.890625 32.71875 
Q 79.890625 40.578125 77.09375 44.375 
Q 74.3125 48.1875 68.609375 48.1875 
Q 61.625 48.1875 57.5625 43.546875 
Q 53.515625 38.921875 53.515625 30.90625 
L 53.515625 0 
L 44.484375 0 
L 44.484375 32.71875 
Q 44.484375 40.625 41.703125 44.40625 
Q 38.921875 48.1875 33.109375 48.1875 
Q 26.21875 48.1875 22.15625 43.53125 
Q 18.109375 38.875 18.109375 30.90625 
L 18.109375 0 
L 9.078125 0 
L 9.078125 54.6875 
L 18.109375 54.6875 
L 18.109375 46.1875 
Q 21.1875 51.21875 25.484375 53.609375 
Q 29.78125 56 35.6875 56 
Q 41.65625 56 45.828125 52.96875 
Q 50 49.953125 52 44.1875 
z
" id="DejaVuSans-6d"/>
      <path d="M 45.40625 46.390625 
L 45.40625 75.984375 
L 54.390625 75.984375 
L 54.390625 0 
L 45.40625 0 
L 45.40625 8.203125 
Q 42.578125 3.328125 38.25 0.953125 
Q 33.9375 -1.421875 27.875 -1.421875 
Q 17.96875 -1.421875 11.734375 6.484375 
Q 5.515625 14.40625 5.515625 27.296875 
Q 5.515625 40.1875 11.734375 48.09375 
Q 17.96875 56 27.875 56 
Q 33.9375 56 38.25 53.625 
Q 42.578125 51.265625 45.40625 46.390625 
z
M 14.796875 27.296875 
Q 14.796875 17.390625 18.875 11.75 
Q 22.953125 6.109375 30.078125 6.109375 
Q 37.203125 6.109375 41.296875 11.75 
Q 45.40625 17.390625 45.40625 27.296875 
Q 45.40625 37.203125 41.296875 42.84375 
Q 37.203125 48.484375 30.078125 48.484375 
Q 22.953125 48.484375 18.875 42.84375 
Q 14.796875 37.203125 14.796875 27.296875 
z
" id="DejaVuSans-64"/>
     </defs>
     <g transform="translate(587.634 161.442759)scale(0.105 -0.105)">
      <use xlink:href="#DejaVuSans-54"/>
      <use x="60.818359" xlink:href="#DejaVuSans-65"/>
      <use x="122.341797" xlink:href="#DejaVuSans-6a"/>
      <use x="150.125" xlink:href="#DejaVuSans-6f"/>
      <use x="211.306641" xlink:href="#DejaVuSans-72"/>
      <use x="252.419922" xlink:href="#DejaVuSans-61"/>
      <use x="313.699219" xlink:href="#DejaVuSans-20"/>
      <use x="345.486328" xlink:href="#DejaVuSans-54"/>
      <use x="406.304688" xlink:href="#DejaVuSans-65"/>
      <use x="467.828125" xlink:href="#DejaVuSans-63"/>
      <use x="522.808594" xlink:href="#DejaVuSans-68"/>
      <use x="586.1875" xlink:href="#DejaVuSans-6e"/>
      <use x="649.566406" xlink:href="#DejaVuSans-6f"/>
      <use x="710.748047" xlink:href="#DejaVuSans-6c"/>
      <use x="738.53125" xlink:href="#DejaVuSans-6f"/>
      <use x="799.712891" xlink:href="#DejaVuSans-67"/>
      <use x="863.189453" xlink:href="#DejaVuSans-69"/>
      <use x="890.972656" xlink:href="#DejaVuSans-65"/>
      <use x="952.496094" xlink:href="#DejaVuSans-73"/>
      <use x="1004.595703" xlink:href="#DejaVuSans-20"/>
      <use x="1036.382812" xlink:href="#DejaVuSans-50"/>
      <use x="1096.669922" xlink:href="#DejaVuSans-72"/>
      <use x="1137.783203" xlink:href="#DejaVuSans-69"/>
      <use x="1165.566406" xlink:href="#DejaVuSans-76"/>
      <use x="1224.746094" xlink:href="#DejaVuSans-61"/>
      <use x="1286.025391" xlink:href="#DejaVuSans-74"/>
      <use x="1325.234375" xlink:href="#DejaVuSans-65"/>
      <use x="1386.757812" xlink:href="#DejaVuSans-20"/>
      <use x="1418.544922" xlink:href="#DejaVuSans-4c"/>
      <use x="1474.257812" xlink:href="#DejaVuSans-69"/>
      <use x="1502.041016" xlink:href="#DejaVuSans-6d"/>
      <use x="1599.453125" xlink:href="#DejaVuSans-69"/>
      <use x="1627.236328" xlink:href="#DejaVuSans-74"/>
      <use x="1666.445312" xlink:href="#DejaVuSans-65"/>
      <use x="1727.96875" xlink:href="#DejaVuSans-64"/>
     </g>
    </g>
    <g id="line2d_26">
     <path d="M 558.234 188.929791 
L 579.234 188.929791 
" style="fill:none;stroke:#2a90ac;stroke-dasharray:7.4,3.2;stroke-dashoffset:0;stroke-width:2;"/>
    </g>
    <g id="line2d_27"/>
    <g id="text_27">
     <!-- 75-Percentile -->
     <g transform="translate(587.634 192.604791)scale(0.105 -0.105)">
      <use xlink:href="#DejaVuSans-37"/>
      <use x="63.623047" xlink:href="#DejaVuSans-35"/>
      <use x="127.246094" xlink:href="#DejaVuSans-2d"/>
      <use x="163.330078" xlink:href="#DejaVuSans-50"/>
      <use x="223.585938" xlink:href="#DejaVuSans-65"/>
      <use x="285.109375" xlink:href="#DejaVuSans-72"/>
      <use x="326.191406" xlink:href="#DejaVuSans-63"/>
      <use x="381.171875" xlink:href="#DejaVuSans-65"/>
      <use x="442.695312" xlink:href="#DejaVuSans-6e"/>
      <use x="506.074219" xlink:href="#DejaVuSans-74"/>
      <use x="545.283203" xlink:href="#DejaVuSans-69"/>
      <use x="573.066406" xlink:href="#DejaVuSans-6c"/>
      <use x="600.849609" xlink:href="#DejaVuSans-65"/>
     </g>
    </g>
    <g id="line2d_28">
     <path d="M 558.234 220.091822 
L 579.234 220.091822 
" style="fill:none;stroke:#2a90ac;stroke-linecap:square;stroke-width:2;"/>
    </g>
    <g id="line2d_29"/>
    <g id="text_28">
     <!-- Median -->
     <g transform="translate(587.634 223.766822)scale(0.105 -0.105)">
      <use xlink:href="#DejaVuSans-4d"/>
      <use x="86.279297" xlink:href="#DejaVuSans-65"/>
      <use x="147.802734" xlink:href="#DejaVuSans-64"/>
      <use x="211.279297" xlink:href="#DejaVuSans-69"/>
      <use x="239.0625" xlink:href="#DejaVuSans-61"/>
      <use x="300.341797" xlink:href="#DejaVuSans-6e"/>
     </g>
    </g>
    <g id="line2d_30">
     <path d="M 558.234 251.253853 
L 579.234 251.253853 
" style="fill:none;stroke:#2a90ac;stroke-dasharray:7.4,3.2;stroke-dashoffset:0;stroke-width:2;"/>
    </g>
    <g id="line2d_31"/>
    <g id="text_29">
     <!-- 25-Percentile -->
     <g transform="translate(587.634 254.928853)scale(0.105 -0.105)">
      <use xlink:href="#DejaVuSans-32"/>
      <use x="63.623047" xlink:href="#DejaVuSans-35"/>
      <use x="127.246094" xlink:href="#DejaVuSans-2d"/>
      <use x="163.330078" xlink:href="#DejaVuSans-50"/>
      <use x="223.585938" xlink:href="#DejaVuSans-65"/>
      <use x="285.109375" xlink:href="#DejaVuSans-72"/>
      <use x="326.191406" xlink:href="#DejaVuSans-63"/>
      <use x="381.171875" xlink:href="#DejaVuSans-65"/>
      <use x="442.695312" xlink:href="#DejaVuSans-6e"/>
      <use x="506.074219" xlink:href="#DejaVuSans-74"/>
      <use x="545.283203" xlink:href="#DejaVuSans-69"/>
      <use x="573.066406" xlink:href="#DejaVuSans-6c"/>
      <use x="600.849609" xlink:href="#DejaVuSans-65"/>
     </g>
    </g>
   </g>
  </g>
 </g>
 <defs>
  <clipPath id="p406151c2f2">
   <rect height="404.712" width="456.084" x="92.7" y="63.072"/>
  </clipPath>
 </defs>
</svg>
