<?xml version="1.0" encoding="utf-8" standalone="no"?>
<!DOCTYPE svg PUBLIC "-//W3C//DTD SVG 1.1//EN"
  "http://www.w3.org/Graphics/SVG/1.1/DTD/svg11.dtd">
<!-- Created with matplotlib (http://matplotlib.org/) -->
<svg height="525pt" version="1.1" viewBox="0 0 741 525" width="741pt" xmlns="http://www.w3.org/2000/svg" xmlns:xlink="http://www.w3.org/1999/xlink">
 <defs>
  <style type="text/css">
*{stroke-linecap:butt;stroke-linejoin:round;}
  </style>
 </defs>
 <g id="figure_1">
  <g id="patch_1">
   <path d="M 0 525.6 
L 741.6 525.6 
L 741.6 0 
L 0 0 
z
" style="fill:#ffffff;"/>
  </g>
  <g id="axes_1">
   <g id="patch_2">
    <path d="M 92.7 341.64 
L 548.784 341.64 
L 548.784 42.048 
L 92.7 42.048 
z
" style="fill:#ffffff;"/>
   </g>
   <g id="table_1">
    <g id="patch_3">
     <path d="M 92.7 361.90461 
L 138.3084 361.90461 
L 138.3084 341.64 
L 92.7 341.64 
z
" style="fill:#ffffff;"/>
    </g>
    <g id="text_1">
     <!-- 2008 -->
     <defs>
      <path d="M 19.1875 8.296875 
L 53.609375 8.296875 
L 53.609375 0 
L 7.328125 0 
L 7.328125 8.296875 
Q 12.9375 14.109375 22.625 23.890625 
Q 32.328125 33.6875 34.8125 36.53125 
Q 39.546875 41.84375 41.421875 45.53125 
Q 43.3125 49.21875 43.3125 52.78125 
Q 43.3125 58.59375 39.234375 62.25 
Q 35.15625 65.921875 28.609375 65.921875 
Q 23.96875 65.921875 18.8125 64.3125 
Q 13.671875 62.703125 7.8125 59.421875 
L 7.8125 69.390625 
Q 13.765625 71.78125 18.9375 73 
Q 24.125 74.21875 28.421875 74.21875 
Q 39.75 74.21875 46.484375 68.546875 
Q 53.21875 62.890625 53.21875 53.421875 
Q 53.21875 48.921875 51.53125 44.890625 
Q 49.859375 40.875 45.40625 35.40625 
Q 44.1875 33.984375 37.640625 27.21875 
Q 31.109375 20.453125 19.1875 8.296875 
z
" id="DejaVuSans-32"/>
      <path d="M 31.78125 66.40625 
Q 24.171875 66.40625 20.328125 58.90625 
Q 16.5 51.421875 16.5 36.375 
Q 16.5 21.390625 20.328125 13.890625 
Q 24.171875 6.390625 31.78125 6.390625 
Q 39.453125 6.390625 43.28125 13.890625 
Q 47.125 21.390625 47.125 36.375 
Q 47.125 51.421875 43.28125 58.90625 
Q 39.453125 66.40625 31.78125 66.40625 
z
M 31.78125 74.21875 
Q 44.046875 74.21875 50.515625 64.515625 
Q 56.984375 54.828125 56.984375 36.375 
Q 56.984375 17.96875 50.515625 8.265625 
Q 44.046875 -1.421875 31.78125 -1.421875 
Q 19.53125 -1.421875 13.0625 8.265625 
Q 6.59375 17.96875 6.59375 36.375 
Q 6.59375 54.828125 13.0625 64.515625 
Q 19.53125 74.21875 31.78125 74.21875 
z
" id="DejaVuSans-30"/>
      <path d="M 31.78125 34.625 
Q 24.75 34.625 20.71875 30.859375 
Q 16.703125 27.09375 16.703125 20.515625 
Q 16.703125 13.921875 20.71875 10.15625 
Q 24.75 6.390625 31.78125 6.390625 
Q 38.8125 6.390625 42.859375 10.171875 
Q 46.921875 13.96875 46.921875 20.515625 
Q 46.921875 27.09375 42.890625 30.859375 
Q 38.875 34.625 31.78125 34.625 
z
M 21.921875 38.8125 
Q 15.578125 40.375 12.03125 44.71875 
Q 8.5 49.078125 8.5 55.328125 
Q 8.5 64.0625 14.71875 69.140625 
Q 20.953125 74.21875 31.78125 74.21875 
Q 42.671875 74.21875 48.875 69.140625 
Q 55.078125 64.0625 55.078125 55.328125 
Q 55.078125 49.078125 51.53125 44.71875 
Q 48 40.375 41.703125 38.8125 
Q 48.828125 37.15625 52.796875 32.3125 
Q 56.78125 27.484375 56.78125 20.515625 
Q 56.78125 9.90625 50.3125 4.234375 
Q 43.84375 -1.421875 31.78125 -1.421875 
Q 19.734375 -1.421875 13.25 4.234375 
Q 6.78125 9.90625 6.78125 20.515625 
Q 6.78125 27.484375 10.78125 32.3125 
Q 14.796875 37.15625 21.921875 38.8125 
z
M 18.3125 54.390625 
Q 18.3125 48.734375 21.84375 45.5625 
Q 25.390625 42.390625 31.78125 42.390625 
Q 38.140625 42.390625 41.71875 45.5625 
Q 45.3125 48.734375 45.3125 54.390625 
Q 45.3125 60.0625 41.71875 63.234375 
Q 38.140625 66.40625 31.78125 66.40625 
Q 25.390625 66.40625 21.84375 63.234375 
Q 18.3125 60.0625 18.3125 54.390625 
z
" id="DejaVuSans-38"/>
     </defs>
     <g transform="translate(107.02506 354.669649)scale(0.105 -0.105)">
      <use xlink:href="#DejaVuSans-32"/>
      <use x="63.623047" xlink:href="#DejaVuSans-30"/>
      <use x="127.246094" xlink:href="#DejaVuSans-30"/>
      <use x="190.869141" xlink:href="#DejaVuSans-38"/>
     </g>
    </g>
    <g id="patch_4">
     <path d="M 138.3084 361.90461 
L 183.9168 361.90461 
L 183.9168 341.64 
L 138.3084 341.64 
z
" style="fill:#ffffff;"/>
    </g>
    <g id="text_2">
     <!-- 2009 -->
     <defs>
      <path d="M 10.984375 1.515625 
L 10.984375 10.5 
Q 14.703125 8.734375 18.5 7.8125 
Q 22.3125 6.890625 25.984375 6.890625 
Q 35.75 6.890625 40.890625 13.453125 
Q 46.046875 20.015625 46.78125 33.40625 
Q 43.953125 29.203125 39.59375 26.953125 
Q 35.25 24.703125 29.984375 24.703125 
Q 19.046875 24.703125 12.671875 31.3125 
Q 6.296875 37.9375 6.296875 49.421875 
Q 6.296875 60.640625 12.9375 67.421875 
Q 19.578125 74.21875 30.609375 74.21875 
Q 43.265625 74.21875 49.921875 64.515625 
Q 56.59375 54.828125 56.59375 36.375 
Q 56.59375 19.140625 48.40625 8.859375 
Q 40.234375 -1.421875 26.421875 -1.421875 
Q 22.703125 -1.421875 18.890625 -0.6875 
Q 15.09375 0.046875 10.984375 1.515625 
z
M 30.609375 32.421875 
Q 37.25 32.421875 41.125 36.953125 
Q 45.015625 41.5 45.015625 49.421875 
Q 45.015625 57.28125 41.125 61.84375 
Q 37.25 66.40625 30.609375 66.40625 
Q 23.96875 66.40625 20.09375 61.84375 
Q 16.21875 57.28125 16.21875 49.421875 
Q 16.21875 41.5 20.09375 36.953125 
Q 23.96875 32.421875 30.609375 32.421875 
z
" id="DejaVuSans-39"/>
     </defs>
     <g transform="translate(152.63346 354.669649)scale(0.105 -0.105)">
      <use xlink:href="#DejaVuSans-32"/>
      <use x="63.623047" xlink:href="#DejaVuSans-30"/>
      <use x="127.246094" xlink:href="#DejaVuSans-30"/>
      <use x="190.869141" xlink:href="#DejaVuSans-39"/>
     </g>
    </g>
    <g id="patch_5">
     <path d="M 183.9168 361.90461 
L 229.5252 361.90461 
L 229.5252 341.64 
L 183.9168 341.64 
z
" style="fill:#ffffff;"/>
    </g>
    <g id="text_3">
     <!-- 2010 -->
     <defs>
      <path d="M 12.40625 8.296875 
L 28.515625 8.296875 
L 28.515625 63.921875 
L 10.984375 60.40625 
L 10.984375 69.390625 
L 28.421875 72.90625 
L 38.28125 72.90625 
L 38.28125 8.296875 
L 54.390625 8.296875 
L 54.390625 0 
L 12.40625 0 
z
" id="DejaVuSans-31"/>
     </defs>
     <g transform="translate(198.24186 354.669649)scale(0.105 -0.105)">
      <use xlink:href="#DejaVuSans-32"/>
      <use x="63.623047" xlink:href="#DejaVuSans-30"/>
      <use x="127.246094" xlink:href="#DejaVuSans-31"/>
      <use x="190.869141" xlink:href="#DejaVuSans-30"/>
     </g>
    </g>
    <g id="patch_6">
     <path d="M 229.5252 361.90461 
L 275.1336 361.90461 
L 275.1336 341.64 
L 229.5252 341.64 
z
" style="fill:#ffffff;"/>
    </g>
    <g id="text_4">
     <!-- 2011 -->
     <g transform="translate(243.85026 354.669649)scale(0.105 -0.105)">
      <use xlink:href="#DejaVuSans-32"/>
      <use x="63.623047" xlink:href="#DejaVuSans-30"/>
      <use x="127.246094" xlink:href="#DejaVuSans-31"/>
      <use x="190.869141" xlink:href="#DejaVuSans-31"/>
     </g>
    </g>
    <g id="patch_7">
     <path d="M 275.1336 361.90461 
L 320.742 361.90461 
L 320.742 341.64 
L 275.1336 341.64 
z
" style="fill:#ffffff;"/>
    </g>
    <g id="text_5">
     <!-- FY12 -->
     <defs>
      <path d="M 9.8125 72.90625 
L 51.703125 72.90625 
L 51.703125 64.59375 
L 19.671875 64.59375 
L 19.671875 43.109375 
L 48.578125 43.109375 
L 48.578125 34.8125 
L 19.671875 34.8125 
L 19.671875 0 
L 9.8125 0 
z
" id="DejaVuSans-46"/>
      <path d="M -0.203125 72.90625 
L 10.40625 72.90625 
L 30.609375 42.921875 
L 50.6875 72.90625 
L 61.28125 72.90625 
L 35.5 34.71875 
L 35.5 0 
L 25.59375 0 
L 25.59375 34.71875 
z
" id="DejaVuSans-59"/>
     </defs>
     <g transform="translate(290.367566 354.669649)scale(0.105 -0.105)">
      <use xlink:href="#DejaVuSans-46"/>
      <use x="57.519531" xlink:href="#DejaVuSans-59"/>
      <use x="118.603516" xlink:href="#DejaVuSans-31"/>
      <use x="182.226562" xlink:href="#DejaVuSans-32"/>
     </g>
    </g>
    <g id="patch_8">
     <path d="M 320.742 361.90461 
L 366.3504 361.90461 
L 366.3504 341.64 
L 320.742 341.64 
z
" style="fill:#ffffff;"/>
    </g>
    <g id="text_6">
     <!-- FY13 -->
     <defs>
      <path d="M 40.578125 39.3125 
Q 47.65625 37.796875 51.625 33 
Q 55.609375 28.21875 55.609375 21.1875 
Q 55.609375 10.40625 48.1875 4.484375 
Q 40.765625 -1.421875 27.09375 -1.421875 
Q 22.515625 -1.421875 17.65625 -0.515625 
Q 12.796875 0.390625 7.625 2.203125 
L 7.625 11.71875 
Q 11.71875 9.328125 16.59375 8.109375 
Q 21.484375 6.890625 26.8125 6.890625 
Q 36.078125 6.890625 40.9375 10.546875 
Q 45.796875 14.203125 45.796875 21.1875 
Q 45.796875 27.640625 41.28125 31.265625 
Q 36.765625 34.90625 28.71875 34.90625 
L 20.21875 34.90625 
L 20.21875 43.015625 
L 29.109375 43.015625 
Q 36.375 43.015625 40.234375 45.921875 
Q 44.09375 48.828125 44.09375 54.296875 
Q 44.09375 59.90625 40.109375 62.90625 
Q 36.140625 65.921875 28.71875 65.921875 
Q 24.65625 65.921875 20.015625 65.03125 
Q 15.375 64.15625 9.8125 62.3125 
L 9.8125 71.09375 
Q 15.4375 72.65625 20.34375 73.4375 
Q 25.25 74.21875 29.59375 74.21875 
Q 40.828125 74.21875 47.359375 69.109375 
Q 53.90625 64.015625 53.90625 55.328125 
Q 53.90625 49.265625 50.4375 45.09375 
Q 46.96875 40.921875 40.578125 39.3125 
z
" id="DejaVuSans-33"/>
     </defs>
     <g transform="translate(335.975966 354.669649)scale(0.105 -0.105)">
      <use xlink:href="#DejaVuSans-46"/>
      <use x="57.519531" xlink:href="#DejaVuSans-59"/>
      <use x="118.603516" xlink:href="#DejaVuSans-31"/>
      <use x="182.226562" xlink:href="#DejaVuSans-33"/>
     </g>
    </g>
    <g id="patch_9">
     <path d="M 366.3504 361.90461 
L 411.9588 361.90461 
L 411.9588 341.64 
L 366.3504 341.64 
z
" style="fill:#ffffff;"/>
    </g>
    <g id="text_7">
     <!-- FY14 -->
     <defs>
      <path d="M 37.796875 64.3125 
L 12.890625 25.390625 
L 37.796875 25.390625 
z
M 35.203125 72.90625 
L 47.609375 72.90625 
L 47.609375 25.390625 
L 58.015625 25.390625 
L 58.015625 17.1875 
L 47.609375 17.1875 
L 47.609375 0 
L 37.796875 0 
L 37.796875 17.1875 
L 4.890625 17.1875 
L 4.890625 26.703125 
z
" id="DejaVuSans-34"/>
     </defs>
     <g transform="translate(381.584366 354.669649)scale(0.105 -0.105)">
      <use xlink:href="#DejaVuSans-46"/>
      <use x="57.519531" xlink:href="#DejaVuSans-59"/>
      <use x="118.603516" xlink:href="#DejaVuSans-31"/>
      <use x="182.226562" xlink:href="#DejaVuSans-34"/>
     </g>
    </g>
    <g id="patch_10">
     <path d="M 411.9588 361.90461 
L 457.5672 361.90461 
L 457.5672 341.64 
L 411.9588 341.64 
z
" style="fill:#ffffff;"/>
    </g>
    <g id="text_8">
     <!-- FY15 -->
     <defs>
      <path d="M 10.796875 72.90625 
L 49.515625 72.90625 
L 49.515625 64.59375 
L 19.828125 64.59375 
L 19.828125 46.734375 
Q 21.96875 47.46875 24.109375 47.828125 
Q 26.265625 48.1875 28.421875 48.1875 
Q 40.625 48.1875 47.75 41.5 
Q 54.890625 34.8125 54.890625 23.390625 
Q 54.890625 11.625 47.5625 5.09375 
Q 40.234375 -1.421875 26.90625 -1.421875 
Q 22.3125 -1.421875 17.546875 -0.640625 
Q 12.796875 0.140625 7.71875 1.703125 
L 7.71875 11.625 
Q 12.109375 9.234375 16.796875 8.0625 
Q 21.484375 6.890625 26.703125 6.890625 
Q 35.15625 6.890625 40.078125 11.328125 
Q 45.015625 15.765625 45.015625 23.390625 
Q 45.015625 31 40.078125 35.4375 
Q 35.15625 39.890625 26.703125 39.890625 
Q 22.75 39.890625 18.8125 39.015625 
Q 14.890625 38.140625 10.796875 36.28125 
z
" id="DejaVuSans-35"/>
     </defs>
     <g transform="translate(427.192766 354.669649)scale(0.105 -0.105)">
      <use xlink:href="#DejaVuSans-46"/>
      <use x="57.519531" xlink:href="#DejaVuSans-59"/>
      <use x="118.603516" xlink:href="#DejaVuSans-31"/>
      <use x="182.226562" xlink:href="#DejaVuSans-35"/>
     </g>
    </g>
    <g id="patch_11">
     <path d="M 457.5672 361.90461 
L 503.1756 361.90461 
L 503.1756 341.64 
L 457.5672 341.64 
z
" style="fill:#ffffff;"/>
    </g>
    <g id="text_9">
     <!-- FY16 -->
     <defs>
      <path d="M 33.015625 40.375 
Q 26.375 40.375 22.484375 35.828125 
Q 18.609375 31.296875 18.609375 23.390625 
Q 18.609375 15.53125 22.484375 10.953125 
Q 26.375 6.390625 33.015625 6.390625 
Q 39.65625 6.390625 43.53125 10.953125 
Q 47.40625 15.53125 47.40625 23.390625 
Q 47.40625 31.296875 43.53125 35.828125 
Q 39.65625 40.375 33.015625 40.375 
z
M 52.59375 71.296875 
L 52.59375 62.3125 
Q 48.875 64.0625 45.09375 64.984375 
Q 41.3125 65.921875 37.59375 65.921875 
Q 27.828125 65.921875 22.671875 59.328125 
Q 17.53125 52.734375 16.796875 39.40625 
Q 19.671875 43.65625 24.015625 45.921875 
Q 28.375 48.1875 33.59375 48.1875 
Q 44.578125 48.1875 50.953125 41.515625 
Q 57.328125 34.859375 57.328125 23.390625 
Q 57.328125 12.15625 50.6875 5.359375 
Q 44.046875 -1.421875 33.015625 -1.421875 
Q 20.359375 -1.421875 13.671875 8.265625 
Q 6.984375 17.96875 6.984375 36.375 
Q 6.984375 53.65625 15.1875 63.9375 
Q 23.390625 74.21875 37.203125 74.21875 
Q 40.921875 74.21875 44.703125 73.484375 
Q 48.484375 72.75 52.59375 71.296875 
z
" id="DejaVuSans-36"/>
     </defs>
     <g transform="translate(472.801166 354.669649)scale(0.105 -0.105)">
      <use xlink:href="#DejaVuSans-46"/>
      <use x="57.519531" xlink:href="#DejaVuSans-59"/>
      <use x="118.603516" xlink:href="#DejaVuSans-31"/>
      <use x="182.226562" xlink:href="#DejaVuSans-36"/>
     </g>
    </g>
    <g id="patch_12">
     <path d="M 503.1756 361.90461 
L 548.784 361.90461 
L 548.784 341.64 
L 503.1756 341.64 
z
" style="fill:#ffffff;"/>
    </g>
    <g id="text_10">
     <!-- 9M17 -->
     <defs>
      <path d="M 9.8125 72.90625 
L 24.515625 72.90625 
L 43.109375 23.296875 
L 61.8125 72.90625 
L 76.515625 72.90625 
L 76.515625 0 
L 66.890625 0 
L 66.890625 64.015625 
L 48.09375 14.015625 
L 38.1875 14.015625 
L 19.390625 64.015625 
L 19.390625 0 
L 9.8125 0 
z
" id="DejaVuSans-4d"/>
      <path d="M 8.203125 72.90625 
L 55.078125 72.90625 
L 55.078125 68.703125 
L 28.609375 0 
L 18.3125 0 
L 43.21875 64.59375 
L 8.203125 64.59375 
z
" id="DejaVuSans-37"/>
     </defs>
     <g transform="translate(515.121754 354.669649)scale(0.105 -0.105)">
      <use xlink:href="#DejaVuSans-39"/>
      <use x="63.623047" xlink:href="#DejaVuSans-4d"/>
      <use x="149.902344" xlink:href="#DejaVuSans-31"/>
      <use x="213.525391" xlink:href="#DejaVuSans-37"/>
     </g>
    </g>
    <g id="patch_13">
     <path d="M 92.7 382.169221 
L 138.3084 382.169221 
L 138.3084 361.90461 
L 92.7 361.90461 
z
" style="fill:#ffffff;"/>
    </g>
    <g id="text_11">
     <!-- 0.8 -->
     <defs>
      <path d="M 10.6875 12.40625 
L 21 12.40625 
L 21 0 
L 10.6875 0 
z
" id="DejaVuSans-2e"/>
     </defs>
     <g transform="translate(117.049279 374.934259)scale(0.105 -0.105)">
      <use xlink:href="#DejaVuSans-30"/>
      <use x="63.623047" xlink:href="#DejaVuSans-2e"/>
      <use x="95.410156" xlink:href="#DejaVuSans-38"/>
     </g>
    </g>
    <g id="patch_14">
     <path d="M 138.3084 382.169221 
L 183.9168 382.169221 
L 183.9168 361.90461 
L 138.3084 361.90461 
z
" style="fill:#ffffff;"/>
    </g>
    <g id="text_12">
     <!-- nan -->
     <defs>
      <path d="M 54.890625 33.015625 
L 54.890625 0 
L 45.90625 0 
L 45.90625 32.71875 
Q 45.90625 40.484375 42.875 44.328125 
Q 39.84375 48.1875 33.796875 48.1875 
Q 26.515625 48.1875 22.3125 43.546875 
Q 18.109375 38.921875 18.109375 30.90625 
L 18.109375 0 
L 9.078125 0 
L 9.078125 54.6875 
L 18.109375 54.6875 
L 18.109375 46.1875 
Q 21.34375 51.125 25.703125 53.5625 
Q 30.078125 56 35.796875 56 
Q 45.21875 56 50.046875 50.171875 
Q 54.890625 44.34375 54.890625 33.015625 
z
" id="DejaVuSans-6e"/>
      <path d="M 34.28125 27.484375 
Q 23.390625 27.484375 19.1875 25 
Q 14.984375 22.515625 14.984375 16.5 
Q 14.984375 11.71875 18.140625 8.90625 
Q 21.296875 6.109375 26.703125 6.109375 
Q 34.1875 6.109375 38.703125 11.40625 
Q 43.21875 16.703125 43.21875 25.484375 
L 43.21875 27.484375 
z
M 52.203125 31.203125 
L 52.203125 0 
L 43.21875 0 
L 43.21875 8.296875 
Q 40.140625 3.328125 35.546875 0.953125 
Q 30.953125 -1.421875 24.3125 -1.421875 
Q 15.921875 -1.421875 10.953125 3.296875 
Q 6 8.015625 6 15.921875 
Q 6 25.140625 12.171875 29.828125 
Q 18.359375 34.515625 30.609375 34.515625 
L 43.21875 34.515625 
L 43.21875 35.40625 
Q 43.21875 41.609375 39.140625 45 
Q 35.0625 48.390625 27.6875 48.390625 
Q 23 48.390625 18.546875 47.265625 
Q 14.109375 46.140625 10.015625 43.890625 
L 10.015625 52.203125 
Q 14.9375 54.109375 19.578125 55.046875 
Q 24.21875 56 28.609375 56 
Q 40.484375 56 46.34375 49.84375 
Q 52.203125 43.703125 52.203125 31.203125 
z
" id="DejaVuSans-61"/>
     </defs>
     <g transform="translate(159.612679 374.934259)scale(0.105 -0.105)">
      <use xlink:href="#DejaVuSans-6e"/>
      <use x="63.378906" xlink:href="#DejaVuSans-61"/>
      <use x="124.658203" xlink:href="#DejaVuSans-6e"/>
     </g>
    </g>
    <g id="patch_15">
     <path d="M 183.9168 382.169221 
L 229.5252 382.169221 
L 229.5252 361.90461 
L 183.9168 361.90461 
z
" style="fill:#ffffff;"/>
    </g>
    <g id="text_13">
     <!-- 2.2 -->
     <g transform="translate(208.266079 374.934259)scale(0.105 -0.105)">
      <use xlink:href="#DejaVuSans-32"/>
      <use x="63.623047" xlink:href="#DejaVuSans-2e"/>
      <use x="95.410156" xlink:href="#DejaVuSans-32"/>
     </g>
    </g>
    <g id="patch_16">
     <path d="M 229.5252 382.169221 
L 275.1336 382.169221 
L 275.1336 361.90461 
L 229.5252 361.90461 
z
" style="fill:#ffffff;"/>
    </g>
    <g id="text_14">
     <!-- nan -->
     <g transform="translate(250.829479 374.934259)scale(0.105 -0.105)">
      <use xlink:href="#DejaVuSans-6e"/>
      <use x="63.378906" xlink:href="#DejaVuSans-61"/>
      <use x="124.658203" xlink:href="#DejaVuSans-6e"/>
     </g>
    </g>
    <g id="patch_17">
     <path d="M 275.1336 382.169221 
L 320.742 382.169221 
L 320.742 361.90461 
L 275.1336 361.90461 
z
" style="fill:#ffffff;"/>
    </g>
    <g id="text_15">
     <!-- 5.2 -->
     <g transform="translate(299.482879 374.934259)scale(0.105 -0.105)">
      <use xlink:href="#DejaVuSans-35"/>
      <use x="63.623047" xlink:href="#DejaVuSans-2e"/>
      <use x="95.410156" xlink:href="#DejaVuSans-32"/>
     </g>
    </g>
    <g id="patch_18">
     <path d="M 320.742 382.169221 
L 366.3504 382.169221 
L 366.3504 361.90461 
L 320.742 361.90461 
z
" style="fill:#ffffff;"/>
    </g>
    <g id="text_16">
     <!-- 6.2 -->
     <g transform="translate(345.091279 374.934259)scale(0.105 -0.105)">
      <use xlink:href="#DejaVuSans-36"/>
      <use x="63.623047" xlink:href="#DejaVuSans-2e"/>
      <use x="95.410156" xlink:href="#DejaVuSans-32"/>
     </g>
    </g>
    <g id="patch_19">
     <path d="M 366.3504 382.169221 
L 411.9588 382.169221 
L 411.9588 361.90461 
L 366.3504 361.90461 
z
" style="fill:#ffffff;"/>
    </g>
    <g id="text_17">
     <!-- 10.6 -->
     <g transform="translate(384.019054 374.934259)scale(0.105 -0.105)">
      <use xlink:href="#DejaVuSans-31"/>
      <use x="63.623047" xlink:href="#DejaVuSans-30"/>
      <use x="127.246094" xlink:href="#DejaVuSans-2e"/>
      <use x="159.033203" xlink:href="#DejaVuSans-36"/>
     </g>
    </g>
    <g id="patch_20">
     <path d="M 411.9588 382.169221 
L 457.5672 382.169221 
L 457.5672 361.90461 
L 411.9588 361.90461 
z
" style="fill:#ffffff;"/>
    </g>
    <g id="text_18">
     <!-- -2.5 -->
     <defs>
      <path d="M 4.890625 31.390625 
L 31.203125 31.390625 
L 31.203125 23.390625 
L 4.890625 23.390625 
z
" id="DejaVuSans-2d"/>
     </defs>
     <g transform="translate(432.519876 374.934259)scale(0.105 -0.105)">
      <use xlink:href="#DejaVuSans-2d"/>
      <use x="36.083984" xlink:href="#DejaVuSans-32"/>
      <use x="99.707031" xlink:href="#DejaVuSans-2e"/>
      <use x="131.494141" xlink:href="#DejaVuSans-35"/>
     </g>
    </g>
    <g id="patch_21">
     <path d="M 457.5672 382.169221 
L 503.1756 382.169221 
L 503.1756 361.90461 
L 457.5672 361.90461 
z
" style="fill:#ffffff;"/>
    </g>
    <g id="text_19">
     <!-- nan -->
     <g transform="translate(478.871479 374.934259)scale(0.105 -0.105)">
      <use xlink:href="#DejaVuSans-6e"/>
      <use x="63.378906" xlink:href="#DejaVuSans-61"/>
      <use x="124.658203" xlink:href="#DejaVuSans-6e"/>
     </g>
    </g>
    <g id="patch_22">
     <path d="M 503.1756 382.169221 
L 548.784 382.169221 
L 548.784 361.90461 
L 503.1756 361.90461 
z
" style="fill:#ffffff;"/>
    </g>
    <g id="text_20">
     <!-- 8.3 -->
     <g transform="translate(527.524879 374.934259)scale(0.105 -0.105)">
      <use xlink:href="#DejaVuSans-38"/>
      <use x="63.623047" xlink:href="#DejaVuSans-2e"/>
      <use x="95.410156" xlink:href="#DejaVuSans-33"/>
     </g>
    </g>
    <g id="patch_23">
     <path d="M 92.7 402.433831 
L 138.3084 402.433831 
L 138.3084 382.169221 
L 92.7 382.169221 
z
" style="fill:#ffffff;"/>
    </g>
    <g id="text_21">
     <!-- 3.9 -->
     <g transform="translate(117.049279 395.19887)scale(0.105 -0.105)">
      <use xlink:href="#DejaVuSans-33"/>
      <use x="63.623047" xlink:href="#DejaVuSans-2e"/>
      <use x="95.410156" xlink:href="#DejaVuSans-39"/>
     </g>
    </g>
    <g id="patch_24">
     <path d="M 138.3084 402.433831 
L 183.9168 402.433831 
L 183.9168 382.169221 
L 138.3084 382.169221 
z
" style="fill:#ffffff;"/>
    </g>
    <g id="text_22">
     <!-- -12.7 -->
     <g transform="translate(152.188851 395.19887)scale(0.105 -0.105)">
      <use xlink:href="#DejaVuSans-2d"/>
      <use x="36.083984" xlink:href="#DejaVuSans-31"/>
      <use x="99.707031" xlink:href="#DejaVuSans-32"/>
      <use x="163.330078" xlink:href="#DejaVuSans-2e"/>
      <use x="195.117188" xlink:href="#DejaVuSans-37"/>
     </g>
    </g>
    <g id="patch_25">
     <path d="M 183.9168 402.433831 
L 229.5252 402.433831 
L 229.5252 382.169221 
L 183.9168 382.169221 
z
" style="fill:#ffffff;"/>
    </g>
    <g id="text_23">
     <!-- 6.3 -->
     <g transform="translate(208.266079 395.19887)scale(0.105 -0.105)">
      <use xlink:href="#DejaVuSans-36"/>
      <use x="63.623047" xlink:href="#DejaVuSans-2e"/>
      <use x="95.410156" xlink:href="#DejaVuSans-33"/>
     </g>
    </g>
    <g id="patch_26">
     <path d="M 229.5252 402.433831 
L 275.1336 402.433831 
L 275.1336 382.169221 
L 229.5252 382.169221 
z
" style="fill:#ffffff;"/>
    </g>
    <g id="text_24">
     <!-- 7.2 -->
     <g transform="translate(253.874479 395.19887)scale(0.105 -0.105)">
      <use xlink:href="#DejaVuSans-37"/>
      <use x="63.623047" xlink:href="#DejaVuSans-2e"/>
      <use x="95.410156" xlink:href="#DejaVuSans-32"/>
     </g>
    </g>
    <g id="patch_27">
     <path d="M 275.1336 402.433831 
L 320.742 402.433831 
L 320.742 382.169221 
L 275.1336 382.169221 
z
" style="fill:#ffffff;"/>
    </g>
    <g id="text_25">
     <!-- 8.4 -->
     <g transform="translate(299.482879 395.19887)scale(0.105 -0.105)">
      <use xlink:href="#DejaVuSans-38"/>
      <use x="63.623047" xlink:href="#DejaVuSans-2e"/>
      <use x="95.410156" xlink:href="#DejaVuSans-34"/>
     </g>
    </g>
    <g id="patch_28">
     <path d="M 320.742 402.433831 
L 366.3504 402.433831 
L 366.3504 382.169221 
L 320.742 382.169221 
z
" style="fill:#ffffff;"/>
    </g>
    <g id="text_26">
     <!-- 5.0 -->
     <g transform="translate(345.091279 395.19887)scale(0.105 -0.105)">
      <use xlink:href="#DejaVuSans-35"/>
      <use x="63.623047" xlink:href="#DejaVuSans-2e"/>
      <use x="95.410156" xlink:href="#DejaVuSans-30"/>
     </g>
    </g>
    <g id="patch_29">
     <path d="M 366.3504 402.433831 
L 411.9588 402.433831 
L 411.9588 382.169221 
L 366.3504 382.169221 
z
" style="fill:#ffffff;"/>
    </g>
    <g id="text_27">
     <!-- 4.2 -->
     <g transform="translate(390.699679 395.19887)scale(0.105 -0.105)">
      <use xlink:href="#DejaVuSans-34"/>
      <use x="63.623047" xlink:href="#DejaVuSans-2e"/>
      <use x="95.410156" xlink:href="#DejaVuSans-32"/>
     </g>
    </g>
    <g id="patch_30">
     <path d="M 411.9588 402.433831 
L 457.5672 402.433831 
L 457.5672 382.169221 
L 411.9588 382.169221 
z
" style="fill:#ffffff;"/>
    </g>
    <g id="text_28">
     <!-- 2.8 -->
     <g transform="translate(436.308079 395.19887)scale(0.105 -0.105)">
      <use xlink:href="#DejaVuSans-32"/>
      <use x="63.623047" xlink:href="#DejaVuSans-2e"/>
      <use x="95.410156" xlink:href="#DejaVuSans-38"/>
     </g>
    </g>
    <g id="patch_31">
     <path d="M 457.5672 402.433831 
L 503.1756 402.433831 
L 503.1756 382.169221 
L 457.5672 382.169221 
z
" style="fill:#ffffff;"/>
    </g>
    <g id="text_29">
     <!-- 6.6 -->
     <g transform="translate(481.916479 395.19887)scale(0.105 -0.105)">
      <use xlink:href="#DejaVuSans-36"/>
      <use x="63.623047" xlink:href="#DejaVuSans-2e"/>
      <use x="95.410156" xlink:href="#DejaVuSans-36"/>
     </g>
    </g>
    <g id="patch_32">
     <path d="M 503.1756 402.433831 
L 548.784 402.433831 
L 548.784 382.169221 
L 503.1756 382.169221 
z
" style="fill:#ffffff;"/>
    </g>
    <g id="text_30">
     <!-- 10.1 -->
     <g transform="translate(520.844254 395.19887)scale(0.105 -0.105)">
      <use xlink:href="#DejaVuSans-31"/>
      <use x="63.623047" xlink:href="#DejaVuSans-30"/>
      <use x="127.246094" xlink:href="#DejaVuSans-2e"/>
      <use x="159.033203" xlink:href="#DejaVuSans-31"/>
     </g>
    </g>
    <g id="patch_33">
     <path d="M 92.7 422.698442 
L 138.3084 422.698442 
L 138.3084 402.433831 
L 92.7 402.433831 
z
" style="fill:#ffffff;"/>
    </g>
    <g id="text_31">
     <!-- nan -->
     <g transform="translate(114.004279 415.46348)scale(0.105 -0.105)">
      <use xlink:href="#DejaVuSans-6e"/>
      <use x="63.378906" xlink:href="#DejaVuSans-61"/>
      <use x="124.658203" xlink:href="#DejaVuSans-6e"/>
     </g>
    </g>
    <g id="patch_34">
     <path d="M 138.3084 422.698442 
L 183.9168 422.698442 
L 183.9168 402.433831 
L 138.3084 402.433831 
z
" style="fill:#ffffff;"/>
    </g>
    <g id="text_32">
     <!-- -17.7 -->
     <g transform="translate(152.188851 415.46348)scale(0.105 -0.105)">
      <use xlink:href="#DejaVuSans-2d"/>
      <use x="36.083984" xlink:href="#DejaVuSans-31"/>
      <use x="99.707031" xlink:href="#DejaVuSans-37"/>
      <use x="163.330078" xlink:href="#DejaVuSans-2e"/>
      <use x="195.117188" xlink:href="#DejaVuSans-37"/>
     </g>
    </g>
    <g id="patch_35">
     <path d="M 183.9168 422.698442 
L 229.5252 422.698442 
L 229.5252 402.433831 
L 183.9168 402.433831 
z
" style="fill:#ffffff;"/>
    </g>
    <g id="text_33">
     <!-- -2.5 -->
     <g transform="translate(204.477876 415.46348)scale(0.105 -0.105)">
      <use xlink:href="#DejaVuSans-2d"/>
      <use x="36.083984" xlink:href="#DejaVuSans-32"/>
      <use x="99.707031" xlink:href="#DejaVuSans-2e"/>
      <use x="131.494141" xlink:href="#DejaVuSans-35"/>
     </g>
    </g>
    <g id="patch_36">
     <path d="M 229.5252 422.698442 
L 275.1336 422.698442 
L 275.1336 402.433831 
L 229.5252 402.433831 
z
" style="fill:#ffffff;"/>
    </g>
    <g id="text_34">
     <!-- 1.9 -->
     <g transform="translate(253.874479 415.46348)scale(0.105 -0.105)">
      <use xlink:href="#DejaVuSans-31"/>
      <use x="63.623047" xlink:href="#DejaVuSans-2e"/>
      <use x="95.410156" xlink:href="#DejaVuSans-39"/>
     </g>
    </g>
    <g id="patch_37">
     <path d="M 275.1336 422.698442 
L 320.742 422.698442 
L 320.742 402.433831 
L 275.1336 402.433831 
z
" style="fill:#ffffff;"/>
    </g>
    <g id="text_35">
     <!-- 3.1 -->
     <g transform="translate(299.482879 415.46348)scale(0.105 -0.105)">
      <use xlink:href="#DejaVuSans-33"/>
      <use x="63.623047" xlink:href="#DejaVuSans-2e"/>
      <use x="95.410156" xlink:href="#DejaVuSans-31"/>
     </g>
    </g>
    <g id="patch_38">
     <path d="M 320.742 422.698442 
L 366.3504 422.698442 
L 366.3504 402.433831 
L 320.742 402.433831 
z
" style="fill:#ffffff;"/>
    </g>
    <g id="text_36">
     <!-- 1.9 -->
     <g transform="translate(345.091279 415.46348)scale(0.105 -0.105)">
      <use xlink:href="#DejaVuSans-31"/>
      <use x="63.623047" xlink:href="#DejaVuSans-2e"/>
      <use x="95.410156" xlink:href="#DejaVuSans-39"/>
     </g>
    </g>
    <g id="patch_39">
     <path d="M 366.3504 422.698442 
L 411.9588 422.698442 
L 411.9588 402.433831 
L 366.3504 402.433831 
z
" style="fill:#ffffff;"/>
    </g>
    <g id="text_37">
     <!-- 2.2 -->
     <g transform="translate(390.699679 415.46348)scale(0.105 -0.105)">
      <use xlink:href="#DejaVuSans-32"/>
      <use x="63.623047" xlink:href="#DejaVuSans-2e"/>
      <use x="95.410156" xlink:href="#DejaVuSans-32"/>
     </g>
    </g>
    <g id="patch_40">
     <path d="M 411.9588 422.698442 
L 457.5672 422.698442 
L 457.5672 402.433831 
L 411.9588 402.433831 
z
" style="fill:#ffffff;"/>
    </g>
    <g id="text_38">
     <!-- -4.7 -->
     <g transform="translate(432.519876 415.46348)scale(0.105 -0.105)">
      <use xlink:href="#DejaVuSans-2d"/>
      <use x="36.083984" xlink:href="#DejaVuSans-34"/>
      <use x="99.707031" xlink:href="#DejaVuSans-2e"/>
      <use x="131.494141" xlink:href="#DejaVuSans-37"/>
     </g>
    </g>
    <g id="patch_41">
     <path d="M 457.5672 422.698442 
L 503.1756 422.698442 
L 503.1756 402.433831 
L 457.5672 402.433831 
z
" style="fill:#ffffff;"/>
    </g>
    <g id="text_39">
     <!-- 3.8 -->
     <g transform="translate(481.916479 415.46348)scale(0.105 -0.105)">
      <use xlink:href="#DejaVuSans-33"/>
      <use x="63.623047" xlink:href="#DejaVuSans-2e"/>
      <use x="95.410156" xlink:href="#DejaVuSans-38"/>
     </g>
    </g>
    <g id="patch_42">
     <path d="M 503.1756 422.698442 
L 548.784 422.698442 
L 548.784 402.433831 
L 503.1756 402.433831 
z
" style="fill:#ffffff;"/>
    </g>
    <g id="text_40">
     <!-- 4.6 -->
     <g transform="translate(527.524879 415.46348)scale(0.105 -0.105)">
      <use xlink:href="#DejaVuSans-34"/>
      <use x="63.623047" xlink:href="#DejaVuSans-2e"/>
      <use x="95.410156" xlink:href="#DejaVuSans-36"/>
     </g>
    </g>
    <g id="patch_43">
     <path d="M 92.7 442.963052 
L 138.3084 442.963052 
L 138.3084 422.698442 
L 92.7 422.698442 
z
" style="fill:#ffffff;"/>
    </g>
    <g id="text_41">
     <!-- -5.0 -->
     <g transform="translate(113.261076 435.728091)scale(0.105 -0.105)">
      <use xlink:href="#DejaVuSans-2d"/>
      <use x="36.083984" xlink:href="#DejaVuSans-35"/>
      <use x="99.707031" xlink:href="#DejaVuSans-2e"/>
      <use x="131.494141" xlink:href="#DejaVuSans-30"/>
     </g>
    </g>
    <g id="patch_44">
     <path d="M 138.3084 442.963052 
L 183.9168 442.963052 
L 183.9168 422.698442 
L 138.3084 422.698442 
z
" style="fill:#ffffff;"/>
    </g>
    <g id="text_42">
     <!-- -21.2 -->
     <g transform="translate(152.188851 435.728091)scale(0.105 -0.105)">
      <use xlink:href="#DejaVuSans-2d"/>
      <use x="36.083984" xlink:href="#DejaVuSans-32"/>
      <use x="99.707031" xlink:href="#DejaVuSans-31"/>
      <use x="163.330078" xlink:href="#DejaVuSans-2e"/>
      <use x="195.117188" xlink:href="#DejaVuSans-32"/>
     </g>
    </g>
    <g id="patch_45">
     <path d="M 183.9168 442.963052 
L 229.5252 442.963052 
L 229.5252 422.698442 
L 183.9168 422.698442 
z
" style="fill:#ffffff;"/>
    </g>
    <g id="text_43">
     <!-- -7.7 -->
     <g transform="translate(204.477876 435.728091)scale(0.105 -0.105)">
      <use xlink:href="#DejaVuSans-2d"/>
      <use x="36.083984" xlink:href="#DejaVuSans-37"/>
      <use x="99.707031" xlink:href="#DejaVuSans-2e"/>
      <use x="131.494141" xlink:href="#DejaVuSans-37"/>
     </g>
    </g>
    <g id="patch_46">
     <path d="M 229.5252 442.963052 
L 275.1336 442.963052 
L 275.1336 422.698442 
L 229.5252 422.698442 
z
" style="fill:#ffffff;"/>
    </g>
    <g id="text_44">
     <!-- -4.2 -->
     <g transform="translate(250.086276 435.728091)scale(0.105 -0.105)">
      <use xlink:href="#DejaVuSans-2d"/>
      <use x="36.083984" xlink:href="#DejaVuSans-34"/>
      <use x="99.707031" xlink:href="#DejaVuSans-2e"/>
      <use x="131.494141" xlink:href="#DejaVuSans-32"/>
     </g>
    </g>
    <g id="patch_47">
     <path d="M 275.1336 442.963052 
L 320.742 442.963052 
L 320.742 422.698442 
L 275.1336 422.698442 
z
" style="fill:#ffffff;"/>
    </g>
    <g id="text_45">
     <!-- 0.5 -->
     <g transform="translate(299.482879 435.728091)scale(0.105 -0.105)">
      <use xlink:href="#DejaVuSans-30"/>
      <use x="63.623047" xlink:href="#DejaVuSans-2e"/>
      <use x="95.410156" xlink:href="#DejaVuSans-35"/>
     </g>
    </g>
    <g id="patch_48">
     <path d="M 320.742 442.963052 
L 366.3504 442.963052 
L 366.3504 422.698442 
L 320.742 422.698442 
z
" style="fill:#ffffff;"/>
    </g>
    <g id="text_46">
     <!-- -1.0 -->
     <g transform="translate(341.303076 435.728091)scale(0.105 -0.105)">
      <use xlink:href="#DejaVuSans-2d"/>
      <use x="36.083984" xlink:href="#DejaVuSans-31"/>
      <use x="99.707031" xlink:href="#DejaVuSans-2e"/>
      <use x="131.494141" xlink:href="#DejaVuSans-30"/>
     </g>
    </g>
    <g id="patch_49">
     <path d="M 366.3504 442.963052 
L 411.9588 442.963052 
L 411.9588 422.698442 
L 366.3504 422.698442 
z
" style="fill:#ffffff;"/>
    </g>
    <g id="text_47">
     <!-- -1.6 -->
     <g transform="translate(386.911476 435.728091)scale(0.105 -0.105)">
      <use xlink:href="#DejaVuSans-2d"/>
      <use x="36.083984" xlink:href="#DejaVuSans-31"/>
      <use x="99.707031" xlink:href="#DejaVuSans-2e"/>
      <use x="131.494141" xlink:href="#DejaVuSans-36"/>
     </g>
    </g>
    <g id="patch_50">
     <path d="M 411.9588 442.963052 
L 457.5672 442.963052 
L 457.5672 422.698442 
L 411.9588 422.698442 
z
" style="fill:#ffffff;"/>
    </g>
    <g id="text_48">
     <!-- -9.9 -->
     <g transform="translate(432.519876 435.728091)scale(0.105 -0.105)">
      <use xlink:href="#DejaVuSans-2d"/>
      <use x="36.083984" xlink:href="#DejaVuSans-39"/>
      <use x="99.707031" xlink:href="#DejaVuSans-2e"/>
      <use x="131.494141" xlink:href="#DejaVuSans-39"/>
     </g>
    </g>
    <g id="patch_51">
     <path d="M 457.5672 442.963052 
L 503.1756 442.963052 
L 503.1756 422.698442 
L 457.5672 422.698442 
z
" style="fill:#ffffff;"/>
    </g>
    <g id="text_49">
     <!-- -1.0 -->
     <g transform="translate(478.128276 435.728091)scale(0.105 -0.105)">
      <use xlink:href="#DejaVuSans-2d"/>
      <use x="36.083984" xlink:href="#DejaVuSans-31"/>
      <use x="99.707031" xlink:href="#DejaVuSans-2e"/>
      <use x="131.494141" xlink:href="#DejaVuSans-30"/>
     </g>
    </g>
    <g id="patch_52">
     <path d="M 503.1756 442.963052 
L 548.784 442.963052 
L 548.784 422.698442 
L 503.1756 422.698442 
z
" style="fill:#ffffff;"/>
    </g>
    <g id="text_50">
     <!-- 3.4 -->
     <g transform="translate(527.524879 435.728091)scale(0.105 -0.105)">
      <use xlink:href="#DejaVuSans-33"/>
      <use x="63.623047" xlink:href="#DejaVuSans-2e"/>
      <use x="95.410156" xlink:href="#DejaVuSans-34"/>
     </g>
    </g>
    <g id="patch_53">
     <path d="M 92.7 463.227662 
L 138.3084 463.227662 
L 138.3084 442.963052 
L 92.7 442.963052 
z
" style="fill:#ffffff;"/>
    </g>
    <g id="text_51">
     <!-- 29.0 -->
     <g transform="translate(110.368654 455.992701)scale(0.105 -0.105)">
      <use xlink:href="#DejaVuSans-32"/>
      <use x="63.623047" xlink:href="#DejaVuSans-39"/>
      <use x="127.246094" xlink:href="#DejaVuSans-2e"/>
      <use x="159.033203" xlink:href="#DejaVuSans-30"/>
     </g>
    </g>
    <g id="patch_54">
     <path d="M 138.3084 463.227662 
L 183.9168 463.227662 
L 183.9168 442.963052 
L 138.3084 442.963052 
z
" style="fill:#ffffff;"/>
    </g>
    <g id="text_52">
     <!-- 29.0 -->
     <g transform="translate(155.977054 455.992701)scale(0.105 -0.105)">
      <use xlink:href="#DejaVuSans-32"/>
      <use x="63.623047" xlink:href="#DejaVuSans-39"/>
      <use x="127.246094" xlink:href="#DejaVuSans-2e"/>
      <use x="159.033203" xlink:href="#DejaVuSans-30"/>
     </g>
    </g>
    <g id="patch_55">
     <path d="M 183.9168 463.227662 
L 229.5252 463.227662 
L 229.5252 442.963052 
L 183.9168 442.963052 
z
" style="fill:#ffffff;"/>
    </g>
    <g id="text_53">
     <!-- 31.0 -->
     <g transform="translate(201.585454 455.992701)scale(0.105 -0.105)">
      <use xlink:href="#DejaVuSans-33"/>
      <use x="63.623047" xlink:href="#DejaVuSans-31"/>
      <use x="127.246094" xlink:href="#DejaVuSans-2e"/>
      <use x="159.033203" xlink:href="#DejaVuSans-30"/>
     </g>
    </g>
    <g id="patch_56">
     <path d="M 229.5252 463.227662 
L 275.1336 463.227662 
L 275.1336 442.963052 
L 229.5252 442.963052 
z
" style="fill:#ffffff;"/>
    </g>
    <g id="text_54">
     <!-- 33.0 -->
     <g transform="translate(247.193854 455.992701)scale(0.105 -0.105)">
      <use xlink:href="#DejaVuSans-33"/>
      <use x="63.623047" xlink:href="#DejaVuSans-33"/>
      <use x="127.246094" xlink:href="#DejaVuSans-2e"/>
      <use x="159.033203" xlink:href="#DejaVuSans-30"/>
     </g>
    </g>
    <g id="patch_57">
     <path d="M 275.1336 463.227662 
L 320.742 463.227662 
L 320.742 442.963052 
L 275.1336 442.963052 
z
" style="fill:#ffffff;"/>
    </g>
    <g id="text_55">
     <!-- 32.0 -->
     <g transform="translate(292.802254 455.992701)scale(0.105 -0.105)">
      <use xlink:href="#DejaVuSans-33"/>
      <use x="63.623047" xlink:href="#DejaVuSans-32"/>
      <use x="127.246094" xlink:href="#DejaVuSans-2e"/>
      <use x="159.033203" xlink:href="#DejaVuSans-30"/>
     </g>
    </g>
    <g id="patch_58">
     <path d="M 320.742 463.227662 
L 366.3504 463.227662 
L 366.3504 442.963052 
L 320.742 442.963052 
z
" style="fill:#ffffff;"/>
    </g>
    <g id="text_56">
     <!-- 32.0 -->
     <g transform="translate(338.410654 455.992701)scale(0.105 -0.105)">
      <use xlink:href="#DejaVuSans-33"/>
      <use x="63.623047" xlink:href="#DejaVuSans-32"/>
      <use x="127.246094" xlink:href="#DejaVuSans-2e"/>
      <use x="159.033203" xlink:href="#DejaVuSans-30"/>
     </g>
    </g>
    <g id="patch_59">
     <path d="M 366.3504 463.227662 
L 411.9588 463.227662 
L 411.9588 442.963052 
L 366.3504 442.963052 
z
" style="fill:#ffffff;"/>
    </g>
    <g id="text_57">
     <!-- 30.0 -->
     <g transform="translate(384.019054 455.992701)scale(0.105 -0.105)">
      <use xlink:href="#DejaVuSans-33"/>
      <use x="63.623047" xlink:href="#DejaVuSans-30"/>
      <use x="127.246094" xlink:href="#DejaVuSans-2e"/>
      <use x="159.033203" xlink:href="#DejaVuSans-30"/>
     </g>
    </g>
    <g id="patch_60">
     <path d="M 411.9588 463.227662 
L 457.5672 463.227662 
L 457.5672 442.963052 
L 411.9588 442.963052 
z
" style="fill:#ffffff;"/>
    </g>
    <g id="text_58">
     <!-- 32.0 -->
     <g transform="translate(429.627454 455.992701)scale(0.105 -0.105)">
      <use xlink:href="#DejaVuSans-33"/>
      <use x="63.623047" xlink:href="#DejaVuSans-32"/>
      <use x="127.246094" xlink:href="#DejaVuSans-2e"/>
      <use x="159.033203" xlink:href="#DejaVuSans-30"/>
     </g>
    </g>
    <g id="patch_61">
     <path d="M 457.5672 463.227662 
L 503.1756 463.227662 
L 503.1756 442.963052 
L 457.5672 442.963052 
z
" style="fill:#ffffff;"/>
    </g>
    <g id="text_59">
     <!-- 30.0 -->
     <g transform="translate(475.235854 455.992701)scale(0.105 -0.105)">
      <use xlink:href="#DejaVuSans-33"/>
      <use x="63.623047" xlink:href="#DejaVuSans-30"/>
      <use x="127.246094" xlink:href="#DejaVuSans-2e"/>
      <use x="159.033203" xlink:href="#DejaVuSans-30"/>
     </g>
    </g>
    <g id="patch_62">
     <path d="M 503.1756 463.227662 
L 548.784 463.227662 
L 548.784 442.963052 
L 503.1756 442.963052 
z
" style="fill:#ffffff;"/>
    </g>
    <g id="text_60">
     <!-- 27.0 -->
     <g transform="translate(520.844254 455.992701)scale(0.105 -0.105)">
      <use xlink:href="#DejaVuSans-32"/>
      <use x="63.623047" xlink:href="#DejaVuSans-37"/>
      <use x="127.246094" xlink:href="#DejaVuSans-2e"/>
      <use x="159.033203" xlink:href="#DejaVuSans-30"/>
     </g>
    </g>
   </g>
   <g id="table_2">
    <g id="patch_63">
     <path d="M 548.784 361.90461 
L 776.826 361.90461 
L 776.826 341.64 
L 548.784 341.64 
z
" style="fill:#ffffff;"/>
    </g>
    <g id="text_61">
     <!-- Sales Growth -->
     <defs>
      <path d="M 53.515625 70.515625 
L 53.515625 60.890625 
Q 47.90625 63.578125 42.921875 64.890625 
Q 37.9375 66.21875 33.296875 66.21875 
Q 25.25 66.21875 20.875 63.09375 
Q 16.5 59.96875 16.5 54.203125 
Q 16.5 49.359375 19.40625 46.890625 
Q 22.3125 44.4375 30.421875 42.921875 
L 36.375 41.703125 
Q 47.40625 39.59375 52.65625 34.296875 
Q 57.90625 29 57.90625 20.125 
Q 57.90625 9.515625 50.796875 4.046875 
Q 43.703125 -1.421875 29.984375 -1.421875 
Q 24.8125 -1.421875 18.96875 -0.25 
Q 13.140625 0.921875 6.890625 3.21875 
L 6.890625 13.375 
Q 12.890625 10.015625 18.65625 8.296875 
Q 24.421875 6.59375 29.984375 6.59375 
Q 38.421875 6.59375 43.015625 9.90625 
Q 47.609375 13.234375 47.609375 19.390625 
Q 47.609375 24.75 44.3125 27.78125 
Q 41.015625 30.8125 33.5 32.328125 
L 27.484375 33.5 
Q 16.453125 35.6875 11.515625 40.375 
Q 6.59375 45.0625 6.59375 53.421875 
Q 6.59375 63.09375 13.40625 68.65625 
Q 20.21875 74.21875 32.171875 74.21875 
Q 37.3125 74.21875 42.625 73.28125 
Q 47.953125 72.359375 53.515625 70.515625 
z
" id="DejaVuSans-53"/>
      <path d="M 9.421875 75.984375 
L 18.40625 75.984375 
L 18.40625 0 
L 9.421875 0 
z
" id="DejaVuSans-6c"/>
      <path d="M 56.203125 29.59375 
L 56.203125 25.203125 
L 14.890625 25.203125 
Q 15.484375 15.921875 20.484375 11.0625 
Q 25.484375 6.203125 34.421875 6.203125 
Q 39.59375 6.203125 44.453125 7.46875 
Q 49.3125 8.734375 54.109375 11.28125 
L 54.109375 2.78125 
Q 49.265625 0.734375 44.1875 -0.34375 
Q 39.109375 -1.421875 33.890625 -1.421875 
Q 20.796875 -1.421875 13.15625 6.1875 
Q 5.515625 13.8125 5.515625 26.8125 
Q 5.515625 40.234375 12.765625 48.109375 
Q 20.015625 56 32.328125 56 
Q 43.359375 56 49.78125 48.890625 
Q 56.203125 41.796875 56.203125 29.59375 
z
M 47.21875 32.234375 
Q 47.125 39.59375 43.09375 43.984375 
Q 39.0625 48.390625 32.421875 48.390625 
Q 24.90625 48.390625 20.390625 44.140625 
Q 15.875 39.890625 15.1875 32.171875 
z
" id="DejaVuSans-65"/>
      <path d="M 44.28125 53.078125 
L 44.28125 44.578125 
Q 40.484375 46.53125 36.375 47.5 
Q 32.28125 48.484375 27.875 48.484375 
Q 21.1875 48.484375 17.84375 46.4375 
Q 14.5 44.390625 14.5 40.28125 
Q 14.5 37.15625 16.890625 35.375 
Q 19.28125 33.59375 26.515625 31.984375 
L 29.59375 31.296875 
Q 39.15625 29.25 43.1875 25.515625 
Q 47.21875 21.78125 47.21875 15.09375 
Q 47.21875 7.46875 41.1875 3.015625 
Q 35.15625 -1.421875 24.609375 -1.421875 
Q 20.21875 -1.421875 15.453125 -0.5625 
Q 10.6875 0.296875 5.421875 2 
L 5.421875 11.28125 
Q 10.40625 8.6875 15.234375 7.390625 
Q 20.0625 6.109375 24.8125 6.109375 
Q 31.15625 6.109375 34.5625 8.28125 
Q 37.984375 10.453125 37.984375 14.40625 
Q 37.984375 18.0625 35.515625 20.015625 
Q 33.0625 21.96875 24.703125 23.78125 
L 21.578125 24.515625 
Q 13.234375 26.265625 9.515625 29.90625 
Q 5.8125 33.546875 5.8125 39.890625 
Q 5.8125 47.609375 11.28125 51.796875 
Q 16.75 56 26.8125 56 
Q 31.78125 56 36.171875 55.265625 
Q 40.578125 54.546875 44.28125 53.078125 
z
" id="DejaVuSans-73"/>
      <path id="DejaVuSans-20"/>
      <path d="M 59.515625 10.40625 
L 59.515625 29.984375 
L 43.40625 29.984375 
L 43.40625 38.09375 
L 69.28125 38.09375 
L 69.28125 6.78125 
Q 63.578125 2.734375 56.6875 0.65625 
Q 49.8125 -1.421875 42 -1.421875 
Q 24.90625 -1.421875 15.25 8.5625 
Q 5.609375 18.5625 5.609375 36.375 
Q 5.609375 54.25 15.25 64.234375 
Q 24.90625 74.21875 42 74.21875 
Q 49.125 74.21875 55.546875 72.453125 
Q 61.96875 70.703125 67.390625 67.28125 
L 67.390625 56.78125 
Q 61.921875 61.421875 55.765625 63.765625 
Q 49.609375 66.109375 42.828125 66.109375 
Q 29.4375 66.109375 22.71875 58.640625 
Q 16.015625 51.171875 16.015625 36.375 
Q 16.015625 21.625 22.71875 14.15625 
Q 29.4375 6.6875 42.828125 6.6875 
Q 48.046875 6.6875 52.140625 7.59375 
Q 56.25 8.5 59.515625 10.40625 
z
" id="DejaVuSans-47"/>
      <path d="M 41.109375 46.296875 
Q 39.59375 47.171875 37.8125 47.578125 
Q 36.03125 48 33.890625 48 
Q 26.265625 48 22.1875 43.046875 
Q 18.109375 38.09375 18.109375 28.8125 
L 18.109375 0 
L 9.078125 0 
L 9.078125 54.6875 
L 18.109375 54.6875 
L 18.109375 46.1875 
Q 20.953125 51.171875 25.484375 53.578125 
Q 30.03125 56 36.53125 56 
Q 37.453125 56 38.578125 55.875 
Q 39.703125 55.765625 41.0625 55.515625 
z
" id="DejaVuSans-72"/>
      <path d="M 30.609375 48.390625 
Q 23.390625 48.390625 19.1875 42.75 
Q 14.984375 37.109375 14.984375 27.296875 
Q 14.984375 17.484375 19.15625 11.84375 
Q 23.34375 6.203125 30.609375 6.203125 
Q 37.796875 6.203125 41.984375 11.859375 
Q 46.1875 17.53125 46.1875 27.296875 
Q 46.1875 37.015625 41.984375 42.703125 
Q 37.796875 48.390625 30.609375 48.390625 
z
M 30.609375 56 
Q 42.328125 56 49.015625 48.375 
Q 55.71875 40.765625 55.71875 27.296875 
Q 55.71875 13.875 49.015625 6.21875 
Q 42.328125 -1.421875 30.609375 -1.421875 
Q 18.84375 -1.421875 12.171875 6.21875 
Q 5.515625 13.875 5.515625 27.296875 
Q 5.515625 40.765625 12.171875 48.375 
Q 18.84375 56 30.609375 56 
z
" id="DejaVuSans-6f"/>
      <path d="M 4.203125 54.6875 
L 13.1875 54.6875 
L 24.421875 12.015625 
L 35.59375 54.6875 
L 46.1875 54.6875 
L 57.421875 12.015625 
L 68.609375 54.6875 
L 77.59375 54.6875 
L 63.28125 0 
L 52.6875 0 
L 40.921875 44.828125 
L 29.109375 0 
L 18.5 0 
z
" id="DejaVuSans-77"/>
      <path d="M 18.3125 70.21875 
L 18.3125 54.6875 
L 36.8125 54.6875 
L 36.8125 47.703125 
L 18.3125 47.703125 
L 18.3125 18.015625 
Q 18.3125 11.328125 20.140625 9.421875 
Q 21.96875 7.515625 27.59375 7.515625 
L 36.8125 7.515625 
L 36.8125 0 
L 27.59375 0 
Q 17.1875 0 13.234375 3.875 
Q 9.28125 7.765625 9.28125 18.015625 
L 9.28125 47.703125 
L 2.6875 47.703125 
L 2.6875 54.6875 
L 9.28125 54.6875 
L 9.28125 70.21875 
z
" id="DejaVuSans-74"/>
      <path d="M 54.890625 33.015625 
L 54.890625 0 
L 45.90625 0 
L 45.90625 32.71875 
Q 45.90625 40.484375 42.875 44.328125 
Q 39.84375 48.1875 33.796875 48.1875 
Q 26.515625 48.1875 22.3125 43.546875 
Q 18.109375 38.921875 18.109375 30.90625 
L 18.109375 0 
L 9.078125 0 
L 9.078125 75.984375 
L 18.109375 75.984375 
L 18.109375 46.1875 
Q 21.34375 51.125 25.703125 53.5625 
Q 30.078125 56 35.796875 56 
Q 45.21875 56 50.046875 50.171875 
Q 54.890625 44.34375 54.890625 33.015625 
z
" id="DejaVuSans-68"/>
     </defs>
     <g transform="translate(571.5882 354.669649)scale(0.105 -0.105)">
      <use xlink:href="#DejaVuSans-53"/>
      <use x="63.476562" xlink:href="#DejaVuSans-61"/>
      <use x="124.755859" xlink:href="#DejaVuSans-6c"/>
      <use x="152.539062" xlink:href="#DejaVuSans-65"/>
      <use x="214.0625" xlink:href="#DejaVuSans-73"/>
      <use x="266.162109" xlink:href="#DejaVuSans-20"/>
      <use x="297.949219" xlink:href="#DejaVuSans-47"/>
      <use x="375.439453" xlink:href="#DejaVuSans-72"/>
      <use x="416.521484" xlink:href="#DejaVuSans-6f"/>
      <use x="477.703125" xlink:href="#DejaVuSans-77"/>
      <use x="559.490234" xlink:href="#DejaVuSans-74"/>
      <use x="598.699219" xlink:href="#DejaVuSans-68"/>
     </g>
    </g>
    <g id="patch_64">
     <path d="M 548.784 382.169221 
L 776.826 382.169221 
L 776.826 361.90461 
L 548.784 361.90461 
z
" style="fill:#ffffff;"/>
    </g>
    <g id="text_62">
     <!-- Hilti -->
     <defs>
      <path d="M 9.8125 72.90625 
L 19.671875 72.90625 
L 19.671875 43.015625 
L 55.515625 43.015625 
L 55.515625 72.90625 
L 65.375 72.90625 
L 65.375 0 
L 55.515625 0 
L 55.515625 34.71875 
L 19.671875 34.71875 
L 19.671875 0 
L 9.8125 0 
z
" id="DejaVuSans-48"/>
      <path d="M 9.421875 54.6875 
L 18.40625 54.6875 
L 18.40625 0 
L 9.421875 0 
z
M 9.421875 75.984375 
L 18.40625 75.984375 
L 18.40625 64.59375 
L 9.421875 64.59375 
z
" id="DejaVuSans-69"/>
     </defs>
     <g transform="translate(571.5882 374.934259)scale(0.105 -0.105)">
      <use xlink:href="#DejaVuSans-48"/>
      <use x="75.195312" xlink:href="#DejaVuSans-69"/>
      <use x="102.978516" xlink:href="#DejaVuSans-6c"/>
      <use x="130.761719" xlink:href="#DejaVuSans-74"/>
      <use x="169.970703" xlink:href="#DejaVuSans-69"/>
     </g>
    </g>
    <g id="patch_65">
     <path d="M 548.784 402.433831 
L 776.826 402.433831 
L 776.826 382.169221 
L 548.784 382.169221 
z
" style="fill:#ffffff;"/>
    </g>
    <g id="text_63">
     <!-- 75-Percentile -->
     <defs>
      <path d="M 19.671875 64.796875 
L 19.671875 37.40625 
L 32.078125 37.40625 
Q 38.96875 37.40625 42.71875 40.96875 
Q 46.484375 44.53125 46.484375 51.125 
Q 46.484375 57.671875 42.71875 61.234375 
Q 38.96875 64.796875 32.078125 64.796875 
z
M 9.8125 72.90625 
L 32.078125 72.90625 
Q 44.34375 72.90625 50.609375 67.359375 
Q 56.890625 61.8125 56.890625 51.125 
Q 56.890625 40.328125 50.609375 34.8125 
Q 44.34375 29.296875 32.078125 29.296875 
L 19.671875 29.296875 
L 19.671875 0 
L 9.8125 0 
z
" id="DejaVuSans-50"/>
      <path d="M 48.78125 52.59375 
L 48.78125 44.1875 
Q 44.96875 46.296875 41.140625 47.34375 
Q 37.3125 48.390625 33.40625 48.390625 
Q 24.65625 48.390625 19.8125 42.84375 
Q 14.984375 37.3125 14.984375 27.296875 
Q 14.984375 17.28125 19.8125 11.734375 
Q 24.65625 6.203125 33.40625 6.203125 
Q 37.3125 6.203125 41.140625 7.25 
Q 44.96875 8.296875 48.78125 10.40625 
L 48.78125 2.09375 
Q 45.015625 0.34375 40.984375 -0.53125 
Q 36.96875 -1.421875 32.421875 -1.421875 
Q 20.0625 -1.421875 12.78125 6.34375 
Q 5.515625 14.109375 5.515625 27.296875 
Q 5.515625 40.671875 12.859375 48.328125 
Q 20.21875 56 33.015625 56 
Q 37.15625 56 41.109375 55.140625 
Q 45.0625 54.296875 48.78125 52.59375 
z
" id="DejaVuSans-63"/>
     </defs>
     <g transform="translate(571.5882 395.19887)scale(0.105 -0.105)">
      <use xlink:href="#DejaVuSans-37"/>
      <use x="63.623047" xlink:href="#DejaVuSans-35"/>
      <use x="127.246094" xlink:href="#DejaVuSans-2d"/>
      <use x="163.330078" xlink:href="#DejaVuSans-50"/>
      <use x="223.585938" xlink:href="#DejaVuSans-65"/>
      <use x="285.109375" xlink:href="#DejaVuSans-72"/>
      <use x="326.191406" xlink:href="#DejaVuSans-63"/>
      <use x="381.171875" xlink:href="#DejaVuSans-65"/>
      <use x="442.695312" xlink:href="#DejaVuSans-6e"/>
      <use x="506.074219" xlink:href="#DejaVuSans-74"/>
      <use x="545.283203" xlink:href="#DejaVuSans-69"/>
      <use x="573.066406" xlink:href="#DejaVuSans-6c"/>
      <use x="600.849609" xlink:href="#DejaVuSans-65"/>
     </g>
    </g>
    <g id="patch_66">
     <path d="M 548.784 422.698442 
L 776.826 422.698442 
L 776.826 402.433831 
L 548.784 402.433831 
z
" style="fill:#ffffff;"/>
    </g>
    <g id="text_64">
     <!-- Median -->
     <defs>
      <path d="M 45.40625 46.390625 
L 45.40625 75.984375 
L 54.390625 75.984375 
L 54.390625 0 
L 45.40625 0 
L 45.40625 8.203125 
Q 42.578125 3.328125 38.25 0.953125 
Q 33.9375 -1.421875 27.875 -1.421875 
Q 17.96875 -1.421875 11.734375 6.484375 
Q 5.515625 14.40625 5.515625 27.296875 
Q 5.515625 40.1875 11.734375 48.09375 
Q 17.96875 56 27.875 56 
Q 33.9375 56 38.25 53.625 
Q 42.578125 51.265625 45.40625 46.390625 
z
M 14.796875 27.296875 
Q 14.796875 17.390625 18.875 11.75 
Q 22.953125 6.109375 30.078125 6.109375 
Q 37.203125 6.109375 41.296875 11.75 
Q 45.40625 17.390625 45.40625 27.296875 
Q 45.40625 37.203125 41.296875 42.84375 
Q 37.203125 48.484375 30.078125 48.484375 
Q 22.953125 48.484375 18.875 42.84375 
Q 14.796875 37.203125 14.796875 27.296875 
z
" id="DejaVuSans-64"/>
     </defs>
     <g transform="translate(571.5882 415.46348)scale(0.105 -0.105)">
      <use xlink:href="#DejaVuSans-4d"/>
      <use x="86.279297" xlink:href="#DejaVuSans-65"/>
      <use x="147.802734" xlink:href="#DejaVuSans-64"/>
      <use x="211.279297" xlink:href="#DejaVuSans-69"/>
      <use x="239.0625" xlink:href="#DejaVuSans-61"/>
      <use x="300.341797" xlink:href="#DejaVuSans-6e"/>
     </g>
    </g>
    <g id="patch_67">
     <path d="M 548.784 442.963052 
L 776.826 442.963052 
L 776.826 422.698442 
L 548.784 422.698442 
z
" style="fill:#ffffff;"/>
    </g>
    <g id="text_65">
     <!-- 25-Percentile -->
     <g transform="translate(571.5882 435.728091)scale(0.105 -0.105)">
      <use xlink:href="#DejaVuSans-32"/>
      <use x="63.623047" xlink:href="#DejaVuSans-35"/>
      <use x="127.246094" xlink:href="#DejaVuSans-2d"/>
      <use x="163.330078" xlink:href="#DejaVuSans-50"/>
      <use x="223.585938" xlink:href="#DejaVuSans-65"/>
      <use x="285.109375" xlink:href="#DejaVuSans-72"/>
      <use x="326.191406" xlink:href="#DejaVuSans-63"/>
      <use x="381.171875" xlink:href="#DejaVuSans-65"/>
      <use x="442.695312" xlink:href="#DejaVuSans-6e"/>
      <use x="506.074219" xlink:href="#DejaVuSans-74"/>
      <use x="545.283203" xlink:href="#DejaVuSans-69"/>
      <use x="573.066406" xlink:href="#DejaVuSans-6c"/>
      <use x="600.849609" xlink:href="#DejaVuSans-65"/>
     </g>
    </g>
    <g id="patch_68">
     <path d="M 548.784 463.227662 
L 776.826 463.227662 
L 776.826 442.963052 
L 548.784 442.963052 
z
" style="fill:#ffffff;"/>
    </g>
    <g id="text_66">
     <!-- Count -->
     <defs>
      <path d="M 64.40625 67.28125 
L 64.40625 56.890625 
Q 59.421875 61.53125 53.78125 63.8125 
Q 48.140625 66.109375 41.796875 66.109375 
Q 29.296875 66.109375 22.65625 58.46875 
Q 16.015625 50.828125 16.015625 36.375 
Q 16.015625 21.96875 22.65625 14.328125 
Q 29.296875 6.6875 41.796875 6.6875 
Q 48.140625 6.6875 53.78125 8.984375 
Q 59.421875 11.28125 64.40625 15.921875 
L 64.40625 5.609375 
Q 59.234375 2.09375 53.4375 0.328125 
Q 47.65625 -1.421875 41.21875 -1.421875 
Q 24.65625 -1.421875 15.125 8.703125 
Q 5.609375 18.84375 5.609375 36.375 
Q 5.609375 53.953125 15.125 64.078125 
Q 24.65625 74.21875 41.21875 74.21875 
Q 47.75 74.21875 53.53125 72.484375 
Q 59.328125 70.75 64.40625 67.28125 
z
" id="DejaVuSans-43"/>
      <path d="M 8.5 21.578125 
L 8.5 54.6875 
L 17.484375 54.6875 
L 17.484375 21.921875 
Q 17.484375 14.15625 20.5 10.265625 
Q 23.53125 6.390625 29.59375 6.390625 
Q 36.859375 6.390625 41.078125 11.03125 
Q 45.3125 15.671875 45.3125 23.6875 
L 45.3125 54.6875 
L 54.296875 54.6875 
L 54.296875 0 
L 45.3125 0 
L 45.3125 8.40625 
Q 42.046875 3.421875 37.71875 1 
Q 33.40625 -1.421875 27.6875 -1.421875 
Q 18.265625 -1.421875 13.375 4.4375 
Q 8.5 10.296875 8.5 21.578125 
z
M 31.109375 56 
z
" id="DejaVuSans-75"/>
     </defs>
     <g transform="translate(571.5882 455.992701)scale(0.105 -0.105)">
      <use xlink:href="#DejaVuSans-43"/>
      <use x="69.824219" xlink:href="#DejaVuSans-6f"/>
      <use x="131.005859" xlink:href="#DejaVuSans-75"/>
      <use x="194.384766" xlink:href="#DejaVuSans-6e"/>
      <use x="257.763672" xlink:href="#DejaVuSans-74"/>
     </g>
    </g>
   </g>
   <g id="matplotlib.axis_1"/>
   <g id="matplotlib.axis_2">
    <g id="ytick_1">
     <g id="line2d_1">
      <defs>
       <path d="M 0 0 
L -3.5 0 
" id="m2538c65532" style="stroke:#000000;stroke-width:0.8;"/>
      </defs>
      <g>
       <use style="stroke:#000000;stroke-width:0.8;" x="92.7" xlink:href="#m2538c65532" y="309.251676"/>
      </g>
     </g>
     <g id="text_67">
      <!-- -20.0 -->
      <g transform="translate(58.532891 313.240855)scale(0.105 -0.105)">
       <use xlink:href="#DejaVuSans-2d"/>
       <use x="36.083984" xlink:href="#DejaVuSans-32"/>
       <use x="99.707031" xlink:href="#DejaVuSans-30"/>
       <use x="163.330078" xlink:href="#DejaVuSans-2e"/>
       <use x="195.117188" xlink:href="#DejaVuSans-30"/>
      </g>
     </g>
    </g>
    <g id="ytick_2">
     <g id="line2d_2">
      <g>
       <use style="stroke:#000000;stroke-width:0.8;" x="92.7" xlink:href="#m2538c65532" y="268.76627"/>
      </g>
     </g>
     <g id="text_68">
      <!-- -15.0 -->
      <g transform="translate(58.532891 272.75545)scale(0.105 -0.105)">
       <use xlink:href="#DejaVuSans-2d"/>
       <use x="36.083984" xlink:href="#DejaVuSans-31"/>
       <use x="99.707031" xlink:href="#DejaVuSans-35"/>
       <use x="163.330078" xlink:href="#DejaVuSans-2e"/>
       <use x="195.117188" xlink:href="#DejaVuSans-30"/>
      </g>
     </g>
    </g>
    <g id="ytick_3">
     <g id="line2d_3">
      <g>
       <use style="stroke:#000000;stroke-width:0.8;" x="92.7" xlink:href="#m2538c65532" y="228.280865"/>
      </g>
     </g>
     <g id="text_69">
      <!-- -10.0 -->
      <g transform="translate(58.532891 232.270045)scale(0.105 -0.105)">
       <use xlink:href="#DejaVuSans-2d"/>
       <use x="36.083984" xlink:href="#DejaVuSans-31"/>
       <use x="99.707031" xlink:href="#DejaVuSans-30"/>
       <use x="163.330078" xlink:href="#DejaVuSans-2e"/>
       <use x="195.117188" xlink:href="#DejaVuSans-30"/>
      </g>
     </g>
    </g>
    <g id="ytick_4">
     <g id="line2d_4">
      <g>
       <use style="stroke:#000000;stroke-width:0.8;" x="92.7" xlink:href="#m2538c65532" y="187.795459"/>
      </g>
     </g>
     <g id="text_70">
      <!-- -5.0 -->
      <g transform="translate(65.213516 191.784639)scale(0.105 -0.105)">
       <use xlink:href="#DejaVuSans-2d"/>
       <use x="36.083984" xlink:href="#DejaVuSans-35"/>
       <use x="99.707031" xlink:href="#DejaVuSans-2e"/>
       <use x="131.494141" xlink:href="#DejaVuSans-30"/>
      </g>
     </g>
    </g>
    <g id="ytick_5">
     <g id="line2d_5">
      <g>
       <use style="stroke:#000000;stroke-width:0.8;" x="92.7" xlink:href="#m2538c65532" y="147.310054"/>
      </g>
     </g>
     <g id="text_71">
      <!-- 0.0 -->
      <g transform="translate(69.001719 151.299234)scale(0.105 -0.105)">
       <use xlink:href="#DejaVuSans-30"/>
       <use x="63.623047" xlink:href="#DejaVuSans-2e"/>
       <use x="95.410156" xlink:href="#DejaVuSans-30"/>
      </g>
     </g>
    </g>
    <g id="ytick_6">
     <g id="line2d_6">
      <g>
       <use style="stroke:#000000;stroke-width:0.8;" x="92.7" xlink:href="#m2538c65532" y="106.824649"/>
      </g>
     </g>
     <g id="text_72">
      <!-- 5.0 -->
      <g transform="translate(69.001719 110.813828)scale(0.105 -0.105)">
       <use xlink:href="#DejaVuSans-35"/>
       <use x="63.623047" xlink:href="#DejaVuSans-2e"/>
       <use x="95.410156" xlink:href="#DejaVuSans-30"/>
      </g>
     </g>
    </g>
    <g id="ytick_7">
     <g id="line2d_7">
      <g>
       <use style="stroke:#000000;stroke-width:0.8;" x="92.7" xlink:href="#m2538c65532" y="66.339243"/>
      </g>
     </g>
     <g id="text_73">
      <!-- 10.0 -->
      <g transform="translate(62.321094 70.328423)scale(0.105 -0.105)">
       <use xlink:href="#DejaVuSans-31"/>
       <use x="63.623047" xlink:href="#DejaVuSans-30"/>
       <use x="127.246094" xlink:href="#DejaVuSans-2e"/>
       <use x="159.033203" xlink:href="#DejaVuSans-30"/>
      </g>
     </g>
    </g>
   </g>
   <g id="line2d_8">
    <path clip-path="url(#pcf553213a3)" d="M 113.431091 140.832389 
L 121.723527 139.471055 
L 130.937345 138.193928 
L 141.533236 136.955045 
L 156.736036 135.428598 
L 180.231273 133.069543 
L 190.827164 131.774411 
L 200.040982 130.428717 
L 208.333418 128.990284 
L 216.165164 127.405668 
L 223.996909 125.595738 
L 231.828655 123.556695 
L 239.6604 121.284745 
L 247.492145 118.77609 
L 255.323891 116.03123 
L 271.908764 110.1089 
L 277.437055 108.407118 
L 282.043964 107.19841 
L 286.190182 106.317169 
L 290.3364 105.669128 
L 294.021927 105.318082 
L 297.707455 105.205232 
L 301.392982 105.336947 
L 305.999891 105.737123 
L 316.595782 106.752185 
L 320.281309 106.842598 
L 323.506145 106.695304 
L 326.270291 106.35357 
L 329.034436 105.773431 
L 331.337891 105.080872 
L 333.641345 104.175113 
L 335.9448 103.0345 
L 338.248255 101.637379 
L 340.551709 99.962095 
L 342.855164 97.986992 
L 345.158618 95.693239 
L 347.922764 92.55589 
L 351.1476 88.487563 
L 355.293818 82.850754 
L 363.586255 71.456596 
L 366.811091 67.432252 
L 369.575236 64.347018 
L 371.878691 62.107694 
L 373.721455 60.574203 
L 375.564218 59.301486 
L 377.406982 58.318594 
L 378.789055 57.789098 
L 380.171127 57.451224 
L 381.5532 57.317229 
L 382.935273 57.399366 
L 384.317345 57.709893 
L 385.699418 58.261063 
L 387.081491 59.065133 
L 388.463564 60.134359 
L 389.845636 61.480995 
L 391.227709 63.112432 
L 393.070473 65.709014 
L 394.913236 68.750332 
L 396.756 72.196258 
L 399.059455 77.011513 
L 401.362909 82.317892 
L 404.127055 89.223477 
L 407.812582 99.121395 
L 412.880182 113.473483 
L 420.251236 134.303823 
L 423.936764 143.996556 
L 426.700909 150.686695 
L 429.004364 155.773233 
L 431.307818 160.332006 
L 433.150582 163.546366 
L 434.993345 166.332668 
L 436.836109 168.652026 
L 438.218182 170.077402 
L 439.600255 171.24187 
L 440.982327 172.153667 
L 442.3644 172.821034 
L 443.746473 173.25221 
L 445.128545 173.455434 
L 446.510618 173.438944 
L 447.892691 173.210982 
L 449.274764 172.779784 
L 450.656836 172.153592 
L 452.4996 171.029583 
L 454.342364 169.593094 
L 456.185127 167.863655 
L 458.027891 165.860795 
L 460.331345 163.002475 
L 462.6348 159.785596 
L 465.398945 155.505751 
L 468.163091 150.830423 
L 471.387927 144.963962 
L 475.534145 136.930678 
L 481.523127 124.774305 
L 489.815564 107.999163 
L 493.961782 100.130663 
L 497.186618 94.443635 
L 499.950764 89.957809 
L 502.714909 85.900423 
L 505.018364 82.894102 
L 507.321818 80.269228 
L 509.164582 78.469602 
L 511.007345 76.958045 
L 512.850109 75.754085 
L 514.692873 74.877254 
L 516.074945 74.446056 
L 517.457018 74.218093 
L 518.839091 74.201604 
L 520.221164 74.404828 
L 521.603236 74.836003 
L 522.985309 75.50337 
L 524.367382 76.415168 
L 525.749455 77.579635 
L 527.131527 79.005012 
L 527.592218 79.539541 
L 527.592218 79.539541 
" style="fill:none;stroke:#ff7802;stroke-linecap:square;stroke-width:2;"/>
   </g>
   <g id="line2d_9">
    <path clip-path="url(#pcf553213a3)" d="M 113.431091 115.731438 
L 115.734545 138.672325 
L 118.038 159.450383 
L 120.341455 178.141516 
L 122.644909 194.82163 
L 124.487673 206.768794 
L 126.330436 217.516349 
L 128.1732 227.103156 
L 130.015964 235.568079 
L 131.858727 242.949981 
L 133.701491 249.287725 
L 135.083564 253.379184 
L 136.465636 256.92156 
L 137.847709 259.931248 
L 139.229782 262.424645 
L 140.611855 264.418145 
L 141.993927 265.928144 
L 142.915309 266.674295 
L 143.836691 267.217701 
L 144.758073 267.563221 
L 145.679455 267.715711 
L 146.600836 267.680031 
L 147.522218 267.461038 
L 148.4436 267.063589 
L 149.825673 266.14344 
L 151.207745 264.849092 
L 152.589818 263.196942 
L 153.971891 261.203383 
L 155.353964 258.884813 
L 157.196727 255.31615 
L 159.039491 251.237697 
L 161.342945 245.481947 
L 163.6464 239.06628 
L 166.410545 230.603264 
L 169.174691 221.430434 
L 172.399527 210.006659 
L 176.545745 194.496843 
L 192.209236 134.955722 
L 195.434073 123.963372 
L 198.198218 115.256482 
L 200.501673 108.605187 
L 202.805127 102.584356 
L 204.647891 98.272632 
L 206.490655 94.450467 
L 208.333418 91.12362 
L 210.176182 88.266121 
L 212.018945 85.850622 
L 213.861709 83.849777 
L 215.704473 82.236238 
L 217.547236 80.982656 
L 219.39 80.061685 
L 221.232764 79.445976 
L 223.075527 79.108182 
L 224.918291 79.020955 
L 226.761055 79.156948 
L 228.603818 79.488812 
L 230.907273 80.137424 
L 233.671418 81.188134 
L 236.896255 82.672855 
L 247.031455 87.563913 
L 249.7956 88.538269 
L 252.099055 89.103363 
L 254.402509 89.409621 
L 256.705964 89.476274 
L 259.009418 89.329332 
L 261.773564 88.907678 
L 264.537709 88.260845 
L 267.762545 87.281565 
L 271.908764 85.776879 
L 284.347418 81.054389 
L 287.572255 80.133911 
L 290.3364 79.552716 
L 293.100545 79.210766 
L 295.404 79.140988 
L 297.707455 79.294573 
L 300.010909 79.689717 
L 302.314364 80.313366 
L 304.617818 81.144652 
L 307.381964 82.386895 
L 310.146109 83.862029 
L 313.370945 85.829259 
L 317.056473 88.332123 
L 322.124073 92.065799 
L 334.102036 101.031525 
L 337.787564 103.489432 
L 341.0124 105.404213 
L 343.776545 106.824649 
L 346.540691 108.013168 
L 349.304836 108.983541 
L 352.529673 109.871595 
L 355.754509 110.532721 
L 359.440036 111.058775 
L 363.586255 111.425196 
L 369.114545 111.676366 
L 381.092509 112.140268 
L 385.238727 112.546386 
L 388.924255 113.120489 
L 392.149091 113.828783 
L 395.834618 114.8566 
L 400.441527 116.381546 
L 407.812582 119.100412 
L 415.183636 121.742801 
L 419.329855 123.015447 
L 423.015382 123.929903 
L 426.240218 124.513486 
L 429.465055 124.852852 
L 432.2292 124.918906 
L 434.993345 124.750717 
L 437.757491 124.325054 
L 440.521636 123.642741 
L 443.285782 122.720123 
L 446.049927 121.573804 
L 449.274764 119.975848 
L 452.4996 118.122373 
L 456.185127 115.725059 
L 459.870655 113.0678 
L 464.016873 109.816669 
L 469.084473 105.545662 
L 475.534145 99.789147 
L 493.501091 83.554018 
L 498.568691 79.372849 
L 502.714909 76.218193 
L 506.400436 73.664043 
L 510.085964 71.386174 
L 513.3108 69.650613 
L 516.535636 68.183076 
L 519.299782 67.158498 
L 522.063927 66.36681 
L 524.828073 65.824614 
L 527.131527 65.575348 
L 527.592218 65.548515 
L 527.592218 65.548515 
" style="fill:none;stroke:#2a90ac;stroke-dasharray:7.4,3.2;stroke-dashoffset:0;stroke-width:2;"/>
   </g>
   <g id="line2d_10">
    <path clip-path="url(#pcf553213a3)" d="M 113.431091 290.628389 
L 115.273855 296.614901 
L 117.116618 301.960802 
L 118.959382 306.684581 
L 120.802145 310.804724 
L 122.644909 314.339718 
L 124.487673 317.30805 
L 125.869745 319.173549 
L 127.251818 320.738498 
L 128.633891 322.010698 
L 130.015964 322.997947 
L 131.398036 323.708045 
L 132.780109 324.14879 
L 134.162182 324.327982 
L 135.544255 324.253421 
L 136.926327 323.932905 
L 138.3084 323.374234 
L 139.690473 322.585207 
L 141.072545 321.573623 
L 142.915309 319.892125 
L 144.758073 317.847322 
L 146.600836 315.457702 
L 148.4436 312.741752 
L 150.747055 308.916076 
L 153.050509 304.645503 
L 155.814655 298.984389 
L 158.5788 292.797012 
L 161.803636 284.996505 
L 165.489164 275.435622 
L 169.635382 264.032738 
L 175.163673 248.115254 
L 189.905782 205.273976 
L 194.052 194.062976 
L 197.737527 184.727367 
L 200.962364 177.166215 
L 203.726509 171.215375 
L 206.490655 165.819136 
L 208.794109 161.765697 
L 211.097564 158.095016 
L 213.401018 154.784449 
L 215.704473 151.811353 
L 218.007927 149.153081 
L 220.311382 146.786991 
L 222.614836 144.690438 
L 225.378982 142.498479 
L 228.143127 140.622915 
L 230.907273 139.024618 
L 233.671418 137.664456 
L 236.896255 136.326376 
L 240.581782 135.049112 
L 245.649382 133.567655 
L 255.784582 130.690628 
L 276.976364 124.229664 
L 281.583273 123.19579 
L 285.729491 122.501748 
L 289.415018 122.11359 
L 292.639855 121.978518 
L 295.864691 122.058283 
L 299.089527 122.374849 
L 302.314364 122.921877 
L 305.999891 123.777245 
L 310.6068 125.098861 
L 317.977855 127.504837 
L 324.888218 129.692632 
L 329.034436 130.795474 
L 332.719964 131.55383 
L 335.9448 131.994019 
L 338.708945 132.17158 
L 341.473091 132.136526 
L 344.237236 131.862166 
L 347.001382 131.342332 
L 350.226218 130.485025 
L 354.372436 129.112238 
L 365.889709 125.092428 
L 369.114545 124.278867 
L 371.878691 123.808418 
L 374.182145 123.615862 
L 376.4856 123.636572 
L 378.789055 123.900471 
L 380.631818 124.306794 
L 382.474582 124.903227 
L 384.317345 125.705092 
L 386.160109 126.727708 
L 388.002873 127.986396 
L 389.845636 129.496476 
L 391.6884 131.26633 
L 393.991855 133.813639 
L 396.295309 136.685212 
L 399.059455 140.48679 
L 402.284291 145.300185 
L 406.8912 152.615195 
L 415.183636 165.87459 
L 418.869164 171.292851 
L 421.633309 174.980674 
L 423.936764 177.736168 
L 426.240218 180.148054 
L 428.082982 181.79564 
L 429.925745 183.164132 
L 431.768509 184.227227 
L 433.150582 184.808308 
L 434.532655 185.191709 
L 435.914727 185.366335 
L 437.2968 185.324317 
L 438.678873 185.070706 
L 440.060945 184.613781 
L 441.443018 183.961822 
L 443.285782 182.803468 
L 445.128545 181.33273 
L 446.971309 179.569236 
L 448.814073 177.532611 
L 451.117527 174.632636 
L 453.420982 171.374891 
L 456.185127 167.047309 
L 459.409964 161.50545 
L 463.095491 154.650561 
L 467.7024 145.529936 
L 483.826582 113.0439 
L 487.051418 107.222787 
L 490.276255 101.872462 
L 493.0404 97.740906 
L 495.343855 94.668978 
L 497.647309 91.97524 
L 499.490073 90.118305 
L 501.332836 88.54757 
L 503.1756 87.282661 
L 505.018364 86.343202 
L 506.400436 85.863992 
L 507.782509 85.587166 
L 509.164582 85.521006 
L 510.546655 85.673789 
L 511.928727 86.053797 
L 513.3108 86.669308 
L 514.692873 87.528601 
L 516.074945 88.639958 
L 517.457018 90.011657 
L 518.839091 91.651977 
L 520.221164 93.569199 
L 522.063927 96.57054 
L 523.906691 100.098495 
L 525.749455 104.17269 
L 527.592218 108.81275 
L 527.592218 108.81275 
" style="fill:none;stroke:#2a90ac;stroke-linecap:square;stroke-width:2;"/>
   </g>
   <g id="line2d_11">
    <path clip-path="url(#pcf553213a3)" d="M 113.431091 187.795459 
L 115.734545 206.95249 
L 118.038 224.448788 
L 120.341455 240.340115 
L 122.644909 254.682238 
L 124.948364 267.53092 
L 127.251818 278.941927 
L 129.094582 287.073079 
L 130.937345 294.34836 
L 132.780109 300.79632 
L 134.622873 306.445511 
L 136.465636 311.324484 
L 138.3084 315.461791 
L 139.690473 318.095229 
L 141.072545 320.339584 
L 142.454618 322.206903 
L 143.836691 323.70923 
L 145.218764 324.858611 
L 146.600836 325.66709 
L 147.982909 326.146714 
L 149.364982 326.309526 
L 150.747055 326.167572 
L 152.129127 325.732897 
L 153.5112 325.017547 
L 154.893273 324.033566 
L 156.275345 322.792999 
L 157.657418 321.307892 
L 159.500182 318.968173 
L 161.342945 316.24368 
L 163.185709 313.162965 
L 165.489164 308.854631 
L 167.792618 304.090077 
L 170.556764 297.848917 
L 173.7816 289.967289 
L 177.467127 280.355513 
L 182.995418 265.21125 
L 191.748545 241.157598 
L 195.894764 230.481048 
L 199.1196 222.787321 
L 201.883745 216.745286 
L 204.1872 212.173512 
L 206.490655 208.081365 
L 208.794109 204.48484 
L 211.097564 201.349573 
L 213.401018 198.637831 
L 215.704473 196.311882 
L 218.007927 194.333994 
L 220.311382 192.666436 
L 222.614836 191.271475 
L 224.918291 190.111379 
L 227.682436 188.976161 
L 230.907273 187.923537 
L 235.053491 186.840883 
L 243.345927 184.757938 
L 246.570764 183.678222 
L 249.334909 182.510902 
L 251.638364 181.317795 
L 253.941818 179.894943 
L 256.705964 177.908211 
L 259.9308 175.264536 
L 263.616327 171.904756 
L 268.223236 167.360265 
L 281.583273 153.939078 
L 285.2688 150.676878 
L 288.493636 148.145835 
L 291.257782 146.275887 
L 293.561236 144.96463 
L 295.864691 143.906906 
L 298.168145 143.129792 
L 300.4716 142.645365 
L 302.775055 142.432232 
L 305.078509 142.464474 
L 307.381964 142.716169 
L 310.146109 143.271386 
L 312.910255 144.060499 
L 316.135091 145.216996 
L 320.281309 146.967668 
L 334.102036 153.08613 
L 337.326873 154.164638 
L 340.091018 154.868011 
L 342.855164 155.32005 
L 345.158618 155.474578 
L 347.922764 155.405043 
L 350.686909 155.11107 
L 354.372436 154.469785 
L 361.2828 152.945169 
L 365.889709 152.062865 
L 369.114545 151.678758 
L 371.878691 151.582512 
L 374.182145 151.710705 
L 376.4856 152.063996 
L 378.789055 152.675802 
L 380.631818 153.373834 
L 382.474582 154.275812 
L 384.317345 155.398847 
L 386.160109 156.760047 
L 388.002873 158.376523 
L 389.845636 160.265384 
L 391.6884 162.43615 
L 393.991855 165.513402 
L 396.295309 168.94305 
L 399.059455 173.445612 
L 402.284291 179.110909 
L 406.8912 187.684981 
L 415.644327 204.065573 
L 418.869164 209.645162 
L 421.633309 214.04773 
L 423.936764 217.375343 
L 426.240218 220.333555 
L 428.082982 222.396846 
L 429.925745 224.159757 
L 431.768509 225.593863 
L 433.150582 226.436562 
L 434.532655 227.066324 
L 435.914727 227.471157 
L 437.2968 227.642414 
L 438.678873 227.58484 
L 440.060945 227.306526 
L 441.443018 226.815563 
L 442.825091 226.120044 
L 444.667855 224.888471 
L 446.510618 223.326806 
L 448.353382 221.454229 
L 450.196145 219.28992 
L 452.4996 216.203504 
L 454.803055 212.728685 
L 457.5672 208.098955 
L 460.331345 203.0286 
L 463.556182 196.642643 
L 467.241709 188.84978 
L 472.309309 177.544531 
L 486.590727 145.259969 
L 490.276255 137.605969 
L 493.501091 131.37797 
L 496.265236 126.470085 
L 499.029382 122.027821 
L 501.332836 118.728317 
L 503.636291 115.834574 
L 505.479055 113.836901 
L 507.321818 112.142069 
L 509.164582 110.769258 
L 511.007345 109.737649 
L 512.389418 109.199392 
L 513.771491 108.871942 
L 515.153564 108.763388 
L 516.535636 108.881824 
L 517.917709 109.235339 
L 519.299782 109.832026 
L 520.681855 110.679976 
L 522.063927 111.787281 
L 523.446 113.162031 
L 524.828073 114.812319 
L 526.210145 116.746236 
L 527.592218 118.971874 
L 527.592218 118.971874 
" style="fill:none;stroke:#2a90ac;stroke-dasharray:7.4,3.2;stroke-dashoffset:0;stroke-width:2;"/>
   </g>
   <g id="line2d_12"/>
   <g id="line2d_13">
    <defs>
     <path d="M 0 2.5 
C 0.663008 2.5 1.29895 2.236584 1.767767 1.767767 
C 2.236584 1.29895 2.5 0.663008 2.5 0 
C 2.5 -0.663008 2.236584 -1.29895 1.767767 -1.767767 
C 1.29895 -2.236584 0.663008 -2.5 0 -2.5 
C -0.663008 -2.5 -1.29895 -2.236584 -1.767767 -1.767767 
C -2.236584 -1.29895 -2.5 -0.663008 -2.5 0 
C -2.5 0.663008 -2.236584 1.29895 -1.767767 1.767767 
C -1.29895 2.236584 -0.663008 2.5 0 2.5 
z
" id="md7d8e80b98" style="stroke:#ff6100;"/>
    </defs>
    <g clip-path="url(#pcf553213a3)">
     <use style="fill:#ff6100;stroke:#ff6100;" x="113.431091" xlink:href="#md7d8e80b98" y="140.832389"/>
     <use style="fill:#ff6100;stroke:#ff6100;" x="205.569273" xlink:href="#md7d8e80b98" y="129.496476"/>
     <use style="fill:#ff6100;stroke:#ff6100;" x="297.707455" xlink:href="#md7d8e80b98" y="105.205232"/>
     <use style="fill:#ff6100;stroke:#ff6100;" x="343.776545" xlink:href="#md7d8e80b98" y="97.108151"/>
     <use style="fill:#ff6100;stroke:#ff6100;" x="389.845636" xlink:href="#md7d8e80b98" y="61.480995"/>
     <use style="fill:#ff6100;stroke:#ff6100;" x="435.914727" xlink:href="#md7d8e80b98" y="167.552757"/>
     <use style="fill:#ff6100;stroke:#ff6100;" x="528.052909" xlink:href="#md7d8e80b98" y="80.104281"/>
    </g>
   </g>
   <g id="patch_69">
    <path d="M 92.7 341.64 
L 92.7 42.048 
" style="fill:none;stroke:#000000;stroke-linecap:square;stroke-linejoin:miter;stroke-width:0.8;"/>
   </g>
   <g id="patch_70">
    <path d="M 92.7 341.64 
L 548.784 341.64 
" style="fill:none;stroke:#000000;stroke-linecap:square;stroke-linejoin:miter;stroke-width:0.8;"/>
   </g>
   <g id="text_74">
    <!-- 0.8 -->
    <g transform="translate(96.73281 138.648717)scale(0.105 -0.105)">
     <use xlink:href="#DejaVuSans-30"/>
     <use x="63.623047" xlink:href="#DejaVuSans-2e"/>
     <use x="95.410156" xlink:href="#DejaVuSans-38"/>
    </g>
   </g>
   <g id="text_75">
    <!-- 2.2 -->
    <g transform="translate(188.870991 127.312804)scale(0.105 -0.105)">
     <use xlink:href="#DejaVuSans-32"/>
     <use x="63.623047" xlink:href="#DejaVuSans-2e"/>
     <use x="95.410156" xlink:href="#DejaVuSans-32"/>
    </g>
   </g>
   <g id="text_76">
    <!-- 5.2 -->
    <g transform="translate(281.009173 103.021561)scale(0.105 -0.105)">
     <use xlink:href="#DejaVuSans-35"/>
     <use x="63.623047" xlink:href="#DejaVuSans-2e"/>
     <use x="95.410156" xlink:href="#DejaVuSans-32"/>
    </g>
   </g>
   <g id="text_77">
    <!-- 6.2 -->
    <g transform="translate(327.078264 94.924479)scale(0.105 -0.105)">
     <use xlink:href="#DejaVuSans-36"/>
     <use x="63.623047" xlink:href="#DejaVuSans-2e"/>
     <use x="95.410156" xlink:href="#DejaVuSans-32"/>
    </g>
   </g>
   <g id="text_78">
    <!-- 10.6 -->
    <g transform="translate(366.46673 59.297323)scale(0.105 -0.105)">
     <use xlink:href="#DejaVuSans-31"/>
     <use x="63.623047" xlink:href="#DejaVuSans-30"/>
     <use x="127.246094" xlink:href="#DejaVuSans-2e"/>
     <use x="159.033203" xlink:href="#DejaVuSans-36"/>
    </g>
   </g>
   <g id="text_79">
    <!-- -2.5 -->
    <g transform="translate(415.428243 165.369085)scale(0.105 -0.105)">
     <use xlink:href="#DejaVuSans-2d"/>
     <use x="36.083984" xlink:href="#DejaVuSans-32"/>
     <use x="99.707031" xlink:href="#DejaVuSans-2e"/>
     <use x="131.494141" xlink:href="#DejaVuSans-35"/>
    </g>
   </g>
   <g id="text_80">
    <!-- 8.3 -->
    <g transform="translate(511.354628 77.920609)scale(0.105 -0.105)">
     <use xlink:href="#DejaVuSans-38"/>
     <use x="63.623047" xlink:href="#DejaVuSans-2e"/>
     <use x="95.410156" xlink:href="#DejaVuSans-33"/>
    </g>
   </g>
   <g id="text_81">
    <!-- Sales Growth -->
    <defs>
     <path d="M 43.703125 16.90625 
C 43.703125 26.40625 37.5 32.203125 31.203125 36.09375 
L 23.203125 41.09375 
C 19.5 43.40625 14.703125 47.59375 14.703125 53.40625 
C 14.703125 58 16.796875 64.5 26.59375 64.5 
C 36.203125 64.5 38.90625 58 40.203125 53.203125 
C 40.703125 52.59375 42.296875 52.90625 42.703125 53.5 
C 42.703125 57.703125 41.796875 63.296875 40.90625 65.703125 
C 40.09375 65.703125 38.703125 65.90625 37.40625 66.296875 
C 34.796875 67 31.203125 67.59375 28.09375 67.59375 
C 15.09375 67.59375 7.703125 59.90625 7.703125 50.40625 
C 7.703125 42.203125 13.5 36.5 18.5 33.203125 
L 28 27 
C 35.296875 22.296875 36.203125 17.40625 36.203125 13 
C 36.203125 7 32.09375 1.5 23.703125 1.5 
C 12.09375 1.5 8 11.296875 6.5 16.40625 
C 6.09375 17 4.59375 16.796875 4.09375 16.09375 
C 4.296875 11.40625 5.59375 4.296875 6.796875 2.09375 
C 8.703125 1 14 -1.59375 22.40625 -1.59375 
C 35.40625 -1.59375 43.703125 5.90625 43.703125 16.90625 
z
" id="AGaramondPro-Regular-53"/>
     <path d="M 11.796875 16.40625 
C 5.40625 14.09375 3.5 11.796875 3.5 7.90625 
C 3.5 5.09375 4.703125 2.59375 6.59375 0.90625 
C 8.296875 -0.59375 10.703125 -1.40625 13.59375 -1.40625 
C 16.40625 -1.40625 18.59375 -0.09375 20.796875 1.09375 
C 22.796875 2.203125 24 3.09375 24.703125 3.09375 
C 25.296875 3.09375 25.90625 2.296875 26.296875 1.703125 
C 28 -0.5 30.40625 -1.40625 32.796875 -1.40625 
C 37.703125 -1.40625 41.203125 2.5 41.203125 3 
C 41.203125 3.703125 40.90625 4.296875 40.5 4.296875 
C 40.203125 4.296875 39.703125 3.90625 39.203125 3.59375 
C 38.59375 3.296875 37.703125 3 36.703125 3 
C 32.796875 3 31.90625 7.09375 32.09375 11.703125 
L 32.703125 29.09375 
C 33 36.59375 29.5 40.796875 22.296875 40.796875 
C 15 40.796875 3.703125 33.703125 3.703125 28.5 
C 3.703125 27.59375 4.203125 27.09375 5.09375 27.09375 
C 6.59375 27.09375 9.296875 27.796875 10.796875 29 
C 11.59375 29.59375 11.703125 30.796875 11.796875 32.40625 
C 12 35.5 15.40625 36.90625 18.203125 36.90625 
C 24.40625 36.90625 25.59375 31.90625 25.5 28.203125 
L 25.40625 23.59375 
C 25.40625 22.09375 25.203125 21.203125 23.703125 20.703125 
z
M 11.203125 9.09375 
C 11.203125 13 14.09375 14.5 20 16.5 
C 21.796875 17.09375 23.5 17.5 24.09375 17.5 
C 24.703125 17.5 25.09375 17.296875 25.09375 16.203125 
L 24.90625 10.296875 
C 24.796875 8.203125 24.796875 6.796875 23.59375 5.59375 
C 22.59375 4.59375 19.5 3.09375 17.5 3.09375 
C 12.40625 3.09375 11.203125 7.40625 11.203125 9.09375 
z
" id="AGaramondPro-Regular-61"/>
     <path d="M 16.203125 58.5 
C 16.203125 62.90625 16.40625 67.90625 16.5 70.90625 
C 16.296875 71.296875 15.90625 71.5 15.5 71.5 
C 11.90625 69.59375 7.203125 68.09375 4.703125 67.296875 
C 4.203125 67 4.203125 65.59375 4.703125 65.296875 
L 5.703125 64.703125 
C 8.703125 62.90625 8.796875 62.296875 8.796875 56.40625 
L 8.796875 11.203125 
C 8.796875 4 8.703125 3 5 2.5 
L 2.703125 2.203125 
C 2 1.703125 2.203125 0 2.90625 -0.296875 
C 5.90625 -0.09375 8.90625 0 12.5 0 
C 16 0 18.90625 -0.09375 22.203125 -0.296875 
C 22.90625 0 23.09375 1.703125 22.40625 2.203125 
L 20 2.5 
C 16.40625 3 16.203125 4 16.203125 11.203125 
z
" id="AGaramondPro-Regular-6c"/>
     <path d="M 31.5 25.59375 
C 35.703125 25.59375 37.09375 25.703125 37.40625 26.296875 
C 37.59375 26.703125 37.796875 27.5 37.796875 28.90625 
C 37.796875 34.90625 32.203125 40.796875 23.59375 40.796875 
C 11.59375 40.796875 3.5 30.5 3.5 18.203125 
C 3.5 13.796875 4.703125 9.09375 7.703125 5.203125 
C 10.59375 1.40625 15.703125 -1.40625 22.203125 -1.40625 
C 27.40625 -1.40625 34.59375 1.09375 37.90625 7.90625 
C 37.796875 8.796875 37.09375 9.40625 36.09375 9.09375 
C 33 5.203125 30.203125 4.203125 26.90625 4.203125 
C 16.203125 4.203125 10.296875 12.796875 10.296875 22.90625 
C 10.296875 25.40625 10.40625 25.59375 13 25.59375 
z
M 12.09375 28.59375 
C 11.40625 28.59375 11.40625 28.90625 11.40625 29.09375 
C 11.5 32.40625 16.59375 37.796875 22.5 37.796875 
C 28.296875 37.796875 30.203125 34.296875 30.203125 31.5 
C 30.203125 30.203125 29.90625 29.796875 29.59375 29.59375 
C 28.796875 29 26.59375 28.59375 19.203125 28.59375 
z
" id="AGaramondPro-Regular-65"/>
     <path d="M 18.59375 40.796875 
C 11 40.796875 5 36.703125 5 29.40625 
C 5 23.90625 9.09375 20.40625 14.90625 17.09375 
C 18.59375 15 22.59375 12.5 22.59375 7.90625 
C 22.59375 3.59375 19.5 1.5 15.90625 1.5 
C 10.203125 1.5 7 6.296875 5.296875 11.796875 
C 4.796875 12.40625 3.5 12.296875 3 11.703125 
C 2.796875 8.40625 3.40625 3.5 4.203125 1.59375 
C 6.703125 -0.40625 10.203125 -1.40625 14.90625 -1.40625 
C 22.296875 -1.40625 29.296875 2.40625 29.296875 10 
C 29.296875 17.09375 24.40625 20.5 19.09375 23.5 
C 15.59375 25.5 11.40625 27.703125 11.40625 31.796875 
C 11.40625 35.40625 13.90625 37.90625 17.796875 37.90625 
C 21.90625 37.90625 24.90625 35 26.59375 30.59375 
C 27.09375 30 28.59375 30.203125 29 30.90625 
C 29 33.59375 28.296875 36.796875 27.40625 39 
C 26.5 39.796875 22.796875 40.796875 18.59375 40.796875 
z
" id="AGaramondPro-Regular-73"/>
     <path id="AGaramondPro-Regular-20"/>
     <path d="M 64.796875 15.796875 
C 64.796875 20.90625 64.90625 23.703125 69.09375 24.203125 
L 70.703125 24.40625 
C 71.40625 25 71.296875 26.5 70.59375 26.90625 
C 67.296875 26.703125 63.90625 26.59375 60 26.59375 
C 54.09375 26.59375 48.59375 26.703125 45.703125 26.90625 
C 45 26.59375 44.90625 24.796875 45.703125 24.40625 
L 50.09375 23.90625 
C 56.296875 23.203125 56.59375 22.59375 56.59375 14.203125 
L 56.59375 10.203125 
C 56.59375 7 56.09375 5.203125 55.59375 4.5 
C 54.5 2.796875 50.796875 1.5 44.59375 1.5 
C 24.5 1.5 14.59375 16.59375 14.59375 35.796875 
C 14.59375 50.796875 23.09375 64.59375 42.5 64.59375 
C 52.703125 64.59375 60.203125 61.203125 63 50.40625 
C 63.59375 49.796875 65.40625 49.90625 65.703125 50.703125 
C 64.796875 56.703125 64.203125 61.90625 64.203125 65.203125 
C 63 65 59.90625 65.703125 58 66.09375 
C 56.296875 66.5 51 67.59375 45.296875 67.59375 
C 30.203125 67.59375 20.296875 62.90625 13.59375 55.90625 
C 7.40625 49.296875 4.59375 40.703125 4.59375 32.203125 
C 4.59375 23.40625 7.796875 15.5 13.796875 9.5 
C 21.5 1.703125 32.40625 -1.59375 44.296875 -1.59375 
C 49.703125 -1.59375 56.90625 -0.40625 62.203125 1 
C 64.09375 1.5 65.90625 1.90625 67.09375 1.90625 
C 67.5 2.203125 67.5 2.796875 67.203125 3.09375 
C 65.40625 3.796875 64.796875 6.203125 64.796875 10.203125 
z
" id="AGaramondPro-Regular-47"/>
     <path d="M 9.796875 11.203125 
C 9.796875 4 9.703125 3.09375 6 2.5 
L 4.09375 2.203125 
C 3.40625 1.703125 3.59375 0 4.296875 -0.296875 
C 6.90625 -0.09375 9.90625 0 13.5 0 
C 17 0 19.90625 -0.09375 24.59375 -0.296875 
C 25.296875 0 25.5 1.703125 24.796875 2.203125 
L 21.203125 2.5 
C 17.40625 2.796875 17.203125 4 17.203125 11.203125 
L 17.203125 24.796875 
C 17.203125 28.203125 17.5 31.09375 18.5 32.5 
C 19.296875 33.59375 20.5 34.5 22.09375 34.5 
C 23.5 34.5 25 33.90625 26.5 32.90625 
C 27.203125 32.5 27.703125 32.203125 28.703125 32.203125 
C 30.296875 32.203125 33 33.5 33 36.796875 
C 33 39.203125 31 40.796875 28.5 40.796875 
C 24.796875 40.796875 21 37.703125 17.5 34.796875 
C 17.296875 34.90625 17.203125 35.203125 17.203125 35.703125 
L 17.203125 41.5 
C 17.203125 41.90625 16.90625 42.09375 16.40625 42.203125 
C 13.90625 40.703125 8.59375 38.09375 6.296875 37.296875 
C 5.796875 37 5.796875 35.90625 6.203125 35.5 
L 7.09375 34.90625 
C 9.796875 33.09375 9.796875 32.59375 9.796875 28.703125 
z
" id="AGaramondPro-Regular-72"/>
     <path d="M 24.796875 40.796875 
C 13 40.796875 3.5 31.796875 3.5 19.203125 
C 3.5 6.703125 12.5 -1.40625 24 -1.40625 
C 36.5 -1.40625 45.09375 7.59375 45.09375 20.09375 
C 45.09375 32.40625 36 40.796875 24.796875 40.796875 
z
M 36.5 18.5 
C 36.5 10.796875 33.796875 1.59375 25 1.59375 
C 16.203125 1.59375 12.09375 11.40625 12.09375 20.5 
C 12.09375 31.5 17 37.796875 23.59375 37.796875 
C 33.09375 37.796875 36.5 27 36.5 18.5 
z
" id="AGaramondPro-Regular-6f"/>
     <path d="M 16.703125 7.09375 
C 17.5 5 19.09375 0.90625 19.703125 -1.203125 
C 20 -1.5 20.5 -1.59375 20.90625 -1.59375 
C 21.40625 -1.59375 21.796875 -1.5 22.09375 -1.203125 
C 22.90625 1.09375 24.296875 4.703125 26.09375 9 
L 31.296875 21.5 
C 32 23.296875 33.40625 26.40625 33.5 26.40625 
C 33.59375 26.40625 35.09375 23.09375 35.796875 21.296875 
L 40.59375 9.796875 
C 42.296875 5.796875 44.09375 0.59375 44.703125 -1.203125 
C 45 -1.5 45.40625 -1.59375 45.796875 -1.59375 
C 46.296875 -1.59375 46.703125 -1.5 47.09375 -1.203125 
C 47.90625 1.40625 49.09375 4.296875 50.5 7.90625 
C 52.40625 13 57.203125 25 59.90625 30.59375 
C 62 35 62.90625 36.40625 65.296875 36.90625 
L 67.296875 37.296875 
C 67.90625 37.796875 67.796875 39.296875 67 39.703125 
C 64.796875 39.5 62.40625 39.40625 60.5 39.40625 
C 58 39.40625 55.5 39.5 52.59375 39.703125 
C 51.90625 39.40625 51.703125 37.796875 52.5 37.296875 
L 55 36.90625 
C 56.203125 36.703125 56.796875 36.203125 56.796875 35.59375 
C 56.796875 34.90625 56.59375 33.59375 55.796875 31.296875 
C 54.296875 27.09375 50.296875 16.5 49 13.59375 
C 48.296875 12 47.796875 11 47.59375 10.796875 
C 47.296875 11 46.90625 12.09375 46.296875 13.59375 
C 45.203125 16.296875 39.796875 29 38.703125 32.296875 
C 37.5 35.796875 37.296875 36.09375 41.296875 36.90625 
L 43.40625 37.296875 
C 44 37.796875 44 39.40625 43.09375 39.703125 
C 39.703125 39.5 36.703125 39.40625 33.59375 39.40625 
C 31 39.40625 27.796875 39.5 25.296875 39.703125 
C 24.5 39.40625 24.296875 37.90625 25 37.296875 
L 26.59375 36.90625 
C 28.796875 36.40625 30.296875 35.59375 31.203125 33.40625 
C 31.703125 32.09375 31.59375 30.796875 30.296875 27.59375 
L 25.40625 15.5 
C 24.203125 12.59375 23.40625 10.90625 23.09375 10.703125 
C 23.09375 10.90625 22.203125 12.703125 21.296875 15 
L 15.09375 30.296875 
C 14 33 13.5 34.90625 13.5 35.5 
C 13.5 36.09375 14.296875 36.703125 15.703125 36.90625 
L 18 37.296875 
C 18.703125 37.796875 18.59375 39.296875 17.796875 39.703125 
C 15.09375 39.5 12.203125 39.40625 9.09375 39.40625 
C 6.09375 39.40625 3.296875 39.5 0.203125 39.703125 
C -0.703125 39.296875 -0.59375 37.796875 -0.09375 37.296875 
L 1.5 36.90625 
C 4 36.296875 5.203125 35.296875 7.5 29.703125 
z
" id="AGaramondPro-Regular-77"/>
     <path d="M 29.296875 35.203125 
C 30.203125 35.796875 30.40625 38.5 29.203125 39.40625 
L 18.09375 39.40625 
C 16.40625 39.40625 16.296875 39.5 16.296875 41.296875 
L 16.296875 45.796875 
C 15.90625 46.5 14.703125 46.5 14.203125 46.296875 
C 13.203125 44.296875 11.296875 41.59375 10 40.40625 
C 9 39.5 6.5 38.203125 3.59375 37.296875 
C 3.203125 36.703125 3.296875 35.59375 3.90625 35.203125 
L 6.703125 35.203125 
C 8.703125 35.203125 8.796875 35 8.796875 32.296875 
L 8.796875 9.40625 
C 8.796875 3.40625 10.59375 -1.40625 19.203125 -1.40625 
C 24.296875 -1.40625 27.90625 1.09375 29.703125 3.203125 
C 29.90625 3.796875 29.5 4.90625 28.703125 4.90625 
C 28.40625 4.90625 27.09375 3.796875 26.203125 3.5 
C 25.40625 3.203125 24.5 3 23.5 3 
C 16.90625 3 16.203125 8.296875 16.203125 14.09375 
L 16.203125 32.796875 
C 16.203125 34.90625 16.296875 35.203125 18 35.203125 
z
" id="AGaramondPro-Regular-74"/>
     <path d="M 8.796875 11.203125 
C 8.796875 4 8.703125 2.90625 5 2.5 
L 2.5 2.203125 
C 1.796875 1.703125 2 0 2.703125 -0.296875 
C 5.90625 -0.09375 8.90625 0 12.5 0 
C 16 0 18.90625 -0.09375 21.90625 -0.296875 
C 22.59375 0 22.796875 1.796875 22.09375 2.203125 
L 20 2.5 
C 16.40625 3 16.203125 4 16.203125 11.203125 
L 16.203125 28 
C 16.203125 31.5 16.5 32 18.296875 33.5 
C 20.09375 35 22.703125 36.203125 26.09375 36.203125 
C 32.5 36.203125 35.59375 31.90625 35.59375 25.5 
L 35.59375 11.203125 
C 35.59375 4 35.5 3.09375 31.796875 2.5 
L 29.796875 2.203125 
C 29.09375 1.703125 29.296875 0 30 -0.296875 
C 32.703125 -0.09375 35.703125 0 39.296875 0 
C 42.796875 0 45.703125 -0.09375 49.296875 -0.296875 
C 50 0 50.203125 1.703125 49.5 2.203125 
L 46.796875 2.5 
C 43.203125 2.90625 43 4 43 11.203125 
L 43 27.90625 
C 43 34.90625 39.59375 40.796875 30.09375 40.796875 
C 25 40.796875 20.203125 38.40625 16.59375 35.59375 
C 16.296875 35.796875 16.203125 36.59375 16.203125 37.5 
L 16.203125 58.5 
C 16.203125 62.90625 16.40625 67.90625 16.5 70.90625 
C 16.296875 71.296875 15.90625 71.5 15.5 71.5 
C 11.90625 69.59375 7.203125 68.09375 4.703125 67.296875 
C 4.203125 67 4.203125 65.59375 4.703125 65.296875 
L 5.703125 64.703125 
C 8.703125 62.90625 8.796875 62.296875 8.796875 56.40625 
z
" id="AGaramondPro-Regular-68"/>
    </defs>
    <g style="fill:#472101;" transform="translate(92.7 36.048)scale(0.16 -0.16)">
     <use xlink:href="#AGaramondPro-Regular-53"/>
     <use x="48.899994" xlink:href="#AGaramondPro-Regular-61"/>
     <use x="89.299988" xlink:href="#AGaramondPro-Regular-6c"/>
     <use x="113.999985" xlink:href="#AGaramondPro-Regular-65"/>
     <use x="153.599976" xlink:href="#AGaramondPro-Regular-73"/>
     <use x="185.899963" xlink:href="#AGaramondPro-Regular-20"/>
     <use x="210.899948" xlink:href="#AGaramondPro-Regular-47"/>
     <use x="285.59993" xlink:href="#AGaramondPro-Regular-72"/>
     <use x="318.799927" xlink:href="#AGaramondPro-Regular-6f"/>
     <use x="367.399918" xlink:href="#AGaramondPro-Regular-77"/>
     <use x="433.399902" xlink:href="#AGaramondPro-Regular-74"/>
     <use x="464.099899" xlink:href="#AGaramondPro-Regular-68"/>
    </g>
   </g>
   <g id="legend_1">
    <g id="line2d_14">
     <path d="M 558.234 115.719759 
L 579.234 115.719759 
" style="fill:none;stroke:#ff7802;stroke-linecap:square;stroke-width:2;"/>
    </g>
    <g id="line2d_15">
     <defs>
      <path d="M 0 2.5 
C 0.663008 2.5 1.29895 2.236584 1.767767 1.767767 
C 2.236584 1.29895 2.5 0.663008 2.5 0 
C 2.5 -0.663008 2.236584 -1.29895 1.767767 -1.767767 
C 1.29895 -2.236584 0.663008 -2.5 0 -2.5 
C -0.663008 -2.5 -1.29895 -2.236584 -1.767767 -1.767767 
C -2.236584 -1.29895 -2.5 -0.663008 -2.5 0 
C -2.5 0.663008 -2.236584 1.29895 -1.767767 1.767767 
C -1.29895 2.236584 -0.663008 2.5 0 2.5 
z
" id="m9be8cf8ea2" style="stroke:#ff7802;"/>
     </defs>
     <g>
      <use style="fill:#ff7802;stroke:#ff7802;" x="568.734" xlink:href="#m9be8cf8ea2" y="115.719759"/>
     </g>
    </g>
    <g id="text_82">
     <!-- Hilti -->
     <g transform="translate(587.634 119.394759)scale(0.105 -0.105)">
      <use xlink:href="#DejaVuSans-48"/>
      <use x="75.195312" xlink:href="#DejaVuSans-69"/>
      <use x="102.978516" xlink:href="#DejaVuSans-6c"/>
      <use x="130.761719" xlink:href="#DejaVuSans-74"/>
      <use x="169.970703" xlink:href="#DejaVuSans-69"/>
     </g>
    </g>
    <g id="line2d_16">
     <path d="M 558.234 146.881791 
L 579.234 146.881791 
" style="fill:none;stroke:#2a90ac;stroke-dasharray:7.4,3.2;stroke-dashoffset:0;stroke-width:2;"/>
    </g>
    <g id="line2d_17"/>
    <g id="text_83">
     <!-- 75-Percentile -->
     <g transform="translate(587.634 150.556791)scale(0.105 -0.105)">
      <use xlink:href="#DejaVuSans-37"/>
      <use x="63.623047" xlink:href="#DejaVuSans-35"/>
      <use x="127.246094" xlink:href="#DejaVuSans-2d"/>
      <use x="163.330078" xlink:href="#DejaVuSans-50"/>
      <use x="223.585938" xlink:href="#DejaVuSans-65"/>
      <use x="285.109375" xlink:href="#DejaVuSans-72"/>
      <use x="326.191406" xlink:href="#DejaVuSans-63"/>
      <use x="381.171875" xlink:href="#DejaVuSans-65"/>
      <use x="442.695312" xlink:href="#DejaVuSans-6e"/>
      <use x="506.074219" xlink:href="#DejaVuSans-74"/>
      <use x="545.283203" xlink:href="#DejaVuSans-69"/>
      <use x="573.066406" xlink:href="#DejaVuSans-6c"/>
      <use x="600.849609" xlink:href="#DejaVuSans-65"/>
     </g>
    </g>
    <g id="line2d_18">
     <path d="M 558.234 178.043822 
L 579.234 178.043822 
" style="fill:none;stroke:#2a90ac;stroke-linecap:square;stroke-width:2;"/>
    </g>
    <g id="line2d_19"/>
    <g id="text_84">
     <!-- Median -->
     <g transform="translate(587.634 181.718822)scale(0.105 -0.105)">
      <use xlink:href="#DejaVuSans-4d"/>
      <use x="86.279297" xlink:href="#DejaVuSans-65"/>
      <use x="147.802734" xlink:href="#DejaVuSans-64"/>
      <use x="211.279297" xlink:href="#DejaVuSans-69"/>
      <use x="239.0625" xlink:href="#DejaVuSans-61"/>
      <use x="300.341797" xlink:href="#DejaVuSans-6e"/>
     </g>
    </g>
    <g id="line2d_20">
     <path d="M 558.234 209.205853 
L 579.234 209.205853 
" style="fill:none;stroke:#2a90ac;stroke-dasharray:7.4,3.2;stroke-dashoffset:0;stroke-width:2;"/>
    </g>
    <g id="line2d_21"/>
    <g id="text_85">
     <!-- 25-Percentile -->
     <g transform="translate(587.634 212.880853)scale(0.105 -0.105)">
      <use xlink:href="#DejaVuSans-32"/>
      <use x="63.623047" xlink:href="#DejaVuSans-35"/>
      <use x="127.246094" xlink:href="#DejaVuSans-2d"/>
      <use x="163.330078" xlink:href="#DejaVuSans-50"/>
      <use x="223.585938" xlink:href="#DejaVuSans-65"/>
      <use x="285.109375" xlink:href="#DejaVuSans-72"/>
      <use x="326.191406" xlink:href="#DejaVuSans-63"/>
      <use x="381.171875" xlink:href="#DejaVuSans-65"/>
      <use x="442.695312" xlink:href="#DejaVuSans-6e"/>
      <use x="506.074219" xlink:href="#DejaVuSans-74"/>
      <use x="545.283203" xlink:href="#DejaVuSans-69"/>
      <use x="573.066406" xlink:href="#DejaVuSans-6c"/>
      <use x="600.849609" xlink:href="#DejaVuSans-65"/>
     </g>
    </g>
   </g>
  </g>
 </g>
 <defs>
  <clipPath id="pcf553213a3">
   <rect height="299.592" width="456.084" x="92.7" y="42.048"/>
  </clipPath>
 </defs>
</svg>
